<?xml version="1.0" encoding="utf-8"?>
<!-- Generator: Adobe Illustrator 22.0.1, SVG Export Plug-In . SVG Version: 6.00 Build 0)  -->
<svg version="1.1" id="Calque_1" xmlns="http://www.w3.org/2000/svg" xmlns:xlink="http://www.w3.org/1999/xlink" x="0px" y="0px"
	 viewBox="0 0 69.6 69.6" style="enable-background:new 0 0 69.6 69.6;" xml:space="preserve">
<style type="text/css">
	.st0{fill:#CE0038;}
	.st1{fill:#FEFDFD;}
</style>
<title>france-inter</title>
<path class="st0" d="M69.6,0v58.4H14.4c-0.1,0-0.1,0-0.2,0c-0.3,0-0.6,0-0.9,0h-1.8c-0.1,0-0.2,0-0.2-0.2c0-0.9,0-1.9,0-2.8
	c0-0.3,0-0.6,0-0.8c0,0,0-0.1,0-0.1c0-14.3,0-28.6,0-43c0-0.1,0-0.2,0-0.3c0.1-0.1,0-0.1,0-0.2c0-3.6,0-7.2,0-10.8
	c0-0.3,0-0.3,0.3-0.3L69.6,0z M24,43.3c0-0.1,0-0.1,0-0.2c0-0.7,0-1.4,0-2c0-0.2,0-0.2-0.2-0.2h-3.6c-0.2,0-0.2,0-0.2,0.2
	c0,4.8,0,9.5,0,14.3c0,0.2,0,0.2,0.2,0.2H24c0.2,0,0.2-0.1,0.2-0.2c0-2.7,0-5.3,0-8c0-0.6,0.1-1.2,0.3-1.7c0.2-1.1,1.2-1.8,2.3-1.6
	c0.6,0,1.1,0.4,1.3,0.9c0.1,0.2,0.2,0.5,0.2,0.8c0.1,0.6,0.1,1.3,0.1,1.9c0,2.6,0,5.2,0,7.8c0,0.2,0,0.2,0.2,0.2h3.9
	c0.2,0,0.2,0,0.2-0.2c0-3.2,0-6.3,0-9.5c0-0.7-0.1-1.4-0.2-2.1c-0.2-1.4-1.2-2.6-2.5-3c-0.8-0.2-1.6-0.3-2.4-0.2
	c-1.2,0.1-2.2,0.7-2.9,1.7C24.4,42.6,24.2,43,24,43.3z M53.1,48.9h4.5c0.1,0,0.2,0,0.2-0.1c0-1.2-0.1-2.3-0.4-3.4
	c-0.5-1.8-1.7-3.3-3.4-4.1c-1.3-0.6-2.7-0.8-4.2-0.6c-2.1,0.2-4,1.5-5,3.3c-1.2,2.1-1.4,4.6-0.7,6.9c0.4,1.8,1.6,3.3,3.2,4.1
	c1.5,0.8,3.1,1,4.8,0.8c2.4-0.3,4.5-1.9,5.4-4.2c0.1-0.2,0.1-0.4,0.2-0.6c0-0.1,0-0.2-0.1-0.2s-0.5,0-0.7,0l-3-0.2
	c-0.1,0-0.2,0-0.2,0.1c0,0.3-0.1,0.6-0.3,0.9c-0.8,1.3-2.5,1.7-3.8,0.8c-0.3-0.2-0.6-0.5-0.8-0.8c-0.4-0.7-0.6-1.6-0.5-2.4
	c0-0.2,0.1-0.2,0.2-0.2L53.1,48.9z M36.1,48.2L36.1,48.2c0,1,0,2,0,3c0,0.5,0,1,0.1,1.4c0.1,0.6,0.3,1.1,0.6,1.6
	c0.4,0.6,1.1,1.1,1.8,1.2c1.6,0.4,3.4,0.4,5,0c0.1,0,0.1-0.1,0.1-0.2c0-1,0-2,0-3c0-0.1,0-0.1-0.1-0.1l-0.6,0.1
	c-0.5,0.1-1,0.1-1.6,0c-0.6,0-1-0.4-1-1c-0.1-0.4-0.1-0.8-0.1-1.2c0-1.9,0-3.8,0-5.8c0-0.2,0-0.2,0.2-0.2h2.8c0.2,0,0.2,0,0.2-0.2
	c0-1,0-2,0-3c0-0.1,0-0.2-0.2-0.2h-2.7c-0.2,0-0.2,0-0.2-0.2c0-1.4,0-2.8,0-4.2c0-0.2,0-0.2-0.2-0.2l-3.2,0.2
	c-0.4,0-0.3-0.1-0.4,0.4c-0.1,1.3-0.2,2.5-0.3,3.8c0,0.1,0,0.2-0.2,0.2h-2.2c-0.1,0-0.2,0-0.2,0.2c0,1,0,2,0,3c0,0.1,0,0.2,0.2,0.2
	c0.7,0,1.3,0,2,0c0.2,0,0.2,0,0.2,0.2C36,45.7,36,47,36.1,48.2L36.1,48.2z M62.9,43.6L62.9,43.6c0-0.1,0-0.1,0-0.2
	c0-0.8,0-1.5,0-2.3c0-0.2,0-0.2-0.2-0.2h-3.6c-0.2,0-0.2,0-0.2,0.2c0,4.8,0,9.5,0,14.3c0,0.2,0,0.2,0.2,0.2h3.9c0.2,0,0.2,0,0.2-0.2
	c0-1.9,0-3.7,0-5.6c0-0.9,0.1-1.8,0.3-2.6c0.2-0.8,0.7-1.6,1.5-1.9c0.5-0.2,1-0.3,1.5-0.3c0.2,0,0.2,0,0.2-0.2c0-1.3,0-2.5,0-3.8
	c0-0.3,0-0.3-0.3-0.3h-0.2c-1-0.2-2.1,0.3-2.6,1.2c-0.3,0.4-0.5,0.9-0.6,1.4L62.9,43.6z M18.3,48.2c0-2.4,0-4.8,0-7.1
	c0-0.2,0-0.2-0.2-0.2h-3.9c-0.2,0-0.2,0-0.2,0.2c0,4.8,0,9.5,0,14.3c0,0.2,0,0.2,0.2,0.2h3.9c0.2,0,0.2,0,0.2-0.2
	C18.3,53,18.3,50.6,18.3,48.2z M16.1,39.6h2c0.1,0,0.2,0,0.2-0.2c0-1.3,0-2.5,0-3.8c0-0.1,0-0.2-0.1-0.2h-4c-0.1,0-0.1,0-0.1,0.2
	c0,1.3,0,2.5,0,3.8c0,0.1,0,0.2,0.2,0.2H16.1z M53.1,38.4c-0.1-0.3-0.1-0.6-0.1-0.9c0-0.7,0-1.5,0-2.2c0.1-0.6-0.4-1.2-1-1.3
	c-0.6-0.2-1.3-0.1-1.9,0.1c-0.5,0.1-0.9,0.5-1,1c-0.1,0.2-0.1,0.2,0.2,0.2s0.6,0,0.8,0.1s0.2,0,0.2-0.2c0-0.2,0.2-0.4,0.5-0.5
	c0.3-0.1,0.5,0,0.8,0.2c0.1,0.1,0.1,0.2,0.1,0.3c0,0.1,0,0.2,0,0.3s0,0.1-0.1,0.1l-0.8,0.1c-0.4,0-0.8,0.2-1.2,0.4
	c-0.6,0.4-0.8,1.2-0.4,1.8c0.1,0.2,0.2,0.3,0.4,0.4c0.7,0.3,1.5,0.2,2-0.3l0.2-0.2c0,0.2,0,0.3,0,0.5c0,0.1,0,0.1,0.1,0.1L53.1,38.4
	z M65.4,36.4L65.4,36.4c0.4,0,0.8,0,1.2,0c0.2,0,0.2,0,0.2-0.2c0-0.2,0-0.5-0.1-0.7c-0.1-0.8-0.7-1.4-1.5-1.6
	c-0.8-0.2-1.7,0.1-2.2,0.8c-0.3,0.4-0.5,0.9-0.5,1.4c-0.1,0.6,0.1,1.3,0.5,1.8c0.5,0.6,1.3,0.8,2,0.7c0.8-0.1,1.4-0.6,1.6-1.3
	c0.1-0.2,0-0.2-0.1-0.2s-0.6,0-0.9-0.1c-0.1,0-0.2,0-0.2,0.1c-0.1,0.3-0.3,0.5-0.6,0.6c-0.5,0.1-0.9-0.2-1-0.7c0-0.1,0-0.2,0-0.2
	c0-0.2,0-0.3,0.2-0.2C64.6,36.4,65,36.4,65.4,36.4L65.4,36.4z M54.9,34.7c0-0.2,0-0.4,0-0.6s0-0.1-0.1-0.1h-1c-0.1,0-0.1,0-0.1,0.1
	c0,1.4,0,2.8,0,4.2c0,0.1,0,0.1,0.1,0.1h1c0.1,0,0.2,0,0.2-0.2c0-0.8,0-1.6,0-2.4c0-0.2,0-0.4,0.2-0.6c0.1-0.2,0.4-0.4,0.6-0.3
	c0.2,0,0.4,0.2,0.4,0.5c0,0.2,0,0.3,0,0.5c0,0.8,0,1.6,0,2.4c0,0.1,0,0.1,0.1,0.1h1c0.1,0,0.1,0,0.1-0.1c0-1,0-2.1,0-3.1
	c0-0.5-0.3-1-0.8-1.2c-0.7-0.3-1.4,0-1.7,0.7L54.9,34.7z M59.5,36.1c0-0.2,0-0.4,0-0.5c0-0.3,0.2-0.5,0.4-0.7
	c0.3-0.2,0.7-0.1,0.9,0.3c0.1,0.1,0.1,0.2,0.1,0.3c0,0.1,0,0.1,0.2,0.1l1-0.1c0.1,0,0.1,0,0.1-0.1c0-0.3-0.2-0.6-0.4-0.9
	c-0.6-0.6-1.5-0.8-2.3-0.5c-0.8,0.3-1.4,1-1.4,1.8c-0.1,0.7,0,1.4,0.5,2c0.5,0.5,1.2,0.8,1.9,0.7c0.9-0.1,1.6-0.7,1.7-1.6
	c0-0.1,0-0.2-0.1-0.2c-0.3,0-0.6,0-0.8,0s-0.3,0-0.3,0.2c-0.1,0.3-0.4,0.6-0.7,0.5c-0.3,0-0.6-0.2-0.6-0.5
	C59.5,36.7,59.5,36.4,59.5,36.1L59.5,36.1z M45.3,36.7c0-0.5,0-1,0-1.5c0-0.2,0-0.2,0.2-0.2h0.5c0.1,0,0.2,0,0.2-0.1s0-0.5,0-0.8
	c0-0.1,0-0.1-0.1-0.1h-0.5c0,0-0.1,0-0.1-0.1c-0.1-0.2,0-0.5,0.2-0.6c0.1,0,0.2,0,0.2,0c0.1,0,0.3,0,0.4,0s0-0.3,0-0.4
	s0.1-0.4,0-0.5s-0.3-0.1-0.5-0.1c-0.8,0-1.6,0.3-1.6,1.3c0,0.1,0,0.3,0,0.4s-0.2,0-0.4,0s-0.1,0-0.1,0.1s0,0.4,0,0.5s0,0.3,0.3,0.3
	c0.2,0,0.2,0,0.2,0.2c0,1,0,1.9,0,2.9c0,0.2,0.1,0.2,0.2,0.2s0.6,0,0.9,0c0.1,0,0.2,0,0.2-0.2C45.2,37.7,45.2,37.2,45.3,36.7
	L45.3,36.7z M47.6,34.7c0-0.2,0-0.4,0-0.6s0-0.2-0.1-0.2h-1c-0.1,0-0.1,0-0.1,0.1c0,1.4,0,2.8,0,4.2c0,0.1,0,0.1,0.1,0.1
	c0.3,0,0.7,0,1,0c0.2,0,0.2,0,0.2-0.2c0-0.7,0-1.4,0-2.1c0-0.5,0.3-1,0.9-1c0,0,0.1,0,0.1,0c0.1,0,0.1,0,0.1-0.1c0-0.4,0-0.7,0-1.1
	c0-0.1,0-0.1-0.1-0.1c-0.3-0.1-0.7,0.1-0.8,0.4C47.8,34.4,47.7,34.5,47.6,34.7L47.6,34.7z"/>
<path d="M14.2,58.4c0.1,0,0.1,0,0.2,0h44c0,0.1,0,0.2,0,0.2c0,3.6,0,7.2,0,10.7c0,0.1,0,0.2,0,0.2H0.2c-0.1,0-0.2,0-0.2-0.2
	C0,50,0,30.6,0,11.2h11.2c0,0.1,0,0.2,0,0.3c0,14.3,0,28.6,0,43c0,21.5,0,0.1,0,0.1c-0.1,0-0.1,0-0.2,0c-0.8,0-1.5,0.1-2.2,0.2
	c-0.1,0-0.1,0-0.1,0.1c0,0.3,0,0.5,0,0.8c0,1.3,0,2.7,0,4c0,0.2,0.1,0.2,0.2,0.2l2.9,0.2c0.5,0,1,0.1,1.6,0.1c0.6,0,1.1,0.5,1.1,1.1
	c0,0.3-0.1,0.7-0.4,0.9c-0.2,0.3-0.5,0.5-0.9,0.6h1.4c0.3,0,0.6-0.1,0.8-0.3c1-0.9,1.1-2.3,0.3-3.3C15.3,58.7,14.7,58.4,14.2,58.4z
	 M6.7,59.5l-1.5-0.1c0,0-0.1,0-0.1,0c-0.4,0.5-0.7,1.1-0.7,1.7c0,0.7,0.2,1.3,0.7,1.8c0.6,0.8,1.4,1.4,2.4,1.8
	c1.2,0.5,2.4,0.9,3.7,1c0.2,0,0.2,0,0.2-0.2c-0.1-0.9-0.1-1.9-0.2-2.8c0-0.1-0.1-0.1-0.2-0.1c-0.7,0.1-1.4,0-2.1-0.1
	c-0.8-0.1-1.6-0.5-2.1-1.1c-0.3-0.2-0.4-0.6-0.4-1C6.3,60,6.5,59.7,6.7,59.5z"/>
<path class="st1" d="M24,43.3c0.2-0.4,0.4-0.7,0.7-1.1c0.7-1,1.7-1.6,2.9-1.7c0.8-0.1,1.6,0,2.4,0.2c1.4,0.4,2.4,1.6,2.6,3
	c0.1,0.7,0.2,1.4,0.2,2.1c0,3.2,0,6.3,0,9.5c0,0.2,0,0.2-0.2,0.2h-3.9c-0.1,0-0.2,0-0.2-0.2c0-2.6,0-5.2,0-7.8c0-0.6,0-1.3-0.1-1.9
	c0-0.3-0.1-0.5-0.2-0.8c-0.2-0.5-0.7-0.9-1.3-0.9c-1.1-0.1-2.1,0.5-2.3,1.6c-0.2,0.6-0.3,1.1-0.3,1.7c0,2.7,0,5.3,0,8
	c0,0.2,0,0.2-0.2,0.2h-3.9c-0.1,0-0.2,0-0.2-0.2c0-4.8,0-9.5,0-14.3c0-0.2,0-0.2,0.2-0.2h3.6c0.2,0,0.2,0,0.2,0.2c0,0.7,0,1.4,0,2
	C24,43.2,24,43.3,24,43.3z"/>
<path class="st1" d="M53.1,48.9h-4.5c-0.2,0-0.2,0-0.2,0.2c-0.1,0.8,0.1,1.7,0.5,2.4c0.8,1.3,2.5,1.7,3.8,0.8
	c0.3-0.2,0.6-0.5,0.8-0.8c0.2-0.3,0.3-0.6,0.3-0.9c0-0.1,0-0.2,0.2-0.1l3,0.2c0.2,0,0.5,0,0.7,0s0.2,0.1,0.1,0.2
	c-0.1,0.2-0.1,0.4-0.2,0.6c-0.9,2.3-2.9,3.9-5.4,4.2c-1.6,0.3-3.3,0.1-4.8-0.7c-1.6-0.8-2.8-2.3-3.2-4.1c-0.7-2.3-0.4-4.8,0.7-6.9
	c1-1.9,2.9-3.1,5-3.3c1.4-0.2,2.9,0,4.2,0.6c1.7,0.8,2.9,2.3,3.4,4.1c0.3,1.1,0.5,2.3,0.4,3.4c0,0.2-0.1,0.1-0.2,0.1L53.1,48.9z
	 M50.9,46.4h2.4c0.2,0,0.2,0,0.2-0.2s0-0.4-0.1-0.6c-0.1-0.6-0.3-1.1-0.7-1.6c-0.4-0.5-1-0.7-1.6-0.7c-0.9-0.1-1.9,0.4-2.3,1.2
	c-0.3,0.5-0.4,1.1-0.5,1.6c0,0.1,0,0.2,0.2,0.2L50.9,46.4z"/>
<path class="st1" d="M36,48.2c0-1.2,0-2.5,0-3.8c0-0.2,0-0.2-0.2-0.2c-0.7,0-1.3,0-2,0c-0.2,0-0.2,0-0.2-0.2c0-1,0-2,0-3
	c0-0.1,0-0.2,0.2-0.2H36c0.1,0,0.2,0,0.2-0.2c0.1-1.3,0.2-2.5,0.3-3.8c0-0.5,0-0.3,0.4-0.4l3.2-0.2c0.2,0,0.2,0,0.2,0.2
	c0,1.4,0,2.8,0,4.2c0,0.2,0.1,0.2,0.2,0.2h2.7c0.2,0,0.2,0,0.2,0.2c0,1,0,2,0,3c0,0.2,0,0.2-0.2,0.2h-2.8c-0.2,0-0.2,0.1-0.2,0.2
	c0,1.9,0,3.8,0,5.8c0,0.4,0,0.8,0.1,1.2c0,0.6,0.4,1,1,1c0.5,0.1,1,0.1,1.6,0l0.6-0.1c0.1,0,0.1,0,0.1,0.1c0,1,0,2,0,3
	c0,0.1,0,0.1-0.1,0.2c-1.6,0.4-3.4,0.4-5,0c-0.8-0.2-1.4-0.6-1.8-1.2c-0.3-0.5-0.5-1.1-0.6-1.6c-0.1-0.5-0.1-1-0.1-1.4c0-1,0-2,0-3
	L36,48.2z"/>
<path class="st1" d="M62.9,43.6l0.1-0.4c0.2-0.5,0.4-1,0.7-1.4c0.5-0.9,1.6-1.4,2.6-1.2h0.2c0.3,0,0.3,0,0.3,0.3c0,1.3,0,2.5,0,3.8
	c0,0.2,0,0.2-0.2,0.2c-0.5,0-1.1,0.1-1.5,0.3c-0.8,0.4-1.4,1.1-1.6,2c-0.2,0.9-0.3,1.7-0.3,2.6c0,1.9,0,3.7,0,5.6
	c0,0.2,0,0.2-0.2,0.2h-3.9c-0.1,0-0.2,0-0.2-0.2c0-4.8,0-9.5,0-14.3c0-0.2,0-0.2,0.2-0.2h3.6c0.2,0,0.2,0,0.2,0.2c0,0.8,0,1.5,0,2.3
	C62.9,43.4,62.9,43.5,62.9,43.6L62.9,43.6z"/>
<path class="st1" d="M18.3,48.2c0,2.4,0,4.7,0,7.1c0,0.2,0,0.2-0.2,0.2h-3.9c-0.2,0-0.2,0-0.2-0.2c0-4.8,0-9.5,0-14.3
	c0-0.2,0-0.2,0.2-0.2h3.9c0.2,0,0.2,0,0.2,0.2C18.3,43.5,18.3,45.8,18.3,48.2z"/>
<path class="st1" d="M14.2,58.4c0.5,0.1,1.1,0.3,1.5,0.7c0.8,1,0.7,2.5-0.3,3.3c-0.2,0.2-0.5,0.3-0.8,0.3h-1.4
	c0.3-0.1,0.6-0.3,0.9-0.6c0.4-0.4,0.4-1.2,0-1.6c-0.2-0.2-0.4-0.3-0.6-0.3c-0.5-0.1-1-0.1-1.6-0.2l-2.9-0.2c-0.1,0-0.2,0-0.2-0.2
	c0-1.3,0-2.7,0-4c0-0.3,0-0.5,0-0.8c0-0.1,0-0.1,0.1-0.1c0.7,0,1.5-0.1,2.2-0.2c0.1,0,0.1,0,0.2,0c0,0.3,0,0.6,0,0.8
	c0,0.9,0,1.9,0,2.8c0,0.1,0,0.2,0.2,0.2h1.8C13.6,58.4,13.9,58.4,14.2,58.4z"/>
<path class="st1" d="M16.1,39.6h-2c-0.1,0-0.2,0-0.2-0.2c0-1.3,0-2.5,0-3.8c0-0.1,0-0.2,0.1-0.2h4c0.1,0,0.1,0,0.1,0.2
	c0,1.3,0,2.5,0,3.8c0,0.1,0,0.2-0.2,0.2H16.1z"/>
<path class="st1" d="M53.1,38.4h-1.2c-0.1,0-0.1,0-0.1-0.1c0-0.2,0-0.3,0-0.5l-0.2,0.2c-0.5,0.5-1.3,0.7-2,0.3
	c-0.6-0.4-0.8-1.2-0.4-1.8c0.1-0.2,0.2-0.3,0.4-0.4c0.4-0.2,0.8-0.3,1.2-0.4l0.8-0.1c0.1,0,0.1,0,0.1-0.1s0-0.2,0-0.3
	c0-0.1,0-0.2-0.1-0.3c-0.2-0.2-0.5-0.2-0.8-0.2c-0.2,0-0.4,0.2-0.5,0.5c0,0.1,0,0.2-0.2,0.2s-0.6-0.1-0.8-0.1s-0.2,0-0.2-0.2
	c0.1-0.5,0.5-0.9,1-1c0.6-0.2,1.2-0.2,1.8,0c0.6,0.1,1.1,0.7,1,1.3c0,0.7,0,1.5,0,2.2C53,37.8,53,38.1,53.1,38.4z M51.7,36.6
	c0-0.1,0-0.2,0-0.2s0-0.1-0.1-0.1c-0.3,0-0.6,0.1-0.8,0.2c-0.2,0.1-0.3,0.2-0.4,0.4c-0.1,0.2,0,0.4,0.2,0.6c0.2,0.1,0.4,0.2,0.6,0.1
	C51.5,37.4,51.8,37,51.7,36.6z"/>
<path class="st1" d="M65.4,36.4c-0.4,0-0.8,0-1.2,0c-0.2,0-0.2,0.1-0.2,0.2c0,0.5,0.3,0.9,0.8,0.9c0.1,0,0.2,0,0.2,0
	c0.3,0,0.6-0.3,0.6-0.6c0-0.1,0.1-0.1,0.2-0.1c0.3,0,0.6,0,0.9,0.1s0.2,0.1,0.1,0.2c-0.2,0.7-0.9,1.2-1.6,1.3
	c-0.7,0.1-1.5-0.1-2-0.7c-0.4-0.5-0.6-1.1-0.5-1.8c0-0.5,0.2-1,0.4-1.3c0.5-0.7,1.4-1,2.2-0.8c0.8,0.2,1.4,0.8,1.5,1.6
	c0,0.2,0.1,0.5,0.1,0.7c0,0.1,0,0.2-0.2,0.2C66.2,36.4,65.8,36.4,65.4,36.4L65.4,36.4z M65.5,35.6c0-0.1,0-0.2,0-0.3
	c0-0.3-0.2-0.6-0.6-0.6c-0.6-0.1-0.9,0.3-1,0.8c0,0.1,0,0.1,0.1,0.1L65.5,35.6z"/>
<path class="st1" d="M54.9,34.7L54.9,34.7c0.4-0.7,1.1-1,1.8-0.8c0.5,0.1,0.9,0.6,0.8,1.2c0,1,0,2.1,0,3.1c0,0.1,0,0.1-0.1,0.1h-1
	c-0.1,0-0.1,0-0.1-0.1c0-0.8,0-1.6,0-2.4c0-0.2,0-0.3,0-0.5c-0.1-0.3-0.2-0.4-0.4-0.5c-0.3,0-0.5,0.1-0.6,0.3
	c-0.1,0.2-0.2,0.4-0.2,0.6c0,0.8,0,1.6,0,2.4c0,0.2,0,0.2-0.2,0.2h-1c-0.1,0-0.1,0-0.1-0.1c0-1.4,0-2.8,0-4.2c0-0.1,0-0.1,0.1-0.1h1
	c0.1,0,0.1,0,0.1,0.1S54.9,34.4,54.9,34.7z"/>
<path class="st1" d="M59.5,36.1c0,0.2,0,0.5,0.1,0.7c0,0.3,0.3,0.5,0.6,0.5c0.3,0,0.6-0.2,0.7-0.5c0-0.2,0.1-0.2,0.3-0.2
	s0.5,0,0.8,0c0.1,0,0.2,0,0.1,0.2c-0.1,0.9-0.8,1.5-1.7,1.6c-0.7,0.1-1.4-0.1-1.9-0.7c-0.4-0.6-0.6-1.3-0.5-2
	c0.1-0.8,0.6-1.5,1.4-1.7c0.8-0.3,1.8-0.1,2.3,0.6c0.2,0.3,0.3,0.6,0.4,0.9c0,0.1,0,0.1-0.1,0.1l-1,0.1c-0.1,0-0.1,0-0.2-0.1
	c0-0.4-0.3-0.7-0.7-0.6c-0.1,0-0.2,0-0.3,0.1c-0.2,0.1-0.4,0.4-0.4,0.7C59.5,35.8,59.5,36,59.5,36.1z"/>
<path class="st1" d="M45.2,36.7c0,0.5,0,1,0,1.5c0,0.1,0,0.2-0.2,0.2c-0.3,0-0.6,0-0.9,0s-0.2,0-0.2-0.2c0-1,0-1.9,0-2.9
	c0-0.2,0-0.2-0.2-0.2c-0.3,0-0.3,0-0.3-0.3s0-0.4,0-0.5s0-0.1,0.1-0.1s0.3,0.1,0.4,0s0-0.2,0-0.4c0-1.1,0.8-1.4,1.6-1.3
	c0.2,0,0.4,0,0.5,0.1s0,0.3,0,0.5s0.1,0.3,0,0.4s-0.3,0-0.4,0c-0.3,0-0.5,0.2-0.5,0.4c0,0.1,0,0.2,0,0.2c0,0.1,0.1,0.1,0.1,0.1h0.5
	c0.1,0,0.1,0,0.1,0.1c0,0.2,0,0.5,0,0.8s0,0.1-0.2,0.1h-0.5c-0.1,0-0.2,0-0.2,0.2C45.3,35.7,45.2,36.2,45.2,36.7z"/>
<path class="st1" d="M47.6,34.7c0.1-0.2,0.1-0.3,0.2-0.4c0.2-0.3,0.5-0.5,0.8-0.4c0.1,0,0.1,0,0.1,0.1c0,0.4,0,0.7,0,1.1
	c0,0.1,0,0.1-0.1,0.1c-0.5,0-0.9,0.4-0.9,0.9c0,0,0,0.1,0,0.1c-0.1,0.7,0,1.4,0,2.1c0,0.2,0,0.2-0.2,0.2c-0.3,0-0.7,0-1,0
	c-0.1,0-0.1,0-0.1-0.1c0-1.4,0-2.8,0-4.2c0-0.1,0-0.1,0.1-0.1h1c0.1,0,0.2,0,0.1,0.2S47.6,34.5,47.6,34.7z"/>
<path class="st1" d="M6.7,59.5c-0.2,0.3-0.4,0.6-0.4,1c0,0.4,0.1,0.7,0.4,1c0.6,0.6,1.3,1,2.1,1.1c0.7,0.1,1.4,0.2,2.2,0.1
	c0.1,0,0.2,0,0.2,0.1c0.1,0.9,0.1,1.9,0.2,2.8c0,0.2,0,0.2-0.2,0.2c-1.3-0.1-2.6-0.5-3.7-1c-0.9-0.4-1.7-1-2.4-1.8
	c-0.4-0.5-0.7-1.2-0.7-1.8c0-0.6,0.3-1.2,0.7-1.7c0,0,0.1-0.1,0.1,0L6.7,59.5z"/>
<path class="st0" d="M50.9,46.4h-2.4c-0.2,0-0.2,0-0.2-0.2c0.1-0.6,0.2-1.1,0.5-1.6c0.5-0.8,1.4-1.3,2.3-1.2c0.6,0,1.2,0.2,1.6,0.7
	c0.4,0.5,0.6,1,0.7,1.6c0,0.2,0,0.4,0.1,0.6s0,0.2-0.2,0.2L50.9,46.4z"/>
<path class="st0" d="M51.7,36.6c0.1,0.4-0.2,0.8-0.6,1c-0.2,0.1-0.4,0.1-0.6-0.1c-0.2-0.1-0.2-0.4-0.2-0.6c0.1-0.2,0.2-0.4,0.4-0.4
	c0.3-0.1,0.6-0.2,0.8-0.2c0.1,0,0.1,0,0.1,0.1S51.7,36.5,51.7,36.6z"/>
<path class="st0" d="M65.5,35.6H64c0,0-0.1,0-0.1-0.1c0.1-0.5,0.4-0.9,1-0.8c0.3,0.1,0.5,0.3,0.6,0.6C65.5,35.4,65.5,35.5,65.5,35.6
	z"/>
</svg>
