<?xml version="1.0" encoding="utf-8"?>
<!-- Generator: Adobe Illustrator 22.0.1, SVG Export Plug-In . SVG Version: 6.00 Build 0)  -->
<svg version="1.1" id="Calque_1" xmlns="http://www.w3.org/2000/svg" xmlns:xlink="http://www.w3.org/1999/xlink" x="0px" y="0px"
	 viewBox="0 0 493.9 240.8" style="enable-background:new 0 0 493.9 240.8;" xml:space="preserve">
<style type="text/css">
	.st0{fill:#D8E0AF;}
	.st1{fill:#61C0BD;}
</style>
<title>home_logo</title>
<path class="st0" d="M443.4,112H443c-0.3-3-3.2-5-4.8-7.5c-0.4-0.4-1.6-0.6-1.2-1.4c-2.3-1.3-3.9-2.7-6.4-3.4c-5-3.1-12.7-2-18.2-1
	c-4.5,0.9-7.9,2.1-11.1,5.3c-0.5,0.4-1.8-0.2-1.2,1.1c-1.9,1.2-3.6,2.8-5,4.6c-0.5,0.7,0.2,2.5-1.3,2.1c-0.7,1.1,0.3,2.9-1.3,3.2
	c0.2,2.3-2.3,3.9-1.6,6.2c0.4,1.8-0.7,3.6,0,5c-0.7,5.4,2.5,8.8,3.9,13.4c0.4,0.2,1.8,0.6,1.2,1.6c1.1,2,2.7,2.2,4.1,3.8
	c2.3,1.3,4.5,2.9,7.5,3.4v0.4c1.8,0.4,4.3-0.1,5.7,1.3c5-0.1,9.5,0.6,13.6-2.1c2.1-0.5,3.9-2.5,6.3-2.8c3.8-3,7.4-6.9,9-11
	c2.9-3.7,2.5-8.4,3.1-12.5C445,118.4,444.4,115.1,443.4,112z M429.1,140c-2.3,3-6.1,4.6-9.9,4.1c-3.2-0.6-6.8-0.9-8.7-3.8
	c-3,0.9-0.7-2.7-2.9-2.9c-0.4-2-1.8-3.6-2.8-5.4c0.7-2.7-1.9-3.9-1.2-6.4c-0.9-3.6,0.2-7.2,0.8-10.9c-0.5-0.5,0-1.8,0.2-2.7
	c0.3-1.4,1-2.7,1.8-3.9c0.5,0.2,0.9-0.3,1.2-0.7c-0.2-2,2.1-1.4,3.1-2.8c1.6,0.4,2.9-2.1,4.3-1.2s3.6-1.6,4.8,0.7
	c4.6,0.6,7.8,4.9,9.6,8.6c1.8,0.5,0.9,2.9,1.9,4.1c2.1,4.5,1.6,9.3,1.7,15C431.1,134.3,431.6,137.9,429.1,140z"/>
<path class="st0" d="M360.6,142.5c-1.2-2-3.6-1.1-5.5-1.5c-1.2-0.5-2-1.6-2.1-2.9c1.5-4.8-0.8-9.8,0.6-14.7
	c-0.9-3.9,0.6-7.9-0.3-12.2h0.4c0-2-1-4.1,0-5.9c-0.7-4.7,0.4-7.9-0.6-12.7c0.7-2.8,0.4-6.1,0.4-8.8c0.4-0.5,0.5-1.1-0.2-1.4
	c1.1-11.4-0.2-22.5,0.7-34.5c-0.3-0.8-1.2-1.2-2-0.9c-4.5,2.5-8.3,5.5-13.6,6.4c-1,0.5-1.8,1.1-2.5,2c-0.9,0.7-0.2,2,0.2,2.7
	c0.9,0.5,2.5,1.1,3.4,0.2c1.4,0.9,3.7,1.3,3.7,3.1c-1,12.5-1.2,25-0.6,37.5c-0.4,0.4-1.4,0.3-1.4-0.4c-4.8-1.1-10.4-1.8-15.2-1
	c-2.1-0.2-2.9,1.2-4.8,1.2c-2.7,1.6-5.4,2.1-7.2,4.8c-1.4-0.4-1.3,1.4-2.2,2.1c-1.6,0.7-2.2,3.4-3.8,4.3l-0.2,1.4
	c-2.2,1.8-1.1,4.6-2.5,6.6c-0.4,4.5-0.8,9.7,0.3,13.9c0.1,5.9,4,10,7.4,13.8c1.6-0.5,0.4,1.8,2,1.3c1.1,1.6,3.2,1.1,4.3,2.4
	c3.2-0.3,6.2,2.2,9.5,0.4c2.3,0.2,2.9-1.4,5.4-1.4c0.9-1.6,3-1.1,3.2-2.8c1.6-1.6,2.7-3.7,4.7-4.8c1.4,3-0.9,6.1,0.3,9.1
	c1.6,0.9,2.5-0.7,4.1,0.2v0.2c2.2-2.3,5.7-3.4,9.3-3.2c1.6-1.1,3.4,0.4,4.7-1.2C361.5,145.2,361.2,143.2,360.6,142.5z M341.4,134.3
	c-1.6,2.7-5.4,3.7-7.9,5c-4.1,0.9-8-0.6-11.1-2.4c-4.1-4.7-5.1-10.8-5.3-16.7c0.6-4.1,0.2-9.1,2.8-13c0.9-1.6,2.5-2,3.2-3.6
	c2.7-0.5,5-1.9,8-1.4c0,0.5-0.4,1.1,0.2,1.4c0.9-2.8,2.5,0.7,4.3,0c2.1,1.8,5.7,3.4,6.4,6.5c0.1,5-0.1,9.8,0.5,14.5
	C340.7,128.1,344.1,131.5,341.4,134.3L341.4,134.3z"/>
<path class="st0" d="M209.9,96.4c-1.8-3-6.2-0.9-8.2,0.5c-1.1,0.7-2.3,1.3-3.6,1.6c-0.2,0.3-0.2,1.2-1.1,1.1c0,1.8-2.3,0.7-2.7,2.5
	c-2.5,1.4-3.7-1.6-5.9-1.5c-6.6-2.9-14.3-2.2-20.7,0.8c-1.8,0.7-2.7,2.3-4.3,3.2c-3.1,1.9-3.1,5.9-4.7,8.9h-0.4
	c0,4.8,0.3,10,3.9,13.1c0.6,1,0.5,2.4-0.4,3.2c-3,2.1-6.8,5.3-7.4,9.2c-1.1,2.7,0.9,5.4,3,7.4c2.5,0.9,4.4,2.9,7.5,2.9
	c0.7,1.8,2.9,0.7,3.7,2.2c2.3,0.9,4.5,1.5,6.4,3.1c5.4,0.7,9.3,4,13.4,6.7c0.5,2.5,2.8,3.4,2.3,6.1c-0.7,3.2-2.7,7.1-6.5,7.8
	c-3.2,1.1-5.5,0-8.6,0.5v-0.2l-3-0.4c-4.3-1.1-8-3.8-10.3-7.6c-1-3.8-2.1-8.2-0.1-12.1c-1.4-3.2-3.4,0.3-5.9-0.2
	c-0.9,2.1-4.3,2.1-4.1,4.4c-1.8,1.8-2.2,5.5-1.3,8.4c0.5,4.3,4.1,6.3,6.9,9c0.7,0.7,2.3,0.2,2.9,1.3c4.3,1.1,8,2.2,12.7,2
	c3.8,1.1,7.5,0,12-0.1c0.9-1.2,2.1-0.9,3.4-1.2c2.5-0.4,4.3-1.8,6.4-2.6c1.1-1.6,3-1.9,3.6-3.6c3.2-3.1,4.6-7.7,3.6-12.1
	c-0.9-3.7-3.1-6.8-6.2-9c-1.6-2.7-5.4-2.4-7.5-4.5c-2.3-0.6-5-1.1-6.4-2.7c-1.8,0.7-2.7-1.4-4.3-1.1c-1.1-1.1-2.9-1.1-4.1-2
	c-2.9-1.6-5.7-2.2-8.2-4.3c0.2-0.9-1.6-1.4-0.3-2.1c-0.5-1.6,0.9-2.3,1.4-3.4l0.5,0.4c0.4,0,0.4,1.2,0.9,0.7
	c0.9-1.4,1.2,0.7,2.5,0.2c2,1.6,5.5,2,7.9,1.6c5.7,0,12.2-0.6,15.9-4.7c0.7-1.4,1.8-2.5,3.2-3.2c0.5-0.9,0-2.1,1.1-2.7
	c2.2-5.2,2.2-12.5-2.2-16.6c2-4.8,6.8-1.6,10.6-3.2c2-0.2,2.3-2.3,3.6-3.2C210.6,99.4,211.5,97.3,209.9,96.4z M183.8,129.5
	c-2.7,1.1-6.6,0.7-8.8-1.1c0.2-1.8-2-0.2-1.4-2c-1.2-0.7-2-2.2-2.7-3.4l-0.2-2c-0.7-0.4-0.5-1.6-0.9-2.3c0.4-3.4-0.7-6.8,0.9-9.5
	c0.2-2,1.4-2.5,2.2-4.3c1.4-0.3,3.4-1.8,4.5-0.9c0.4-0.9,1.4-0.9,2.3-0.9c1.1,1.1,2.3,1.3,3.6,1.8c0.2,1.8,2.5,1.3,2.5,3.2
	c1.1-0.2,0.5,1.4,1.2,1.8c1.2,1.4,0.1,4.1,1.8,5.4C189.2,120.6,188.9,126.8,183.8,129.5L183.8,129.5z"/>
<path class="st0" d="M257.5,137.2c-2.7-0.6-4.3,0.9-6.4,1.2c-3.8,2.8-9.8,1-13.4,0.6c0.4-1.4-1.2-0.4-1.6-0.9
	c-2.7-1.4-5.3-4.3-6-7.4c-1.3-3.1-1.9-6.5-1.9-9.8c1.4-1.2-0.7-3.4,0.9-4.3c0.5-0.5,1.2-0.2,1.8,0.2c3.2,0,6.8-0.5,10,0.4l16.3,0.1
	c0.7-0.7,1-1.7,0.9-2.7c-1.1-1.4-0.1-4.1-1.6-5c-1.4-3.9-4.2-7.5-8.2-9c-3.4-2.7-8.7-2.7-13.2-2c-5.6,0.7-10,4.8-12.7,8.7
	c-1.1,2.3-3.2,4.1-3.2,6.6c-4.2,9.1-1.9,19.7,2.2,27.9c1.8,2.7,4.8,4.7,7.3,6.5c2-0.2,2.7,2.3,4.8,1.5c4.5,2,9.5,0.6,13.8-0.3
	c2.7-1.1,4.8-2.3,6.3-4.8c2.1-0.4,2.5-2.7,4.5-3C258.4,140.1,259.1,138.5,257.5,137.2z M231.7,106.2c2.6-2.5,6.4-3.5,9.8-2.4
	c1.5,0.6,2.8,1.8,3.6,3.2c0.2,1.1,0.7,2.3,0.2,3.6c-1.6,3-5.9,1.2-8.9,1.7h-6.6C228.7,110.1,230.3,108.1,231.7,106.2L231.7,106.2z"
	/>
<path class="st0" d="M143.7,139.1c-1.1,0.4-0.9-0.9-1.8-1.3c-2.3,0.7-5,1.8-7.5,1c1.1-2.3-1.1-4.1,0.4-6.2c-1.1-3.2,0-6.1,0.1-9.1
	c-1-5.2,1.3-10.4-0.4-15.7c0.9-2.8-2.3-3.2-1.9-6.1c-1.8-0.5-2.8-2.7-4.4-3.6c-2-0.4-3.7-1.6-5.7-2.3c-1.1-0.5-1.8,0.9-2.7-0.2
	c-3.9,0-9.3,0.1-12.2,3.2c-2.3,2.1-5.7,2.7-8.2,4.4c-0.9,2,0.9,3.4,1.6,4.8c1.1,1.1,3.2,0.4,4.5-0.3c0-0.6,0.4-1.1,1-1.1
	c0.1,0,0.3,0,0.4,0.1c1.6-1.8,4.3-0.7,6.1-1.9c3,0.7,7,0.2,8.6,2.9c3.6,2.3,2.1,6.8,2.8,10.6l-4.3,1c-3.8,1.2-7.7,2.3-11.5,3.5
	c-3.9,1.9-7.3,2.8-9.3,7.3c-0.7,0.7-0.2,2.3-1.3,2.5c-1.5,4.8,0.3,9.1,3,12.7c2.8,3.8,8.9,3.6,13.2,2.6c2,0.4,2.3-2.7,4.1-2.5
	c2-1.1,3.2-4.1,5.4-3.9c0.1,1.3,0.2,2.6,0.5,3.9c0.7,2.3,3,2.3,4.6,3.4c1.8,0.2,4.5,1.1,5.7-0.9c2.1-0.4,4.3-2.1,6.1-3.7
	c1.4,0.4,0.7-1.6,2-1.2C142.4,141.2,144.4,140.9,143.7,139.1z M123.3,136c-4.7,1.2-9.7,7.1-13.9,1.5c0.2-1.8-2.1-3.4-0.3-5.2
	c0-1.7,1.1-3.3,2.7-3.9c2.3-1.6,5.2-3.4,8.2-3.9c0.9-1.2,2.5-1.4,4.1-1.6C124.1,127.3,123.9,131.6,123.3,136L123.3,136z"/>
<path class="st0" d="M493.9,94.1c-0.4,3-0.4,5.9-1,9.1c-0.6,1.2-1.7,2.1-3,2.3c-2.1-0.7-4.6-1.8-6.6-1.3c-4.5,2.8-6.3,7.8-8.5,12.3
	c-0.4,2-0.2,5.2-0.9,7.5c-0.5,1.4,1.2,2.3,0,3.6c0.3,2.5-0.6,4.5,0.5,6.8c-1.4,1.8,0.7,4.1-0.9,5.7c0.7,1.1,0.3,2.7,0.3,4.1
	c1.6,2.9,7,0.4,6,4.9c-2,1.1-4.4,1.3-6.6,0.5c-5.4,0.5-10.7-0.1-16.4,0.4c-1.2-0.9-0.3-2.1,0-3.2c2.1-0.5,4.5-0.7,5.9-2.5
	c0.2-1.2,1.1-2.9,0.2-4.3c0.4-2.9,0-5.9,0-8.6c-0.1-6.4,1.1-13.2-0.6-19.5c-2-0.6-4.8,0.5-6.6-1.1c-0.3-1.6,0.3-3.2,1.6-4.1
	c2.7,0.7,3.4-2.1,5.9-2.5c2.9-1.8,5.6-4.4,8.4-6.4c0.2-1.4,1.6-1.1,2.3-1.8c1.8,0.9,0.2,4.1,0.7,5.9c-0.4,2-0.4,3.9,0,5.9
	c2.7-2,2.5-6.4,5.2-8.6c-0.4-1.1,0.7-1.6,1.1-2.5c1.6-0.3,2.9-1.9,4.5-2.5c1.3-0.5,2.5-1.6,4.3-1.6C491.3,91.7,493,93,493.9,94.1z"
	/>
<path class="st0" d="M65.5,81.4c2.2-3.6-1.6-8.2,0.6-12.3c0.9-2.4,3.7-3.6,6.1-2.7c0,0,0,0,0,0c1.2,2.2,2.3,4.7,1.4,7
	c0.9,5-2.6,9.1-5.4,12.8c-2,1.1-3.9,2.8-5.9,3.4l-1-1l4.2-6.6"/>
<path class="st0" d="M375.9,83.1c2.2-3.6-1.6-8.2,0.6-12.3c0.9-2.4,3.7-3.6,6.1-2.7c0,0,0,0,0,0c1.2,2.2,2.3,4.7,1.4,7
	c0.9,5-2.5,9.1-5.4,12.8c-2,1.1-4,2.8-5.9,3.4l-1-1l4.2-6.6"/>
<path class="st0" d="M130.1,91.1c1-0.6,0.8-1.8,0.8-2.8c-1.8-0.7-3.1-2.3-4.9-3.3c-0.3-0.9-1.8-0.8-2-1.8c-1-0.5-1.4-1.2-2.6-1.6
	c0-1.2-1.7-0.6-1.9-1.6c-0.2-0.2-0.5-0.3-0.7-0.4l-0.1-0.1l-0.3-0.2c-0.3-0.2-0.6-0.5-0.8-0.8l-0.4,0.2l-0.1-0.1
	c-0.2,0.1-0.3,0.2-0.4,0.3l-0.3,0.2l-0.3,0.6c-0.9,0.3-1.6,1.4-2.6,1.5c-0.1,0.9-1.2,0.1-1.1,1.2c-1.6,0.1-2,2.1-3.5,2.3
	c-0.3,0.7-1.3,0.8-1.7,1.3c-1.2,0.6-2.3,2-3.7,2.1c-0.5,0.7,0.2,1.2,0.1,2.1c0.3,0.3,0.6,0,0.9,0.3c0.3,1.1,1.6,1.2,2.5,1.6
	c1.2-1.6,3.1-2.4,4.4-3.8c0.9-0.1,1.2-1.6,2.3-1.4c0.8-0.8,1.5-1,2.2-2.1c0.8,0.2,1-0.7,1.4-1.1c0.6,0.3,1.1,0.8,1.5,1.4
	c0.9-0.1,0.4,1.1,1.4,0.7c0.5,1.5,2.5,1.3,3.2,2.7c0.8,0.1,1.2,1,1.7,1.3c0.9,1,2.6,1.6,3,3c0.8,0.3,1.1-0.5,2-0.7
	C130.3,91.6,129.9,91.5,130.1,91.1z"/>
<path class="st0" d="M44,48.6c-0.4,1.8,0.9,4.5-1.8,4.3c-3.8,0.2-8.4-0.8-11.6,1.4c0,2.2-0.9,3,0,5c-0.5,2.2-0.5,4.6,0,6.8
	c-2,2.1,0.7,4.7-0.8,6.8c1.4,1.6-1.3,4.1,0.5,5.9c-0.5,1.4,0.2,3-0.6,4.5c2,1.6-1.3,3.6,0.5,5c-1.4,1.2,1.1,2.7-0.2,3.9
	c-0.2,4.3-0.8,9.1,0.3,13.2c-2.1,0.9,0.9,2.2-0.7,3.2c-0.9,2,1.4,3.6,0,5c0,6.3-0.4,13.2,0.2,18.8c-0.2,2.3-1.6,4.8-0.4,7.3
	c-0.4,0.9,0,2.5,1.4,2.1c1.3-1.4,2.7,1.3,3.9-0.7c2,1.1,3.8,0,5.7,0c3.8,0.2,7,0.9,10.5,0.4c0.3,0.5,0.9,0.2,1.4,0.4
	c2.2-0.3,4.4-0.3,6.5,0.1c1.1-0.4,2.5,0.2,3.8-0.2c1.1-1.1,1.1-3,2.5-3.7c0.6-1.6-0.3-4.6,1.6-5.9c0-0.7-0.9-1.2,0-1.8
	c1.1,0.4,0.9-0.9,1.3-1.4c-0.3-1.1,0.5-1.4,0.9-2.1c2-0.9,3.8,0.6,5.3,1.3c0.7,4.6-1.5,8.9-1.7,13.8c-0.9,1.4,0.3,4.3-2,5.4
	c-2,0-4.3,0.7-6.1,0.1c-3.4-0.6-6.3,0.9-9.7-0.2c-1.6,0.9-3.8-0.7-5.4,0.3c-4.3-0.7-7.5-0.4-11.8-0.2l-0.7-0.4L0,146.3
	c0.7-1.2-0.2-2.3,0-3.4c1.6-0.9,3.8-0.9,5.7-1.4c1.2,0.9,3.6,0.4,4.7-0.5c1.2-0.2,3-0.2,3.4-1.6c0.4-4.6-0.1-9.3,0.1-14.1
	c-0.5-0.9,0.2-2.1,0.2-3c0-5-0.1-10.2-0.1-15c-0.4-0.4-0.9-0.9-0.4-1.2c1.6-2-1.2-3.8,0.4-5.9c-1.6-2.5,0.6-5-0.9-7.7
	c1.6-4.5-0.5-8.9,1.1-13.6c-0.4-2.3-1-5.4-0.1-7.9L14,63.5c0.9-3-0.1-6.1,0.2-9.3c-2.1-1.5-5.1-1.5-7.4-2.2
	c-2.3-1.1-3.8,1.2-5.9-0.6c0.4-1.8,0.6-4.8,3.4-3.9c9.6,1,18.6,0.5,28.8-0.2C36.8,47.7,40.8,47.2,44,48.6z"/>
<path class="st1" d="M59.3,14.4C58,16.1,56,17,54,17c-3.9,0-7.1-3.2-7.1-7.1C46.9,6,50,2.8,54,2.8c2.1,0,4,0.9,5.3,2.5l-1.6,1.3
	c-1.9-2-5-2.1-7-0.2s-2.1,5-0.2,7c0.9,1,2.2,1.5,3.5,1.5c1.5,0,2.8-0.7,3.7-1.8L59.3,14.4z"/>
<path class="st1" d="M67,16.8v-6.3L61.8,3h2.5l3.8,5.5L71.9,3h2.5l-5.3,7.5v6.3L67,16.8z"/>
<path class="st1" d="M87.8,16.8h-2.6l-3.4-5.1h-1.5v5.1h-2.1V3h5.4c3,0,4.2,2.2,4.2,4.4c0,2-1,4-3.6,4.3L87.8,16.8z M80.3,5v4.8h3.1
	c1.3-0.1,2.3-1.3,2.1-2.7c-0.1-1.1-1-2-2.1-2.1H80.3z"/>
<path class="st1" d="M92.6,3h2.1v13.8h-2.1V3z"/>
<path class="st1" d="M100.4,3h2.1v11.8h5.5v1.9h-7.6V3z"/>
<path class="st1" d="M118.9,3h5.5c3,0,4.2,2.2,4.2,4.4s-1.2,4.3-4.2,4.3H121v5.1h-2.1V3z M121,5v4.8h3.3c1.3-0.1,2.3-1.3,2.1-2.7
	c-0.1-1.1-1-2-2.1-2.1H121z"/>
<path class="st1" d="M133,3h8.3v2h-6.2v4.1h5.4V11h-5.4v3.9h6.4v1.9H133V3z"/>
<path class="st1" d="M146.3,16.8V3h5.4c3.9,0,6.2,3,6.2,6.9s-2.3,6.9-6.2,6.9L146.3,16.8z M148.5,14.8h3.2c2.7,0,4.1-2.2,4.1-4.9
	s-1.4-4.9-4.1-4.9h-3.2V14.8z"/>
<path class="st1" d="M172.4,16.8h-2.6l-3.4-5.1h-1.5v5.1h-2.1V3h5.4c3,0,4.2,2.2,4.2,4.4c0,2-1,4-3.6,4.3L172.4,16.8z M164.9,5v4.8
	h3.1c1.3-0.1,2.3-1.3,2.1-2.7c-0.1-1.1-1-2-2.1-2.1H164.9z"/>
<path class="st1" d="M183.3,2.8c3.9,0,7.1,3.1,7.1,7s-3.1,7.1-7,7.1c-3.9,0-7.1-3.1-7.1-7c0,0,0,0,0-0.1
	C176.2,6,179.3,2.9,183.3,2.8C183.2,2.8,183.2,2.8,183.3,2.8z M183.3,14.9c2.8,0.1,5.1-2.1,5.2-4.8s-2.1-5.1-4.8-5.2
	c-2.8-0.1-5.1,2.1-5.2,4.8c0,0.1,0,0.1,0,0.2C178.3,12.6,180.5,14.8,183.3,14.9C183.2,14.9,183.2,14.9,183.3,14.9L183.3,14.9z"/>
<path class="st1" d="M196.3,12.8c0.2,1.4,1.4,2.4,2.7,2.3c1.2,0.2,2.4-0.7,2.6-1.9c0.1-1.3-0.9-1.9-2.2-2.2l-1.7-0.4
	c-3-0.8-3.4-2.5-3.4-3.7c0-2.4,2.1-3.9,4.5-3.9s4.5,1.6,4.5,4.1h-2.1c-0.2-1.3-1.4-2.3-2.7-2.1c-1,0.1-1.8,0.9-2,1.9
	c0,0.5,0.2,1.4,1.8,1.8L200,9c2.8,0.7,3.9,2.3,3.7,4.3c-0.2,2.2-2.1,3.7-4.7,3.7c-2.9,0-4.9-2-4.9-4.2H196.3z"/>
<path class="st1" d="M215.8,13.3h-5.6l-1.3,3.4h-2.3L211.9,3h2.3l5.2,13.8h-2.2L215.8,13.3z M211,11.4h4.1l-2.1-5.8L211,11.4z"/>
<path class="st1" d="M229.1,12.7c0-1.5,0.8-2.9,2.1-3.6c-0.8-0.7-1.2-1.6-1.2-2.6c0.1-2,1.7-3.6,3.7-3.5c1.4,0,2.7,0.7,3.5,1.9
	l-1.7,1c-0.3-0.6-1-1-1.7-1c-0.9-0.1-1.7,0.6-1.7,1.5c0,0,0,0.1,0,0.1c0,1,0.7,1.8,1.7,1.9h2.6V6.6h1.9v1.7h1.7V10h-1.7v2.6
	c0,1.5,0.3,2.5,2,2.5v1.9c-1.7,0-2.8-0.5-3.3-1.5c-0.8,1-2.1,1.6-3.4,1.5c-2.4,0.1-4.4-1.7-4.5-4.1
	C229.1,12.8,229.1,12.7,229.1,12.7z M231.1,12.6c0,1.3,1.1,2.4,2.5,2.4c0,0,0.1,0,0.1,0c1.8,0,2.7-1.3,2.7-3.2v-1.7h-2.7
	C232.3,10,231.2,11.1,231.1,12.6C231.1,12.6,231.1,12.6,231.1,12.6z"/>
<path class="st1" d="M261.8,16.8h-2.6l-3.4-5.1h-1.5v5.1h-2.1V3h5.4c3,0,4.2,2.2,4.2,4.4c0,2-1,4-3.6,4.3L261.8,16.8z M254.3,5v4.8
	h3.1c1.3-0.1,2.3-1.3,2.1-2.7c-0.1-1.1-1-2-2.1-2.1H254.3z"/>
<path class="st1" d="M272.7,2.8c3.9,0,7.1,3.1,7.1,7s-3.1,7.1-7,7.1c-3.9,0-7.1-3.1-7.1-7c0,0,0,0,0-0.1
	C265.7,6,268.8,2.9,272.7,2.8C272.7,2.8,272.7,2.8,272.7,2.8z M272.7,14.9c2.8,0.1,5.1-2.1,5.2-4.8S275.8,5,273,4.9
	c-2.8-0.1-5.1,2.1-5.2,4.8c0,0.1,0,0.1,0,0.2C267.8,12.6,269.9,14.8,272.7,14.9C272.7,14.9,272.7,14.9,272.7,14.9L272.7,14.9z"/>
<path class="st1" d="M289.7,9.4l4.8,7.4H292l-3.5-5.6l-3.5,5.6h-2.5l4.8-7.4L282.9,3h2.6l3,4.7l3-4.7h2.5L289.7,9.4z"/>
<path class="st1" d="M306,13.3h-5.6l-1.3,3.4h-2.3L302,3h2.3l5.2,13.8h-2.2L306,13.3z M301.2,11.4h4.1l-2.1-5.8L301.2,11.4z"/>
<path class="st1" d="M323.5,16.8h-2l-5.9-9.9v9.9h-2.1V3h2l5.9,9.8V3h2.1L323.5,16.8z"/>
<path class="st1" d="M339.1,16.8h-2l-5.9-9.9v9.9H329V3h2l5.9,9.8V3h2.1L339.1,16.8z"/>
<path class="st1" d="M344.7,3h8.3v2h-6.2v4.1h5.4V11h-5.4v3.9h6.4v1.9h-8.5V3z"/>
<path class="st1" d="M377.2,3h1.9l1.7,13.8h-2.1l-1.2-9.8l-4,8.3h-1.8l-4.1-8.3l-1.2,9.8h-2.1L366,3h1.9l4.7,9.8L377.2,3z"/>
<path class="st1" d="M391.7,2.8c3.9,0,7.1,3.1,7.1,7s-3.1,7.1-7,7.1c-3.9,0-7.1-3.1-7.1-7c0,0,0,0,0-0.1
	C384.7,6,387.8,2.9,391.7,2.8C391.7,2.8,391.7,2.8,391.7,2.8z M391.7,14.9c2.8,0.1,5.1-2.1,5.2-4.8s-2.1-5.1-4.8-5.2
	c-2.8-0.1-5.1,2.1-5.2,4.8c0,0.1,0,0.1,0,0.2C386.8,12.6,389,14.8,391.7,14.9C391.7,14.9,391.7,14.9,391.7,14.9L391.7,14.9z"/>
<path class="st1" d="M413.1,16.8h-2.6l-3.4-5.1h-1.5v5.1h-2.1V3h5.4c3,0,4.2,2.2,4.2,4.4c0,2-1,4-3.6,4.3L413.1,16.8z M405.6,5v4.8
	h3.1c1.3-0.1,2.3-1.3,2.1-2.7c-0.1-1.1-1-2-2.1-2.1H405.6z"/>
<path class="st1" d="M417.9,3h8.3v2H420v4.1h5.4V11H420v3.9h6.4v1.9h-8.5L417.9,3z"/>
<path class="st1" d="M431.3,3h2.1v13.8h-2.1V3z"/>
<path class="st1" d="M439,3h2.1v11.8h5.5v1.9H439V3z"/>
<path class="st0" d="M2.1,170.4l2.6,9.2l2.7-9.2h2l-3.8,12.4H3.9l-3.8-12.4H2.1z"/>
<path class="st0" d="M18.5,170.3c3.5-0.1,6.4,2.8,6.5,6.3c0.1,3.5-2.8,6.4-6.3,6.5c-3.5,0.1-6.4-2.8-6.5-6.3c0,0,0-0.1,0-0.1
	C12.2,173.2,15,170.3,18.5,170.3C18.5,170.3,18.5,170.3,18.5,170.3z M18.5,181.1c2.5,0.1,4.5-1.9,4.6-4.4c0.1-2.5-1.9-4.5-4.4-4.6
	c-2.5-0.1-4.5,1.9-4.6,4.4c0,0,0,0.1,0,0.1C14.1,179.1,16,181.1,18.5,181.1C18.5,181.1,18.5,181.1,18.5,181.1z"/>
<path class="st0" d="M29,170.4H31v10.7h5v1.8h-6.9L29,170.4z"/>
<path class="st0" d="M46.8,178.5v-8.1h1.9v8.1c0,2.5-2.1,4.6-4.6,4.6s-4.6-2.1-4.6-4.6v-8.1h1.9v8.1c0,1.5,1.2,2.7,2.7,2.7
	C45.6,181.2,46.8,180,46.8,178.5L46.8,178.5z"/>
<path class="st0" d="M64.5,170.4h1.7l1.5,12.4h-1.9l-1.1-8.9l-3.6,7.5h-1.6l-3.7-7.5l-1.1,8.9h-1.9l1.5-12.4h1.7l4.2,8.8L64.5,170.4
	z"/>
<path class="st0" d="M72.1,170.4h7.5v1.8H74v3.7h4.9v1.8H74v3.5h5.7v1.8h-7.6V170.4z"/>
<path class="st0" d="M90.5,170.4h1.9v12.4h-1.9V170.4z"/>
</svg>
