<?xml version="1.0" encoding="utf-8"?>
<!-- Generator: Adobe Illustrator 22.0.1, SVG Export Plug-In . SVG Version: 6.00 Build 0)  -->
<svg version="1.1" id="Calque_1" xmlns="http://www.w3.org/2000/svg" xmlns:xlink="http://www.w3.org/1999/xlink" x="0px" y="0px"
	 viewBox="0 0 493.9 175.2" style="enable-background:new 0 0 493.9 175.2;" xml:space="preserve">
<style type="text/css">
	.st0{fill:#111111;}
	.st1{fill:#63BCBA;}
</style>
<title>logo</title>
<g id="Calque_2_1_">
	<g id="Calque_1-2">
		<path class="st0" d="M443.4,99.1H443c-0.3-3-3.2-5-4.8-7.5c-0.4-0.4-1.6-0.6-1.2-1.4c-2.3-1.3-3.9-2.7-6.4-3.4
			c-5-3.1-12.7-2-18.2-1c-4.5,0.9-7.9,2.1-11.1,5.3c-0.5,0.4-1.8-0.2-1.2,1.1c-1.9,1.2-3.6,2.8-5,4.6c-0.5,0.7,0.2,2.5-1.3,2.1
			c-0.7,1.1,0.3,2.9-1.3,3.2c0.2,2.3-2.3,3.9-1.6,6.2c0.4,1.8-0.7,3.6,0,5c-0.7,5.4,2.5,8.8,3.9,13.4c0.4,0.2,1.8,0.6,1.2,1.6
			c1.1,2,2.7,2.2,4.1,3.8c2.3,1.3,4.5,2.9,7.5,3.4v0.4c1.8,0.4,4.3-0.1,5.7,1.3c5-0.1,9.5,0.6,13.6-2.1c2.1-0.5,3.9-2.5,6.3-2.8
			c3.8-3,7.4-6.9,9-11c2.9-3.7,2.5-8.4,3.1-12.5C445,105.5,444.4,102.3,443.4,99.1z M429.1,127.1c-2.3,3-6.1,4.6-9.9,4.1
			c-3.2-0.6-6.8-0.9-8.7-3.8c-3,0.9-0.7-2.7-2.9-2.9c-0.4-2-1.8-3.6-2.8-5.4c0.7-2.7-1.9-3.9-1.2-6.4c-0.9-3.6,0.2-7.2,0.8-10.9
			c-0.5-0.5,0-1.8,0.2-2.7c0.4-1.4,1-2.7,1.8-3.9c0.5,0.2,0.9-0.3,1.2-0.7c-0.2-2,2.1-1.4,3.1-2.8c1.6,0.4,2.9-2.1,4.3-1.2
			c1.4,0.9,3.6-1.6,4.8,0.7c4.6,0.6,7.8,4.9,9.6,8.6c1.8,0.5,0.9,2.9,1.9,4.1c2.1,4.5,1.6,9.3,1.7,15
			C431.1,121.4,431.6,125,429.1,127.1z"/>
		<path class="st0" d="M360.6,129.6c-1.2-2-3.6-1.1-5.5-1.5c-1.2-0.5-2-1.6-2.1-2.9c1.5-4.8-0.8-9.8,0.6-14.7
			c-0.9-3.9,0.6-7.9-0.3-12.2h0.4c0-2-1-4.1,0-5.9c-0.7-4.7,0.4-7.9-0.6-12.7c0.7-2.8,0.4-6.1,0.4-8.8c0.4-0.5,0.5-1.1-0.2-1.4
			c1.1-11.4-0.2-22.5,0.7-34.5c-0.3-0.8-1.2-1.2-2-0.9c0,0,0,0,0,0c-4.5,2.5-8.3,5.5-13.6,6.4c-1,0.5-1.8,1.1-2.5,2
			c-0.9,0.7-0.2,2,0.2,2.7c0.9,0.5,2.5,1.1,3.4,0.2c1.4,0.9,3.7,1.3,3.7,3.1c-1,12.5-1.2,25-0.6,37.5c-0.4,0.4-1.4,0.3-1.4-0.4
			c-4.8-1.1-10.4-1.8-15.2-1c-2.1-0.2-2.9,1.2-4.8,1.2c-2.7,1.6-5.4,2.1-7.2,4.8c-1.4-0.4-1.3,1.4-2.2,2.1c-1.6,0.7-2.2,3.4-3.8,4.3
			l-0.2,1.4c-2.2,1.8-1.1,4.6-2.5,6.6c-0.4,4.5-0.8,9.7,0.3,13.9c0.1,5.9,4,10,7.4,13.8c1.6-0.5,0.4,1.8,2,1.3
			c1.1,1.6,3.2,1.1,4.3,2.4c3.2-0.3,6.2,2.2,9.5,0.4c2.3,0.2,2.9-1.4,5.4-1.4c0.9-1.6,3-1.1,3.2-2.8c1.6-1.6,2.7-3.7,4.7-4.8
			c1.4,3-0.9,6.1,0.3,9.1c1.6,0.9,2.5-0.7,4.1,0.2v0.2c2.5-2.3,5.9-3.5,9.3-3.2c1.6-1.1,3.4,0.4,4.7-1.2
			C361.5,132.3,361.2,130.3,360.6,129.6z M341.4,121.4c-1.6,2.7-5.4,3.7-7.9,5c-4.1,0.9-8-0.6-11.1-2.4c-4.1-4.7-5.1-10.8-5.3-16.7
			c0.6-4.1,0.2-9.1,2.8-13c0.9-1.6,2.5-2,3.2-3.6c2.7-0.5,5-1.9,8-1.4c0,0.5-0.4,1.1,0.2,1.4c0.9-2.8,2.5,0.7,4.3,0
			c2.1,1.8,5.7,3.4,6.4,6.5c0.1,5-0.1,9.8,0.5,14.5C340.7,115.2,344.1,118.6,341.4,121.4z"/>
		<path class="st0" d="M209.9,83.5c-1.8-3-6.2-0.9-8.2,0.5c-1.1,0.7-2.3,1.3-3.6,1.6c-0.2,0.3-0.2,1.2-1.1,1.1
			c0,1.8-2.3,0.7-2.7,2.5c-2.5,1.4-3.7-1.6-5.9-1.5c-6.6-2.9-14.3-2.2-20.7,0.8c-1.8,0.7-2.7,2.3-4.3,3.2c-3.1,1.9-3.1,5.9-4.7,8.9
			h-0.4c0,4.8,0.3,10,3.9,13.1c0.6,1,0.5,2.4-0.4,3.2c-3,2.1-6.8,5.3-7.4,9.2c-1.1,2.7,0.9,5.4,3,7.4c2.5,0.9,4.4,2.9,7.5,2.9
			c0.7,1.8,2.9,0.7,3.7,2.2c2.3,0.9,4.5,1.5,6.4,3.1c5.4,0.7,9.3,4,13.4,6.7c0.5,2.5,2.8,3.4,2.3,6.1c-0.7,3.2-2.7,7.1-6.5,7.8
			c-3.2,1.1-5.5,0-8.6,0.5v-0.2l-3-0.4c-4.3-1.1-8-3.8-10.3-7.6c-1-3.8-2.1-8.2-0.1-12.1c-1.4-3.2-3.4,0.3-5.9-0.2
			c-0.9,2.1-4.3,2.1-4.1,4.4c-1.8,1.8-2.2,5.5-1.3,8.4c0.5,4.3,4.1,6.3,6.9,9c0.7,0.7,2.3,0.2,2.9,1.3c4.3,1.1,8,2.2,12.7,2
			c3.8,1.1,7.5,0,12-0.1c0.9-1.2,2.1-0.9,3.4-1.2c2.5-0.4,4.3-1.8,6.4-2.6c1.1-1.6,3-1.9,3.6-3.6c3.2-3.1,4.6-7.7,3.6-12.1
			c-0.9-3.7-3.1-6.9-6.2-9c-1.6-2.7-5.4-2.4-7.5-4.5c-2.3-0.6-5-1.1-6.4-2.7c-1.8,0.7-2.7-1.4-4.3-1.1c-1.1-1.1-2.9-1.1-4.1-2
			c-2.9-1.6-5.7-2.2-8.2-4.3c0.2-0.9-1.6-1.4-0.3-2.1c-0.5-1.6,0.9-2.3,1.4-3.4l0.5,0.4c0.4,0,0.4,1.2,0.9,0.7
			c0.9-1.4,1.2,0.7,2.5,0.2c2,1.6,5.5,2,7.9,1.6c5.7,0,12.2-0.6,15.9-4.7c0.7-1.4,1.8-2.5,3.2-3.2c0.5-0.9,0-2.1,1.1-2.7
			c2.2-5.2,2.2-12.5-2.2-16.6c2-4.8,6.8-1.6,10.6-3.2c2-0.2,2.3-2.3,3.6-3.2C210.6,86.5,211.5,84.4,209.9,83.5z M183.8,116.6
			c-2.9,1.1-6.2,0.7-8.8-1.1c0.2-1.8-2-0.2-1.4-2c-1.2-0.7-2-2.2-2.7-3.4l-0.2-2c-0.7-0.4-0.5-1.6-0.9-2.3c0.4-3.4-0.7-6.8,0.9-9.5
			c0.2-2,1.4-2.5,2.2-4.3c1.4-0.3,3.4-1.8,4.5-0.9c0.4-0.9,1.4-0.9,2.3-0.9c1.1,1.1,2.3,1.3,3.6,1.8c0.2,1.8,2.5,1.3,2.5,3.2
			c1.1-0.2,0.5,1.4,1.2,1.8c1.2,1.4,0.1,4.1,1.8,5.4C189.2,107.7,188.9,113.9,183.8,116.6L183.8,116.6z"/>
		<path class="st0" d="M257.5,124.3c-2.7-0.6-4.3,0.9-6.4,1.2c-3.8,2.8-9.8,1-13.4,0.6c0.4-1.4-1.2-0.4-1.6-0.9
			c-2.9-1.5-5.1-4.2-6-7.4c-1.3-3.1-1.9-6.4-1.9-9.8c1.4-1.2-0.7-3.4,0.9-4.3c0.5-0.5,1.2-0.2,1.8,0.2c3.2,0,6.8-0.5,10,0.4
			l16.3,0.1c0.7-0.7,1-1.7,0.9-2.7c-1.1-1.4-0.1-4.1-1.6-5c-1.4-3.9-4.2-7.5-8.2-9c-3.4-2.7-8.7-2.7-13.2-2
			c-5.6,0.7-10,4.8-12.7,8.7c-1.1,2.3-3.2,4.1-3.2,6.6c-4.2,9.1-1.9,19.7,2.2,27.9c1.8,2.7,4.8,4.7,7.3,6.5c2-0.2,2.7,2.3,4.8,1.5
			c4.5,2,9.5,0.6,13.8-0.3c2.7-1.1,4.8-2.3,6.3-4.8c2.1-0.4,2.5-2.7,4.5-3C258.4,127.2,259.1,125.6,257.5,124.3z M231.7,93.3
			c2.6-2.5,6.3-3.5,9.8-2.4c1.5,0.6,2.8,1.8,3.6,3.2c0.2,1.1,0.7,2.3,0.2,3.6c-1.6,3-5.9,1.2-8.9,1.7h-6.6
			C228.7,97.2,230.3,95.2,231.7,93.3z"/>
		<path class="st0" d="M143.7,126.2c-1.1,0.4-0.9-0.9-1.8-1.3c-2.3,0.7-5,1.8-7.5,1c1.1-2.3-1.1-4.1,0.4-6.2c-1.1-3.2,0-6.1,0.1-9.1
			c-1-5.2,1.3-10.4-0.4-15.7c0.9-2.8-2.3-3.2-1.9-6.1c-1.8-0.5-2.8-2.7-4.4-3.6c-2-0.4-3.7-1.6-5.7-2.3c-1.1-0.5-1.8,0.9-2.7-0.2
			c-3.9,0-9.3,0.1-12.2,3.2c-2.3,2.1-5.7,2.7-8.2,4.4c-0.9,2,0.9,3.4,1.6,4.8c1.1,1.1,3.2,0.4,4.5-0.3c-0.1-0.5,0.3-1,0.9-1.1
			c0,0,0.1,0,0.1,0c0.1,0,0.3,0,0.4,0.1c1.6-1.8,4.3-0.7,6.1-1.9c3,0.7,7,0.2,8.6,2.9c3.6,2.3,2.1,6.8,2.8,10.6l-4.3,1
			c-3.8,1.2-7.7,2.3-11.5,3.5c-3.9,1.9-7.3,2.8-9.3,7.3c-0.7,0.7-0.2,2.3-1.3,2.5c-1.5,4.8,0.3,9.1,3,12.7c2.8,3.8,8.9,3.6,13.2,2.6
			c2,0.4,2.3-2.7,4.1-2.5c2-1.1,3.2-4.1,5.4-3.9c0.1,1.3,0.2,2.6,0.5,3.9c0.7,2.3,3,2.3,4.6,3.4c1.8,0.2,4.5,1.1,5.7-0.9
			c2.1-0.4,4.3-2.1,6.1-3.7c1.4,0.4,0.7-1.6,2-1.2C142.4,128.3,144.4,128,143.7,126.2z M123.3,123.1c-4.7,1.2-9.7,7.1-13.9,1.5
			c0.2-1.8-2.1-3.4-0.3-5.2c0-1.7,1.1-3.3,2.7-3.9c2.3-1.6,5.2-3.4,8.2-3.9c0.9-1.2,2.5-1.4,4.1-1.6
			C124.2,114.4,123.9,118.8,123.3,123.1L123.3,123.1z"/>
		<path class="st0" d="M493.9,81.2c-0.4,3-0.4,5.9-1,9.1c-0.6,1.2-1.7,2.1-3,2.3c-2.1-0.7-4.6-1.8-6.6-1.3
			c-4.5,2.8-6.3,7.8-8.5,12.3c-0.4,2-0.2,5.2-0.9,7.5c-0.5,1.4,1.2,2.3,0,3.6c0.3,2.5-0.6,4.5,0.5,6.8c-1.4,1.8,0.7,4.1-0.9,5.7
			c0.7,1.1,0.3,2.7,0.3,4.1c1.6,2.9,7,0.4,6,4.9c-2,1.1-4.4,1.3-6.6,0.5c-5.4,0.5-10.7-0.1-16.4,0.4c-1.2-0.9-0.3-2.1,0-3.2
			c2.1-0.5,4.5-0.7,5.9-2.5c0.2-1.2,1.1-2.9,0.2-4.3c0.4-2.9,0-5.9,0-8.6c-0.1-6.4,1.1-13.2-0.6-19.5c-2-0.6-4.8,0.5-6.6-1.1
			c-0.3-1.6,0.3-3.2,1.6-4.1c2.7,0.7,3.4-2.1,5.9-2.5c2.9-1.8,5.6-4.4,8.4-6.4c0.2-1.4,1.6-1.1,2.3-1.8c1.8,0.9,0.2,4.1,0.7,5.9
			c-0.4,1.9-0.4,4,0,5.9c2.7-2,2.5-6.4,5.2-8.6c-0.4-1.1,0.7-1.6,1.1-2.5c1.6-0.3,2.9-1.9,4.5-2.5c1.3-0.5,2.5-1.6,4.3-1.6
			C491.3,78.8,493,80.1,493.9,81.2z"/>
		<path class="st0" d="M65.5,68.5c2.2-3.6-1.6-8.2,0.6-12.3c1-2.4,3.7-3.6,6.1-2.7l0,0c1.2,2.2,2.3,4.7,1.4,7
			c0.9,5-2.6,9.1-5.4,12.8c-2,1.1-3.9,2.8-5.9,3.4l-1-1l4.2-6.6"/>
		<path class="st0" d="M375.9,70.2c2.2-3.6-1.6-8.2,0.6-12.3c1-2.4,3.7-3.6,6.1-2.7l0,0c1.2,2.2,2.3,4.7,1.4,7
			c0.9,5-2.5,9.1-5.4,12.8c-2,1.1-4,2.8-5.9,3.4l-1-1l4.2-6.6"/>
		<path class="st0" d="M130.1,78.2c1-0.6,0.8-1.8,0.8-2.8c-1.8-0.7-3.1-2.3-4.9-3.3c-0.3-0.9-1.8-0.8-2-1.8c-1-0.5-1.4-1.2-2.6-1.6
			c0-1.2-1.7-0.6-1.9-1.6c-0.2-0.2-0.4-0.3-0.7-0.4l-0.1-0.1l-0.3-0.2c-0.3-0.2-0.6-0.5-0.8-0.8l-0.4,0.2l-0.1-0.1
			c-0.2,0.1-0.3,0.2-0.4,0.3l-0.3,0.2l-0.3,0.6c-0.9,0.3-1.6,1.4-2.6,1.5c-0.1,0.9-1.2,0.1-1.1,1.2c-1.6,0.1-2,2.1-3.5,2.3
			c-0.3,0.7-1.3,0.8-1.7,1.3c-1.2,0.6-2.3,2-3.7,2.1c-0.5,0.7,0.2,1.2,0.1,2.1c0.3,0.3,0.6,0,0.9,0.3c0.3,1.1,1.6,1.2,2.5,1.6
			c1.2-1.6,3.1-2.4,4.4-3.8c0.9-0.1,1.2-1.6,2.3-1.4c0.8-0.8,1.5-1,2.2-2.1c0.8,0.2,1-0.7,1.4-1.1c0.6,0.3,1.1,0.8,1.5,1.4
			c0.9-0.1,0.4,1.1,1.4,0.7c0.5,1.5,2.5,1.3,3.2,2.7c0.8,0.1,1.2,1,1.7,1.3c0.9,1,2.6,1.6,3,3c0.8,0.3,1.1-0.5,2-0.7
			C130.3,78.7,129.9,78.6,130.1,78.2z"/>
		<path class="st0" d="M44,35.7c-0.4,1.8,0.9,4.5-1.8,4.3c-3.8,0.2-8.4-0.8-11.6,1.4c0,2.2-0.9,3,0,5c-0.5,2.2-0.5,4.6,0,6.8
			c-2,2.1,0.7,4.7-0.8,6.8c1.4,1.6-1.3,4.1,0.5,5.9c-0.5,1.4,0.2,3-0.6,4.5c2,1.6-1.3,3.6,0.5,5c-1.4,1.2,1.1,2.7-0.2,3.9
			c-0.2,4.3-0.8,9.1,0.3,13.2c-2.1,0.9,0.9,2.2-0.7,3.2c-0.9,2,1.4,3.6,0,5c0,6.3-0.4,13.2,0.2,18.8c-0.2,2.3-1.6,4.8-0.4,7.3
			c-0.4,0.9,0,2.5,1.4,2.1c1.3-1.4,2.7,1.3,3.9-0.7c2,1.1,3.8,0,5.7,0c3.8,0.2,7,0.9,10.5,0.4c0.3,0.5,0.9,0.2,1.4,0.4
			c2.2-0.3,4.4-0.3,6.5,0.1c1.1-0.4,2.5,0.2,3.8-0.2c1.1-1.1,1.1-3,2.5-3.7c0.6-1.6-0.3-4.6,1.6-5.9c0-0.7-0.9-1.2,0-1.8
			c1.1,0.4,0.9-0.9,1.3-1.4c-0.3-1.1,0.5-1.4,0.9-2.1c2-0.9,3.8,0.6,5.3,1.3c0.7,4.6-1.5,8.9-1.7,13.8c-0.9,1.4,0.3,4.3-2,5.4
			c-2,0-4.3,0.7-6.1,0.1c-3.4-0.6-6.3,0.9-9.7-0.2c-1.6,0.9-3.8-0.7-5.4,0.3c-4.3-0.7-7.5-0.4-11.8-0.2l-0.7-0.4L0,133.4
			c0.7-1.2-0.2-2.3,0-3.4c1.6-0.9,3.8-0.9,5.7-1.4c1.2,0.9,3.6,0.4,4.7-0.5c1.2-0.2,3-0.2,3.4-1.6c0.4-4.6-0.1-9.3,0.1-14.1
			c-0.5-0.9,0.2-2.1,0.2-3c0-5-0.1-10.2-0.1-15c-0.4-0.4-0.9-0.9-0.4-1.2c1.6-2-1.2-3.8,0.4-5.9c-1.6-2.5,0.6-5-0.9-7.7
			c1.6-4.5-0.5-8.9,1.1-13.6c-0.4-2.3-1-5.4-0.1-7.9L14,50.6c0.9-3-0.1-6.1,0.2-9.3c-2.1-1.5-5.1-1.5-7.4-2.2
			C4.5,38,3,40.3,0.9,38.5c0.4-1.8,0.6-4.8,3.4-3.9c9.6,1,18.6,0.5,28.8-0.2C36.8,34.8,40.8,34.3,44,35.7z"/>
		<path class="st0" d="M2.1,157.5l2.6,9.2l2.7-9.2h2l-3.8,12.4H3.9l-3.8-12.4H2.1z"/>
		<path class="st0" d="M18.5,157.4c3.5-0.1,6.4,2.8,6.5,6.3s-2.8,6.4-6.3,6.5c-3.5,0.1-6.4-2.8-6.5-6.3v-0.1
			C12.2,160.3,15,157.4,18.5,157.4L18.5,157.4z M18.5,168.2c2.5,0.1,4.5-1.9,4.6-4.4c0.1-2.5-1.9-4.5-4.4-4.6
			c-2.5-0.1-4.5,1.9-4.6,4.4v0.1c-0.1,2.4,1.9,4.4,4.3,4.5C18.5,168.2,18.5,168.2,18.5,168.2z"/>
		<path class="st0" d="M29,157.5h2v10.7h5v1.8h-6.9L29,157.5z"/>
		<path class="st0" d="M46.8,165.6v-8.1h1.9v8.1c0,2.5-2.1,4.6-4.6,4.6c-2.5,0-4.6-2.1-4.6-4.6l0,0v-8.1h1.9v8.1
			c0,1.5,1.2,2.7,2.7,2.7S46.8,167.1,46.8,165.6z"/>
		<path class="st0" d="M64.5,157.5h1.7l1.5,12.4h-1.9l-1.1-8.9l-3.6,7.5h-1.6l-3.7-7.5l-1.1,8.9h-1.9l1.5-12.4H56l4.2,8.8
			L64.5,157.5z"/>
		<path class="st0" d="M72.1,157.5h7.5v1.8H74v3.7h4.9v1.8H74v3.5h5.7v1.8h-7.6L72.1,157.5z"/>
		<path class="st0" d="M90.5,157.5h1.9v12.4h-1.9V157.5z"/>
	</g>
</g>
<g id="Calque_2_2_">
	<g id="Calque_1-2_1_">
		<path class="st1" d="M201.1,11.1h-5l-1.2,3.1h-2l4.6-12.4h2.1l4.7,12.4h-2L201.1,11.1z M196.7,9.4h3.7l-1.9-5.2L196.7,9.4z"/>
		<path class="st1" d="M210.7,1.8h1.9v12.4h-1.9V1.8z"/>
		<path class="st1" d="M229.2,14.2h-2.3l-3.1-4.6h-1.4v4.6h-1.9V1.8h4.8c2-0.1,3.7,1.5,3.8,3.5c0,0.2,0,0.3,0,0.5
			c0.2,1.9-1.3,3.7-3.2,3.8c0,0,0,0,0,0l0,0L229.2,14.2z M222.4,3.6v4.3h2.8c1.1,0,1.9-0.9,1.9-1.9c0,0,0,0,0,0c0-0.1,0-0.1,0-0.2
			c0.1-1.1-0.6-2-1.7-2.2c0,0,0,0,0,0L222.4,3.6L222.4,3.6z"/>
		<path class="st1" d="M236.4,1.8h7.5v1.8h-5.6v3.7h4.8V9h-4.9v3.5h5.7v1.8h-7.7L236.4,1.8z"/>
		<path class="st1" d="M260.5,1.8h1.9v10.7h5v1.8h-6.9V1.8z"/>
		<path class="st1" d="M274.2,1.8h1.9v12.4h-1.9L274.2,1.8z"/>
		<path class="st1" d="M290.6,7.6c1.4,0.4,2.3,1.6,2.3,3c0,2-1.5,3.6-3.5,3.6H284V1.8h4.8c1.7-0.2,3.3,1.1,3.4,2.8c0,0,0,0,0,0
			c0,0.2,0,0.3,0,0.5C292.2,6.2,291.6,7.2,290.6,7.6z M288.7,6.9c0.9,0,1.6-0.7,1.5-1.6c0,0,0,0,0,0c0,0,0-0.1,0-0.2
			c0.1-0.8-0.5-1.5-1.4-1.6c-0.1,0-0.2,0-0.3,0h-2.7v3.4L288.7,6.9z M285.9,8.6v3.9h3.1c1,0,1.8-0.8,1.8-1.8c0,0,0,0,0,0v-0.1
			c0-1.1-0.8-1.9-1.9-2L285.9,8.6z"/>
		<path class="st1" d="M308.7,14.2h-2.3l-3.1-4.6h-1.3v4.6H300V1.8h4.9c2-0.1,3.7,1.5,3.8,3.5c0,0.2,0,0.3,0,0.5
			c0.2,1.9-1.3,3.7-3.2,3.8l0,0L308.7,14.2z M301.9,3.6v4.3h2.8c1.1,0,2-0.8,2-1.9c0,0,0,0,0-0.1c0-0.1,0-0.2,0-0.2
			c0.1-1.1-0.6-2-1.7-2.2c0,0,0,0,0,0L301.9,3.6L301.9,3.6z"/>
		<path class="st1" d="M315.9,1.8h7.5v1.8h-5.6v3.7h4.9V9h-4.9v3.5h5.7v1.8h-7.7V1.8z"/>
	</g>
</g>
</svg>
