<?xml version="1.0" standalone="no"?>
<!DOCTYPE svg PUBLIC "-//W3C//DTD SVG 20010904//EN"
 "http://www.w3.org/TR/2001/REC-SVG-20010904/DTD/svg10.dtd">
<svg version="1.0" xmlns="http://www.w3.org/2000/svg"
 width="260.000000pt" height="260.000000pt" viewBox="0 0 260.000000 260.000000"
 preserveAspectRatio="xMidYMid meet">
<metadata>
Created by potrace 1.11, written by Peter Selinger 2001-2013
</metadata>
<g transform="translate(0.000000,260.000000) scale(0.100000,-0.100000)"
fill="#000000" stroke="none">
<path d="M0 1300 l0 -1300 225 0 c206 0 228 2 246 18 21 20 17 52 -6 52 -7 0
-16 6 -19 13 -3 9 -8 8 -18 -3 -7 -9 -26 -17 -43 -18 -20 -1 -26 1 -16 7 8 5
10 14 6 22 -5 8 1 5 13 -5 19 -17 22 -17 22 -3 0 10 -5 17 -10 17 -6 0 6 23
27 50 42 56 53 61 53 25 0 -16 4 -23 13 -19 7 2 29 -9 48 -25 19 -17 37 -31
42 -31 4 0 7 -7 7 -16 0 -11 -5 -14 -16 -10 -9 3 -27 9 -40 12 -13 3 -21 10
-18 15 3 5 0 9 -5 9 -6 0 -11 -4 -11 -10 0 -5 -7 -7 -15 -4 -21 8 -18 -6 6
-36 16 -19 19 -20 15 -6 -6 16 -3 18 26 11 18 -4 40 -8 49 -9 8 -1 31 -14 50
-29 31 -23 45 -27 100 -26 35 1 54 4 42 6 -22 4 -93 75 -93 93 0 6 10 10 23
10 24 0 75 -47 96 -87 l12 -23 347 0 c191 0 341 4 335 8 -7 4 -16 23 -19 42
-6 27 -5 31 7 24 125 -77 114 -74 240 -74 l117 0 67 55 c69 56 70 57 137 38
30 -8 20 14 -12 27 -37 15 -30 30 16 30 45 0 44 17 -3 26 -48 9 -58 20 -94
101 -46 105 -51 112 -73 119 -11 4 -33 20 -49 35 -36 37 -69 45 -117 29 -37
-12 -39 -12 -69 21 -17 19 -31 41 -31 49 -1 8 -9 32 -18 53 -16 36 -18 37 -39
22 -16 -11 -23 -26 -23 -49 0 -30 -2 -32 -28 -28 -26 3 -28 7 -27 45 0 23 5
45 10 49 15 11 55 9 55 -2 0 -7 6 -7 20 0 22 12 26 30 9 47 -9 9 -24 6 -60
-13 l-49 -24 0 25 c0 15 -6 25 -14 25 -14 0 -27 -50 -27 -106 -1 -27 -5 -33
-31 -38 -54 -11 -57 -8 -75 54 -9 35 -22 60 -30 60 -11 0 -11 -6 1 -35 8 -19
13 -35 11 -35 -2 0 0 -13 5 -30 7 -24 5 -30 -11 -35 -10 -4 -24 -3 -30 1 -7 4
-9 3 -6 -2 3 -6 -13 -18 -36 -29 -23 -10 -51 -32 -62 -48 -27 -42 -37 -43 -75
-7 -27 26 -31 33 -19 41 10 6 4 8 -18 5 -18 -2 -30 1 -27 5 3 5 -2 9 -11 9 -9
0 -14 4 -11 9 4 5 -3 7 -14 4 -28 -7 -52 15 -44 41 10 31 37 65 52 66 7 0 11
4 8 9 -3 5 1 11 9 15 8 3 20 16 26 30 9 18 26 28 78 41 36 10 83 20 104 22 20
3 37 9 37 15 0 9 -101 5 -157 -7 -25 -6 -26 -5 -8 6 11 7 38 27 60 44 25 20
57 35 85 39 25 4 55 9 68 13 13 3 22 1 22 -6 0 -6 -8 -11 -17 -12 -13 0 -14
-2 -4 -6 8 -3 21 4 30 15 20 26 74 38 89 20 6 -7 13 -31 15 -53 2 -22 2 -17 0
10 -2 28 -3 70 -3 94 0 24 -9 71 -20 103 -11 32 -20 66 -20 76 0 9 -5 24 -11
32 -9 12 -10 11 -6 -7 4 -19 3 -20 -15 -10 -20 13 -25 9 -54 -40 -9 -15 -16
-16 -40 -8 -36 13 -67 86 -46 107 11 11 15 10 23 -5 14 -25 56 -22 70 6 12 21
11 22 -8 4 -19 -16 -21 -16 -37 2 -22 25 -17 53 11 66 12 5 31 30 43 55 19 43
20 44 14 10 -3 -19 -15 -48 -26 -63 -11 -16 -18 -31 -15 -33 6 -7 44 47 62 88
8 19 14 25 15 16 0 -10 4 -18 9 -18 4 0 6 40 3 89 l-4 90 35 6 c20 4 43 16 53
26 10 12 30 19 51 19 19 0 42 4 51 9 15 8 17 3 15 -46 -1 -45 1 -53 14 -49 8
3 21 6 28 6 13 0 80 65 74 71 -2 2 9 16 24 31 15 15 27 33 27 41 0 8 9 22 20
32 23 21 26 9 5 -19 -17 -23 -20 -62 -5 -71 6 -3 12 0 15 7 3 7 24 14 49 16
39 2 47 -1 75 -34 27 -30 30 -38 19 -52 -24 -32 -93 -117 -108 -134 -15 -16
-16 -15 -16 19 0 32 5 39 43 62 48 29 49 32 27 66 -13 20 -24 25 -58 24 -41
-1 -41 -1 -10 -10 17 -5 39 -18 49 -29 16 -18 17 -23 5 -30 -8 -5 -17 -5 -20
-1 -9 14 -48 31 -70 31 -33 0 -70 -44 -70 -84 0 -53 -16 -86 -73 -146 -46 -49
-47 -50 -7 -12 25 23 50 42 54 42 5 0 6 -21 3 -46 -3 -31 -13 -54 -31 -73 -14
-15 -26 -34 -26 -42 -1 -46 -60 -164 -60 -120 0 6 5 11 10 11 6 0 10 5 10 11
0 5 -4 8 -8 5 -4 -2 -8 11 -8 29 0 43 -2 45 -44 36 -47 -9 -49 -32 -3 -59 l38
-23 -57 4 -58 4 1 -46 c1 -36 3 -41 8 -21 l7 25 7 -26 c4 -14 2 -41 -3 -60
-11 -36 -3 -102 10 -94 5 3 3 18 -3 35 -10 25 -9 32 7 43 11 8 16 18 13 24 -4
6 28 15 81 22 48 7 118 19 156 27 l69 14 111 -36 c61 -20 115 -41 121 -45 13
-12 45 -11 45 1 0 15 28 12 37 -5 7 -12 10 -12 20 4 11 17 8 21 -17 30 -41 14
-38 23 3 9 38 -12 90 -66 83 -85 -3 -8 2 -13 14 -13 11 0 20 5 20 10 0 6 -4
10 -9 10 -5 0 -12 7 -15 16 -4 12 -2 15 9 10 10 -3 15 1 15 12 1 14 4 13 20
-7 16 -18 20 -20 20 -7 0 10 4 15 9 12 5 -4 8 -22 7 -41 -2 -19 1 -32 5 -29 5
3 9 0 9 -6 0 -6 4 -9 8 -6 4 2 14 1 22 -4 11 -7 11 -11 1 -24 -11 -13 -10 -18
3 -31 9 -9 16 -12 16 -6 0 6 5 11 10 11 6 0 10 -13 10 -30 0 -16 4 -30 9 -30
18 0 21 18 12 60 -8 35 -7 41 7 38 8 -2 17 -9 20 -17 3 -9 0 -11 -8 -6 -9 6
-10 -1 -5 -26 11 -50 23 -69 40 -63 8 4 15 10 15 16 0 5 -4 7 -9 4 -4 -3 -13
6 -19 19 -7 16 -8 26 -1 30 5 4 7 10 4 15 -3 5 0 12 5 15 8 5 9 -4 5 -29 -6
-29 -4 -36 9 -36 9 0 17 -4 17 -10 3 -20 4 -25 13 -38 4 -7 6 -15 3 -18 -7 -7
-61 19 -70 33 -4 7 -13 13 -18 13 -6 0 -8 -4 -5 -9 3 -4 -6 -6 -20 -3 -14 2
-22 7 -20 10 6 6 -24 31 -38 32 -4 0 -5 -7 -2 -16 6 -14 -6 -16 -111 -11 -65
3 -144 12 -176 21 -32 9 -77 16 -100 15 l-42 -1 55 -13 c30 -7 91 -24 135 -39
44 -14 88 -26 97 -26 10 0 18 -4 18 -9 0 -4 17 -5 38 -2 57 10 72 4 72 -31 0
-25 3 -29 19 -25 11 3 22 -1 24 -7 6 -15 -35 -16 -45 -1 -4 6 -8 2 -8 -8 0
-10 6 -17 13 -16 6 2 28 -5 47 -14 19 -10 27 -15 18 -12 -26 7 -23 1 22 -45
22 -23 38 -45 35 -51 -13 -20 -177 -86 -272 -108 l-38 -9 45 -1 c122 -3 260
48 324 119 21 23 37 34 40 27 3 -8 5 -6 6 3 0 8 7 -3 15 -25 19 -51 18 -70 -1
-27 -19 42 -25 41 -18 -5 7 -48 18 -60 38 -40 17 17 13 86 -5 98 -6 3 -10 9
-10 13 3 18 -1 23 -17 21 -9 0 -22 -4 -29 -8 -15 -10 -29 12 -32 52 l-2 34 66
-57 65 -58 -1 59 c0 50 -16 123 -18 85 -1 -10 -12 -7 -41 9 -22 13 -40 27 -40
31 0 5 4 7 9 3 6 -3 14 3 20 12 9 15 12 16 20 4 13 -20 54 -23 46 -4 -3 8 -5
17 -5 19 0 3 -4 3 -9 -1 -5 -3 -12 -1 -15 4 -4 5 4 13 16 16 l21 7 -24 19
c-14 11 -18 19 -10 19 7 0 11 6 7 15 -3 9 0 15 9 15 12 0 15 14 15 61 0 50 -3
60 -15 55 -9 -3 -15 0 -15 9 0 8 7 15 15 15 8 0 15 4 15 9 0 4 -13 7 -28 5
-20 -2 -29 1 -29 11 0 8 4 12 8 9 4 -2 11 1 15 7 5 8 8 8 14 -1 5 -8 9 -5 13
9 6 25 0 26 -25 4 -14 -13 -18 -13 -18 -2 -1 10 -5 9 -15 -5 -8 -11 -12 -30
-8 -47 3 -19 1 -29 -6 -29 -7 0 -9 -5 -5 -11 4 -8 9 -8 17 0 14 14 30 14 22 1
-3 -5 0 -10 7 -10 7 0 0 -7 -16 -15 -15 -8 -32 -12 -37 -9 -10 6 -7 39 4 50 4
4 2 13 -5 21 -8 10 -8 20 2 37 7 13 9 29 5 36 -8 13 63 92 77 84 4 -3 8 3 8
12 0 15 -4 14 -25 -6 -14 -13 -25 -19 -25 -13 0 6 11 18 25 27 l25 16 0 545 0
544 -25 -2 c-13 -1 -31 -11 -39 -22 -9 -11 -16 -15 -16 -9 0 19 35 53 54 51
11 -1 21 4 24 12 3 9 0 11 -7 6 -9 -5 -9 -1 1 14 10 16 10 27 1 51 -6 17 -7
28 -2 24 5 -3 9 63 9 160 0 161 -1 166 -21 166 -11 0 -18 -4 -15 -8 2 -4 -4
-8 -15 -8 -10 0 -19 5 -19 11 0 5 -5 3 -10 -5 -5 -8 -10 -10 -10 -4 0 6 -22
12 -50 13 -28 1 -50 -3 -50 -9 0 -5 -5 -10 -11 -10 -5 0 -8 4 -4 9 7 13 -68 9
-77 -4 -5 -6 -8 -5 -8 3 0 15 -51 5 -62 -12 -5 -7 -8 -4 -8 7 0 11 -5 17 -12
14 -7 -2 -12 -9 -11 -14 1 -5 -5 -10 -12 -10 -11 0 -12 4 -4 13 9 11 2 13 -37
12 -47 -2 -64 -11 -64 -33 1 -5 8 -1 16 10 16 20 16 20 10 -1 -4 -13 1 -28 14
-42 23 -25 31 -27 47 -11 8 8 13 7 18 -2 5 -8 4 -10 -3 -5 -7 4 -12 2 -12 -4
0 -8 -9 -10 -25 -6 -18 5 -25 2 -25 -8 0 -18 -27 -29 -36 -14 -4 6 -3 8 4 4 6
-3 14 -1 18 5 3 6 1 15 -6 19 -7 5 -10 15 -6 25 5 14 2 16 -13 12 -13 -3 -18
-1 -15 8 3 7 0 16 -5 20 -6 3 -9 11 -6 16 4 5 -1 9 -10 9 -9 0 -14 -4 -10 -9
3 -5 -9 -9 -27 -9 -78 1 -94 -2 -78 -13 13 -9 13 -10 0 -6 -8 2 -15 11 -14 19
2 24 -119 22 -142 -3 -19 -21 -34 -25 -34 -9 0 6 7 10 15 10 8 0 15 4 15 9 0
4 -18 8 -39 8 -30 0 -42 -5 -50 -21 -10 -19 -11 -19 -5 4 6 23 6 24 -11 10
-11 -9 -16 -10 -11 -2 4 6 2 12 -3 12 -6 0 -12 -12 -12 -27 -1 -21 -2 -23 -6
-8 -3 11 -10 25 -15 30 -8 7 -9 6 -5 -1 4 -7 0 -15 -9 -18 -22 -9 -24 -8 -18
8 7 19 -63 19 -90 0 -26 -18 -36 -18 -36 1 0 13 -94 15 -740 15 l-740 0 0
-1300z m1474 1259 c5 -4 -10 -3 -33 3 -22 6 -38 14 -36 19 5 8 50 -7 69 -22z
m693 -6 c-3 -3 -11 -2 -17 2 -9 6 -9 10 1 16 14 8 27 -7 16 -18z m263 12 c0
-8 -7 -15 -15 -15 -13 0 -14 3 -3 15 16 18 18 18 18 0z m-879 -12 c-4 -10 -18
-39 -29 -64 -11 -26 -42 -73 -68 -105 -26 -33 -51 -65 -57 -72 -5 -6 -13 -27
-16 -45 -6 -26 -12 -32 -33 -32 -21 -1 -25 2 -16 12 5 7 14 10 19 7 5 -2 15
11 23 30 8 20 31 57 50 82 20 26 36 53 36 61 0 8 4 12 9 9 13 -9 51 57 51 88
0 16 -4 25 -10 21 -5 -3 -10 -2 -10 4 0 5 12 12 28 14 15 2 28 5 30 6 1 0 -2
-7 -7 -16z m518 -5 c0 -13 -3 -17 -6 -10 -4 10 -8 10 -19 1 -7 -6 -19 -9 -26
-7 -10 4 16 23 50 37 1 1 2 -9 1 -21z m406 12 c3 -5 -1 -10 -9 -10 -8 0 -18 5
-21 10 -3 6 1 10 9 10 8 0 18 -4 21 -10z m-1064 -28 c-6 -11 -7 -22 -4 -26 3
-3 1 -6 -5 -6 -16 0 -26 20 -10 21 7 0 4 4 -7 9 -19 7 -19 8 5 18 31 12 35 9
21 -16z m338 25 c-2 -1 -12 -9 -22 -16 -15 -12 -17 -12 -11 3 3 9 13 16 22 16
8 0 13 -1 11 -3z m181 -7 c0 -5 -8 -10 -17 -10 -15 0 -16 2 -3 10 19 12 20 12
20 0z m385 0 c-3 -5 -11 -10 -16 -10 -6 0 -7 5 -4 10 3 6 11 10 16 10 6 0 7
-4 4 -10z m195 6 c0 -3 -4 -8 -10 -11 -5 -3 -10 -1 -10 4 0 6 5 11 10 11 6 0
10 -2 10 -4z m-816 -33 c-4 -16 -13 -35 -20 -43 -11 -11 -10 -3 2 28 19 48 27
55 18 15z m151 17 c-3 -5 -14 -10 -23 -9 -14 0 -13 2 3 9 27 11 27 11 20 0z
m-55 -4 c0 -2 -9 -6 -20 -9 -11 -3 -18 -1 -14 4 5 9 34 13 34 5z m205 -5 c3
-6 -6 -8 -22 -5 -37 7 -42 14 -10 14 14 0 28 -4 32 -9z m581 -3 c4 -7 3 -8 -4
-4 -15 9 -15 1 -2 -25 6 -11 7 -19 2 -19 -6 0 -13 10 -16 23 -7 21 -8 21 -15
3 -7 -19 -8 -19 -13 2 -4 12 -3 20 1 18 4 -3 13 -1 21 5 19 11 17 11 26 -3z
m-1141 -23 c0 -14 -6 -25 -13 -25 -7 0 -11 3 -9 8 2 4 7 15 10 25 9 24 12 21
12 -8z m212 3 c-3 -8 -6 -5 -6 6 -1 11 2 17 5 13 3 -3 4 -12 1 -19z m247 8
c-4 -10 2 -12 23 -9 27 4 26 3 -6 -12 -41 -19 -45 -19 -37 0 3 8 1 15 -5 15
-6 0 -13 -9 -16 -20 -6 -21 -23 -28 -23 -9 0 15 23 36 46 42 10 2 20 5 21 6 1
0 0 -5 -3 -13z m206 -2 c0 -8 -4 -13 -9 -10 -5 3 -11 0 -14 -8 -3 -7 -14 -16
-25 -18 -15 -4 -18 -1 -14 14 3 12 7 15 12 9 4 -8 13 -5 25 9 22 24 25 25 25
4z m340 6 c0 -5 -4 -10 -10 -10 -5 0 -10 5 -10 10 0 6 5 10 10 10 6 0 10 -4
10 -10z m41 -14 c-7 -8 -9 -21 -5 -27 4 -8 3 -9 -4 -5 -15 9 -15 29 0 44 16
16 24 6 9 -12z m-100 1 c-6 -8 -7 -18 -3 -22 4 -5 -1 -5 -10 -2 -10 4 -18 2
-18 -4 0 -6 -9 -8 -19 -4 -11 3 -23 0 -27 -6 -5 -9 -2 -10 9 -6 10 3 17 2 17
-2 0 -18 -27 -18 -38 0 -10 16 -9 19 3 19 8 0 15 4 15 10 0 5 7 7 15 4 8 -3
24 1 37 10 27 20 34 20 19 3z m-894 -19 c-3 -8 -6 -5 -6 6 -1 11 2 17 5 13 3
-3 4 -12 1 -19z m533 13 c0 -22 -13 -41 -29 -41 -14 1 -13 3 3 15 20 15 20 15
0 15 -16 0 -17 2 -4 10 19 12 30 13 30 1z m-50 -21 c0 -5 -10 -10 -22 -10 -19
0 -20 2 -8 10 19 13 30 13 30 0z m200 3 c0 -4 -10 -17 -21 -29 -17 -18 -26
-21 -40 -13 -11 5 -19 7 -19 3 0 -3 -6 -1 -13 5 -8 6 -17 8 -20 4 -4 -3 -7 -3
-7 0 0 3 10 11 21 18 15 8 19 8 15 0 -5 -7 5 -11 28 -11 25 0 36 4 36 15 0 8
5 15 10 15 6 0 10 -3 10 -7z m55 -23 c2 -25 0 -25 -26 1 l-21 21 22 -7 c17 -6
21 -4 15 6 -5 8 -4 11 0 6 5 -4 9 -16 10 -27z m315 10 c0 -5 -5 -10 -11 -10
-5 0 -7 5 -4 10 3 6 8 10 11 10 2 0 4 -4 4 -10z m-894 -13 c10 0 11 -17 4 -37
-1 -3 -2 -14 -2 -25 1 -17 0 -17 -4 -2 -7 23 -13 22 -53 -15 l-35 -33 28 35
c16 19 35 39 42 43 8 4 14 13 14 20 0 9 -2 9 -8 0 -5 -9 -11 -6 -21 9 -12 19
-11 20 6 13 10 -4 23 -8 29 -8z m-68 -32 c1 -18 -3 -25 -15 -25 -13 0 -14 3
-6 11 6 6 9 18 6 25 -3 8 -1 14 4 14 5 0 10 -11 11 -25z m446 13 c-3 -4 -12
-8 -20 -8 -8 0 -13 4 -10 8 3 5 12 9 20 9 8 0 13 -4 10 -9z m-114 -48 c11 -6
25 -8 30 -5 5 3 7 -1 4 -9 -3 -9 2 -16 13 -18 16 -3 15 -5 -6 -17 -14 -8 -21
-9 -17 -2 4 6 0 19 -10 28 -15 16 -17 16 -30 -2 -7 -10 -11 -23 -7 -29 3 -6 0
-5 -7 1 -11 10 -10 16 5 33 10 11 14 20 8 20 -5 0 -18 -9 -28 -20 -20 -22 -40
-26 -51 -8 -4 7 -3 8 4 4 7 -4 12 -2 12 5 0 7 -8 9 -21 6 -17 -5 -18 -3 -8 9
8 10 15 12 23 4 18 -18 33 -10 41 23 6 30 7 30 15 10 5 -12 18 -27 30 -33z
m305 25 c17 -13 24 -24 18 -25 -7 0 -13 3 -13 8 0 4 -12 15 -27 24 -16 10 -23
18 -18 18 6 0 24 -11 40 -25z m-220 -2 c11 -7 15 -13 9 -13 -5 0 -16 6 -22 12
-9 9 -15 9 -20 3 -6 -10 -20 -11 -45 -7 -5 1 -5 6 -2 12 8 13 55 9 80 -7z
m154 6 c-8 -5 -27 -6 -43 -3 -19 4 -26 3 -22 -5 10 -15 -30 -100 -62 -135
l-27 -29 35 7 c46 9 103 55 115 94 5 18 13 32 17 32 4 0 5 7 2 15 -4 9 0 15
10 15 18 0 19 -4 7 -28 -5 -9 -15 -30 -22 -46 -18 -38 -81 -83 -133 -96 -98
-25 -166 -78 -166 -132 0 -24 16 -31 33 -13 9 8 25 15 36 15 12 0 21 5 21 10
0 6 4 10 10 10 5 0 7 -7 4 -15 -4 -8 -17 -15 -30 -15 -13 0 -28 -9 -34 -20
-13 -25 5 -27 19 -2 10 17 12 15 15 -10 1 -17 28 -16 34 1 3 8 0 11 -7 7 -18
-12 -13 -2 10 18 21 18 22 18 16 -3 -7 -27 18 -28 33 -1 6 11 16 20 23 19 9 0
9 -2 0 -6 -20 -8 -15 -23 8 -23 30 0 12 -20 -19 -21 -17 -1 -21 -3 -9 -6 23
-6 22 -19 -3 -26 -24 -6 -25 -20 -4 -41 8 -9 11 -16 6 -16 -4 0 -19 12 -33 26
-15 16 -18 24 -9 22 9 -2 16 6 18 21 2 15 0 21 -7 16 -6 -3 -9 -11 -6 -16 4
-5 -5 -9 -19 -9 -16 0 -30 -8 -37 -22 -10 -18 -9 -20 5 -15 8 3 18 2 21 -4 7
-10 -22 -25 -31 -16 -13 12 -10 43 5 54 14 10 14 14 2 25 -11 10 -14 10 -18 1
-3 -7 -12 -13 -20 -13 -9 0 -13 3 -10 7 7 7 -11 33 -23 33 -3 0 -7 -7 -7 -15
0 -8 3 -12 7 -10 3 2 6 -5 6 -16 0 -22 -7 -24 -25 -6 -10 10 -15 8 -27 -7 -17
-24 -1 -38 31 -26 23 9 47 -5 58 -34 4 -10 10 -16 13 -13 4 3 14 -2 24 -11 10
-9 41 -25 68 -34 93 -33 143 -115 117 -191 -19 -57 -50 -102 -69 -101 -14 2
-15 -1 -4 -14 11 -13 11 -14 -1 -7 -11 6 -13 4 -8 -11 6 -17 6 -17 -6 -2 -12
15 -14 15 -25 0 -8 -11 -10 -11 -6 -2 4 8 22 33 40 55 100 123 56 238 -105
274 -23 5 -41 5 -41 1 0 -4 -11 -11 -25 -14 -14 -4 -25 -11 -25 -16 0 -6 -7
-10 -15 -10 -25 0 -17 17 17 33 l33 16 -43 7 c-23 3 -42 10 -42 14 0 4 -12 12
-26 18 -14 7 -23 8 -19 2 9 -14 -14 -12 -29 3 -11 11 -25 40 -26 52 0 3 -6 18
-15 35 -8 16 -15 35 -15 42 0 7 9 -5 19 -27 10 -22 26 -46 35 -54 13 -11 14
-16 4 -23 -9 -5 -7 -7 7 -5 40 8 57 20 52 38 -3 11 -1 17 3 14 5 -3 11 -1 14
4 3 5 -1 12 -10 15 -9 4 -14 9 -11 13 4 3 13 0 21 -6 12 -10 17 -8 26 9 13 25
4 42 -10 20 -6 -10 -10 -11 -10 -3 0 7 9 17 20 23 10 6 27 26 36 45 11 23 36
47 73 69 84 51 131 112 131 171 0 23 -2 24 -20 15 -15 -8 -18 -8 -14 4 4 10
23 14 66 14 38 0 55 -4 47 -9z m244 -9 c16 -19 44 -29 33 -12 -3 5 1 9 9 9 9
0 7 -8 -8 -29 -24 -33 -21 -32 -37 -13 -11 13 -10 14 4 9 22 -8 20 2 -4 26
-25 25 -56 26 -69 3 -6 -10 -11 -13 -11 -7 -1 35 56 45 83 14z m-93 0 c0 -5
-6 -10 -12 -10 -7 0 -2 -9 12 -20 25 -19 25 -19 5 -34 -11 -8 -22 -10 -23 -5
-3 6 -9 6 -15 1 -8 -6 -19 -2 -31 11 -19 20 -18 20 18 13 33 -6 53 7 24 16 -6
2 -9 12 -5 21 7 18 27 23 27 7z m174 -5 c-4 -8 -8 -15 -10 -15 -2 0 -4 7 -4
15 0 8 4 15 10 15 5 0 7 -7 4 -15z m51 -5 c-3 -5 -1 -10 6 -10 7 0 10 -2 7 -5
-3 -3 -13 -2 -22 1 -14 5 -15 9 -4 15 17 11 20 11 13 -1z m-155 -15 c0 -9 -9
-15 -22 -15 -21 0 -21 0 -2 15 24 18 24 18 24 0z m-669 -51 c-13 -9 -18 -21
-14 -32 6 -16 5 -16 -13 0 -16 14 -23 15 -33 5 -6 -6 -15 -12 -19 -13 -4 0
-15 -4 -25 -9 -10 -4 -21 -5 -24 -2 -5 6 4 11 77 39 45 18 55 25 56 39 3 30 7
33 11 11 3 -16 -2 -29 -16 -38z m439 52 c0 -2 -7 -6 -15 -10 -8 -3 -15 -1 -15
4 0 6 7 10 15 10 8 0 15 -2 15 -4z m-149 -29 c-10 -9 -11 -8 -5 6 3 10 9 15
12 12 3 -3 0 -11 -7 -18z m-799 0 c-9 -10 -7 -19 4 -35 8 -12 13 -22 10 -22
-2 0 -11 -2 -19 -5 -9 -4 -13 1 -13 17 1 15 -4 22 -14 20 -9 -1 -6 6 9 18 26
23 39 27 23 7z m468 3 c0 -5 -4 -10 -10 -10 -5 0 -10 5 -10 10 0 6 5 10 10 10
6 0 10 -4 10 -10z m875 0 c3 -6 -1 -7 -9 -4 -18 7 -21 14 -7 14 6 0 13 -4 16
-10z m-910 -10 c3 -5 -1 -10 -10 -10 -9 0 -13 5 -10 10 3 6 8 10 10 10 2 0 7
-4 10 -10z m-77 -25 c1 -14 -3 -25 -8 -25 -5 0 -7 7 -3 16 4 12 2 15 -8 12 -8
-3 -13 -11 -11 -17 2 -12 -11 -15 -21 -4 -5 4 35 40 48 43 0 0 2 -11 3 -25z
m221 11 c-2 -2 -15 -7 -29 -10 l-25 -7 25 15 c21 12 42 14 29 2z m76 -16 c10
8 13 5 11 -14 -1 -20 -4 -22 -18 -15 -10 5 -18 14 -18 20 0 6 -10 8 -22 4 -22
-6 -23 -6 -3 10 17 14 20 14 28 0 6 -12 12 -13 22 -5z m602 5 c0 -8 -4 -12 -9
-9 -4 3 -8 0 -8 -6 0 -6 -8 -10 -17 -8 -10 2 -27 -4 -37 -14 -21 -19 -36 -23
-36 -10 0 7 86 59 101 61 3 1 6 -6 6 -14z m-466 -18 c-10 -9 -11 -8 -5 6 3 10
9 15 12 12 3 -3 0 -11 -7 -18z m592 -7 c-10 -9 -20 -15 -23 -13 -3 3 3 10 12
17 10 7 14 17 10 21 -4 5 -1 5 6 1 11 -6 10 -12 -5 -26z m-1308 -3 c-11 -6
-31 -13 -45 -14 -24 -2 -24 -1 -5 10 11 6 26 12 33 13 8 2 16 5 20 8 3 3 8 3
11 0 3 -3 -3 -11 -14 -17z m645 13 c0 -5 -5 -10 -11 -10 -5 0 -7 5 -4 10 3 6
8 10 11 10 2 0 4 -4 4 -10z m410 -9 c0 -4 -14 -8 -31 -8 -28 0 -30 2 -14 13
17 12 45 9 45 -5z m-862 -18 c-14 -16 -33 -42 -42 -60 -13 -26 -21 -32 -45
-30 -34 2 -31 17 4 17 15 0 29 9 36 23 12 23 59 77 68 77 2 0 -7 -12 -21 -27z
m272 15 c0 -4 -7 -8 -15 -8 -8 0 -15 4 -15 8 0 5 7 9 15 9 8 0 15 -4 15 -9z
m44 3 c3 -5 -1 -11 -9 -15 -8 -3 -17 0 -21 6 -4 7 -3 8 4 4 7 -4 12 -2 12 3 0
13 7 14 14 2z m731 -39 c-3 -3 -5 1 -5 9 -1 8 -7 3 -15 -11 -17 -30 -20 -11
-3 25 12 27 12 27 20 4 5 -12 6 -24 3 -27z m-1362 20 c-10 -10 -20 -14 -22 -9
-2 5 3 13 10 18 24 15 30 10 12 -9z m417 -2 c0 -5 -5 -10 -11 -10 -5 0 -7 5
-4 10 3 6 8 10 11 10 2 0 4 -4 4 -10z m360 0 c0 -5 -2 -10 -4 -10 -3 0 -8 5
-11 10 -3 6 -1 10 4 10 6 0 11 -4 11 -10z m524 -5 c3 -8 1 -15 -4 -15 -6 0
-10 7 -10 15 0 8 2 15 4 15 2 0 6 -7 10 -15z m-914 -3 c0 -13 -12 -22 -22 -16
-10 6 -1 24 13 24 5 0 9 -4 9 -8z m131 -12 c6 0 7 4 4 10 -3 6 4 9 19 8 13 -1
22 -6 20 -10 -3 -4 0 -17 6 -28 9 -17 8 -20 -7 -20 -17 -1 -16 -2 1 -15 17
-13 17 -15 4 -15 -24 0 -31 16 -18 40 10 18 8 20 -20 20 -22 0 -30 5 -29 18 0
10 3 12 6 5 2 -7 9 -13 14 -13z m762 1 c3 -14 1 -18 -9 -14 -15 6 -18 16 -7
26 9 10 10 9 16 -12z m-1196 -28 c-3 -3 -10 -2 -16 2 -7 4 -7 10 2 20 10 11
13 11 15 -2 2 -8 1 -17 -1 -20z m25 5 c-7 -7 -10 -5 -7 8 5 29 6 30 12 16 3
-8 1 -18 -5 -24z m58 16 c0 -2 -9 -4 -21 -4 -11 0 -18 4 -14 10 5 8 35 3 35
-6z m965 -9 c-1 -14 -6 -29 -10 -33 -4 -4 -4 4 0 16 6 22 5 23 -17 11 -14 -7
-18 -14 -10 -17 15 -5 16 -28 0 -38 -7 -4 -8 -3 -4 5 10 15 -19 43 -48 45 -22
1 -26 26 -5 26 5 0 19 -6 30 -12 18 -11 23 -10 33 5 16 25 35 21 31 -8z m35
11 c0 -3 -4 -8 -10 -11 -5 -3 -10 -1 -10 4 0 6 5 11 10 11 6 0 10 -2 10 -4z
m34 -2 c9 -3 13 -10 10 -15 -3 -5 -1 -9 5 -9 5 0 11 5 13 11 3 8 7 7 15 -2 18
-23 -33 -20 -53 2 -18 20 -16 23 10 13z m-231 -23 c-6 -3 -12 -12 -15 -20 -2
-8 -12 -15 -21 -17 -9 -1 -15 2 -11 7 3 5 0 9 -6 9 -6 0 -8 5 -4 11 5 8 9 7
14 -1 6 -10 11 -7 21 8 7 11 17 18 22 15 5 -3 5 -8 0 -12z m477 9 c0 -5 -2
-10 -4 -10 -3 0 -8 5 -11 10 -3 6 -1 10 4 10 6 0 11 -4 11 -10z m-1476 -21 c4
-4 -4 -6 -18 -6 -15 0 -33 -9 -41 -19 -8 -11 -15 -15 -15 -11 0 13 53 58 59
50 3 -4 10 -11 15 -14z m66 11 c0 -5 -6 -9 -12 -7 -7 1 -12 -4 -10 -11 1 -8
-2 -11 -7 -7 -14 8 -2 35 15 35 8 0 14 -4 14 -10z m384 -6 c3 -8 2 -12 -4 -9
-6 3 -10 10 -10 16 0 14 7 11 14 -7z m33 10 c-3 -3 -12 -4 -19 -1 -8 3 -5 6 6
6 11 1 17 -2 13 -5z m57 -15 c-3 -5 -17 -9 -32 -9 -24 0 -25 1 -7 14 20 14 49
11 39 -5z m116 2 c0 -5 3 -17 6 -26 4 -9 3 -15 -2 -14 -23 4 -35 -2 -32 -17 2
-9 -6 -20 -18 -24 -19 -7 -21 -5 -16 12 2 11 11 22 18 25 7 2 10 11 7 19 -4
10 0 12 11 8 9 -3 16 -1 16 4 0 6 -8 13 -17 15 -14 4 -12 5 5 6 12 0 22 -3 22
-8z m435 -57 c0 -18 -4 -37 -8 -41 -11 -10 -37 -13 -37 -3 0 15 18 21 23 8 3
-7 5 4 4 25 -2 37 -23 57 -47 42 -5 -3 -10 -1 -10 4 0 6 9 11 19 11 11 0 23 5
26 11 11 18 32 -21 30 -57z m308 53 c-4 -6 0 -8 10 -4 12 4 17 1 17 -11 1 -15
2 -15 15 2 8 11 18 17 21 13 10 -10 -17 -39 -31 -33 -7 2 -18 -1 -24 -7 -8 -8
-11 -8 -11 0 0 6 6 14 13 17 6 3 1 3 -12 0 -16 -4 -21 -3 -17 5 4 6 2 11 -3
11 -16 0 -13 -14 8 -37 20 -21 20 -21 0 -26 -16 -4 -19 -2 -15 10 4 10 2 13
-8 10 -9 -4 -12 0 -9 13 4 16 0 18 -27 14 -24 -4 -31 -2 -28 8 3 8 16 12 35
10 17 -2 34 1 37 6 3 5 12 9 20 9 8 0 12 -5 9 -10z m-1013 -7 c0 -5 -5 -10
-11 -10 -5 0 -7 5 -4 10 3 6 8 10 11 10 2 0 4 -4 4 -10z m840 -28 c0 -2 -8 1
-17 7 -12 7 -21 5 -30 -7 -11 -15 -14 -15 -23 -2 -7 11 -5 16 10 18 11 2 20 8
20 13 0 5 9 1 20 -8 11 -10 20 -19 20 -21z m-1055 18 c-3 -5 -12 -10 -18 -10
-7 0 -6 4 3 10 19 12 23 12 15 0z m41 -9 c0 -14 -4 -17 -12 -11 -6 6 -13 9
-15 7 -2 -1 2 4 10 11 8 6 15 12 16 12 0 0 1 -9 1 -19z m270 -3 c4 -7 4 -10
-1 -6 -4 4 -16 3 -26 -3 -12 -6 -19 -6 -19 0 0 5 8 12 18 14 9 3 18 5 19 6 1
0 5 -5 9 -11z m64 3 c0 -5 -7 -12 -16 -15 -14 -5 -15 -4 -4 9 14 17 20 19 20
6z m715 -7 c-9 -9 -18 -14 -21 -11 -9 9 6 27 22 27 13 0 13 -2 -1 -16z m-1258
0 c-3 -3 -12 -4 -19 -1 -8 3 -5 6 6 6 11 1 17 -2 13 -5z m703 2 c0 -2 -7 -7
-16 -10 -8 -3 -12 -2 -9 4 6 10 25 14 25 6z m235 -6 c3 -5 1 -10 -4 -10 -6 0
-11 5 -11 10 0 6 2 10 4 10 3 0 8 -4 11 -10z m-877 -19 c-7 -11 -16 -17 -22
-14 -5 3 -1 12 9 20 25 18 27 17 13 -6z m942 15 c0 -2 -9 -6 -20 -9 -11 -3
-18 -1 -14 4 5 9 34 13 34 5z m300 -11 c4 3 6 -5 2 -17 -4 -16 -2 -20 9 -16
10 4 15 -1 16 -12 1 -10 -5 -21 -13 -24 -9 -3 -12 -11 -9 -16 4 -6 3 -10 -2
-9 -13 3 -43 -12 -43 -22 0 -5 14 -7 30 -4 22 4 30 1 30 -10 0 -22 -48 -23
-62 -2 -9 15 -11 53 -2 44 10 -10 44 12 44 27 0 8 -11 17 -25 20 -14 4 -25 11
-25 17 0 6 9 9 20 6 17 -4 20 -2 16 16 -3 12 -3 16 0 9 3 -6 9 -10 14 -7z
m-1180 -11 c0 -8 -4 -12 -10 -9 -5 3 -10 10 -10 16 0 5 5 9 10 9 6 0 10 -7 10
-16z m300 12 c0 -2 -7 -7 -16 -10 -8 -3 -12 -2 -9 4 6 10 25 14 25 6z m70 -11
c0 -17 16 -20 25 -5 4 6 11 8 16 5 5 -4 9 -1 9 5 0 6 4 9 9 6 4 -3 6 -18 3
-33 l-5 -27 -10 25 c-8 20 -11 21 -14 7 -3 -10 -9 -18 -13 -18 -14 0 8 -51 33
-80 l22 -25 -24 20 c-27 23 -56 74 -53 93 2 6 -4 12 -13 12 -8 0 -15 7 -15 15
0 8 7 15 15 15 8 0 15 -7 15 -15z m201 2 c18 3 29 1 29 -5 0 -6 -7 -9 -15 -6
-11 5 -14 1 -9 -12 4 -15 4 -16 -4 -5 -7 9 -16 11 -28 6 -18 -8 -18 -8 -1 -12
10 -3 17 -13 16 -26 0 -21 -1 -21 -9 -2 -5 11 -9 14 -9 7 -1 -7 -5 -10 -11 -7
-6 4 -10 -5 -10 -20 0 -17 -4 -24 -11 -19 -8 4 -9 0 -4 -15 5 -16 3 -20 -9
-15 -20 8 -20 9 0 38 10 16 12 26 5 31 -6 3 -11 1 -11 -5 0 -6 -4 -9 -10 -5
-5 3 -7 12 -3 21 4 11 8 12 19 3 8 -7 15 -10 17 -8 22 38 24 48 16 58 -6 8 -5
8 2 2 7 -6 25 -7 40 -4z m339 9 c0 -3 -4 -8 -10 -11 -5 -3 -10 -1 -10 4 0 6 5
11 10 11 6 0 10 -2 10 -4z m-830 -27 c0 -6 -4 -7 -10 -4 -5 3 -10 11 -10 16 0
6 5 7 10 4 6 -3 10 -11 10 -16z m65 1 c-11 -5 -14 -9 -7 -9 7 -1 10 -5 7 -11
-11 -18 49 -80 125 -130 78 -51 121 -102 98 -116 -6 -4 -14 -2 -16 5 -8 23
-55 72 -84 87 -38 20 -118 93 -118 108 0 6 -9 22 -20 36 -26 34 -25 40 8 39
24 0 25 -1 7 -9z m745 -6 c0 -2 -9 -8 -19 -13 -16 -9 -18 -8 -14 8 3 12 11 17
19 14 8 -3 14 -7 14 -9z m-1107 -9 c-3 -9 -8 -14 -10 -11 -3 3 -2 9 2 15 9 16
15 13 8 -4z m132 3 c26 5 28 3 17 -10 -11 -13 -8 -17 15 -23 16 -4 23 -9 16
-12 -6 -2 -24 2 -40 10 -15 8 -41 13 -58 10 -21 -2 -26 -1 -16 6 7 5 10 14 6
21 -6 9 -3 9 11 2 11 -6 33 -8 49 -4z m128 -29 c-4 -4 -14 -5 -21 0 -11 6 -10
12 5 26 17 18 18 18 21 1 2 -10 0 -22 -5 -27z m1023 26 c-8 -8 -17 -15 -20
-15 -3 0 -6 7 -6 15 0 9 9 15 21 15 18 0 19 -2 5 -15z m36 -7 c-7 -7 -8 -16
-2 -23 6 -7 0 -15 -20 -22 -25 -9 -30 -9 -30 3 0 8 10 14 23 15 12 0 17 3 10
5 -8 4 -7 10 5 23 9 10 19 16 21 14 3 -2 -1 -9 -7 -15z m-1289 5 c-35 -14 16
-61 55 -51 17 5 19 2 13 -21 -4 -14 -13 -26 -19 -25 -45 4 -45 4 -32 19 10 13
9 15 -12 15 -13 0 -29 -5 -36 -12 -9 -9 -12 -9 -12 0 0 7 5 12 11 12 6 0 9 6
6 13 -7 18 10 57 25 56 10 0 10 -2 1 -6z m1094 -13 c-4 -14 2 -24 16 -32 19
-10 18 -12 -26 -26 -25 -8 -44 -19 -41 -23 3 -5 -2 -6 -10 -3 -26 10 -18 23
19 30 45 8 51 18 23 40 -15 11 -17 14 -5 11 11 -4 17 -1 17 8 0 8 3 15 6 15 4
0 4 -9 1 -20z m118 9 c4 -5 -5 -9 -19 -9 -14 0 -26 4 -26 8 0 11 39 12 45 1z
m-913 -55 c-4 -45 -10 -54 -22 -34 -5 8 -5 17 -1 20 9 6 22 40 15 40 -3 0 -15
-5 -27 -12 -19 -10 -20 -9 -10 4 9 11 10 17 1 26 -8 8 -4 9 18 3 27 -7 29 -11
26 -47z m205 49 c-9 -2 -14 -9 -11 -15 4 -7 2 -8 -5 -4 -15 10 -4 26 17 25 15
-1 15 -2 -1 -6z m823 3 c0 -2 -7 -7 -16 -10 -8 -3 -12 -2 -9 4 6 10 25 14 25
6z m138 -21 c11 -23 10 -25 -13 -25 -34 0 -40 3 -40 20 0 13 17 27 36 29 3 1
11 -10 17 -24z m57 15 c3 -5 1 -10 -4 -10 -6 0 -11 5 -11 10 0 6 2 10 4 10 3
0 8 -4 11 -10z m-1055 -15 c8 -9 9 -15 2 -15 -6 0 -14 5 -17 10 -4 6 -11 7
-17 4 -7 -4 -8 -2 -4 4 10 16 21 15 36 -3z m717 -17 c-3 -8 -6 -5 -6 6 -1 11
2 17 5 13 3 -3 4 -12 1 -19z m-1298 8 c-2 -2 -15 -9 -29 -15 -24 -11 -24 -11
-6 3 16 13 49 24 35 12z m651 -6 c0 -5 -2 -10 -4 -10 -3 0 -8 5 -11 10 -3 6
-1 10 4 10 6 0 11 -4 11 -10z m-363 -32 c-3 -8 -6 -5 -6 6 -1 11 2 17 5 13 3
-3 4 -12 1 -19z m1131 2 c3 -8 0 -10 -8 -5 -7 4 -16 2 -21 -6 -7 -11 -9 -11
-9 2 0 30 29 38 38 9z m-1398 0 c0 -5 -7 -10 -15 -10 -9 0 -18 -7 -21 -15 -4
-8 -10 -15 -15 -15 -14 0 13 39 31 44 8 2 16 4 18 5 1 0 2 -3 2 -9z m199 -57
c-13 -15 -22 -11 -25 13 -2 12 1 13 12 3 10 -8 14 -9 14 0 0 6 -6 14 -14 17
-8 3 -12 12 -9 20 4 11 9 8 19 -12 11 -20 11 -30 3 -41z m123 43 c7 4 8 2 4
-4 -4 -7 -2 -12 3 -12 6 0 11 -8 10 -17 0 -12 -2 -13 -6 -5 -3 9 -9 10 -17 3
-8 -7 -21 -6 -39 4 -14 7 -34 15 -44 17 -10 2 -13 6 -8 10 6 3 27 -2 48 -12
20 -10 39 -14 42 -10 3 5 1 11 -5 15 -5 3 -9 14 -9 23 1 15 2 15 6 -1 2 -9 9
-14 15 -11z m875 -12 c-3 -4 -14 -3 -24 0 -15 6 -15 8 -3 16 16 10 39 -4 27
-16z m-1122 -3 c8 -14 -10 -22 -30 -15 -13 5 -14 8 -3 15 17 11 26 11 33 0z
m633 -29 c-10 -2 -18 -11 -19 -20 0 -11 -2 -13 -6 -4 -7 17 16 44 31 35 7 -5
5 -9 -6 -11z m432 10 c0 -5 -7 -9 -15 -9 -8 0 -15 4 -15 9 0 4 7 8 15 8 8 0
15 -4 15 -8z m92 -7 c4 -5 2 -12 -3 -16 -15 -9 -57 1 -63 16 -6 15 55 16 66 0z
m-1362 -15 c-9 -5 -9 -9 -1 -14 16 -10 4 -26 -14 -20 -8 4 -12 10 -9 15 3 5
-2 9 -10 9 -8 0 -18 -4 -21 -10 -3 -5 -1 -10 5 -10 6 0 8 -5 4 -11 -4 -8 -9
-7 -15 2 -10 16 27 53 42 43 5 -3 9 0 9 6 0 6 5 8 11 4 8 -5 8 -9 -1 -14z
m138 9 c9 5 26 5 37 0 22 -8 17 -10 -35 -12 -19 -1 -34 -5 -32 -9 1 -5 2 -15
2 -23 0 -8 5 -15 10 -15 6 0 10 6 10 13 0 6 11 13 25 13 14 1 25 -3 25 -9 0
-6 -3 -7 -7 -4 -3 4 -17 0 -30 -8 -26 -17 -43 -13 -43 11 0 8 -4 13 -9 10 -5
-3 -8 2 -7 12 1 18 29 35 34 21 2 -5 11 -5 20 0z m101 2 c9 -6 10 -11 2 -15
-13 -8 -31 1 -31 15 0 11 11 11 29 0z m141 -5 c0 -2 -9 -6 -20 -9 -11 -3 -18
-1 -14 4 5 9 34 13 34 5z m23 -8 c-6 -7 -9 -21 -8 -31 2 -9 -1 -15 -6 -11 -5
3 -7 10 -4 15 4 5 -2 9 -12 9 -14 0 -13 3 7 14 32 18 34 18 23 4z m-123 -17
c0 -5 8 -17 17 -26 16 -16 15 -17 -3 -13 -10 2 -18 10 -16 16 1 7 -2 12 -8 12
-5 0 -10 5 -10 10 0 6 5 10 10 10 6 0 10 -4 10 -9z m574 -7 c10 -25 -1 -29
-14 -5 -6 12 -7 21 -1 21 5 0 12 -7 15 -16z m296 12 c0 -3 -4 -8 -10 -11 -5
-3 -10 -1 -10 4 0 6 5 11 10 11 6 0 10 -2 10 -4z m-1099 -35 c-9 -6 -10 -11
-2 -15 6 -4 11 -15 11 -24 0 -11 -5 -7 -15 11 -16 31 -10 66 9 47 8 -8 7 -13
-3 -19z m199 -1 c22 -22 19 -25 -11 -9 -17 9 -21 7 -26 -10 -5 -21 -37 -29
-47 -13 -3 5 2 9 11 9 9 0 24 9 32 21 20 26 17 26 41 2z m110 -11 c0 -18 -1
-18 -19 -2 -22 18 -19 35 4 26 8 -3 15 -14 15 -24z m160 24 c-8 -3 -22 -11
-30 -17 -13 -10 -13 -9 -1 7 7 9 21 17 30 16 13 0 14 -1 1 -6z m363 -28 c-7
-21 -12 -19 -10 4 0 11 5 18 9 15 4 -3 5 -11 1 -19z m-913 3 c0 -8 -3 -9 -32
-12 -7 0 -13 -8 -13 -16 0 -24 -24 -36 -62 -32 -32 4 -34 6 -17 16 26 15 38
14 45 -4 5 -11 10 -7 20 15 7 17 12 32 11 35 0 3 11 5 24 5 13 0 24 -3 24 -7z
m-70 -8 c0 -5 -2 -10 -4 -10 -3 0 -8 5 -11 10 -3 6 -1 10 4 10 6 0 11 -4 11
-10z m505 0 c-3 -5 -12 -7 -20 -3 -21 7 -19 13 6 13 11 0 18 -4 14 -10z m551
1 c14 11 16 11 10 0 -5 -8 -4 -16 3 -21 9 -5 8 -10 -4 -20 -13 -11 -15 -10
-10 2 4 10 -1 17 -14 21 -12 3 -21 11 -21 19 0 10 2 10 9 -1 8 -13 12 -13 27
0z m-856 -5 c0 -2 -7 -6 -15 -10 -8 -3 -15 -1 -15 4 0 6 7 10 15 10 8 0 15 -2
15 -4z m206 -21 c-3 -8 2 -19 12 -24 13 -7 14 -13 5 -22 -9 -9 -15 -4 -27 19
-12 23 -13 32 -3 35 19 8 19 8 13 -8z m34 5 c0 -5 -2 -10 -4 -10 -3 0 -8 5
-11 10 -3 6 -1 10 4 10 6 0 11 -4 11 -10z m510 0 c0 -5 -7 -6 -17 -3 -11 4
-14 3 -9 -5 4 -7 2 -12 -3 -12 -12 0 -14 13 -4 23 10 10 33 8 33 -3z m54 -14
c-7 -18 -29 -22 -39 -6 -3 6 1 7 9 4 10 -4 18 1 22 10 4 9 8 15 10 13 3 -2 2
-12 -2 -21z m176 6 c0 -9 -52 -33 -58 -27 -3 3 0 5 6 5 7 0 12 6 12 13 0 7 9
13 20 14 11 1 20 -1 20 -5z m-1103 -22 c-30 -24 -34 -24 -34 -6 0 8 6 12 15 8
10 -3 13 -1 8 6 -5 8 1 12 15 12 21 0 21 0 -4 -20z m183 4 c0 -2 -12 -4 -26
-4 -14 0 -23 4 -20 9 6 8 46 4 46 -5z m76 7 c5 -5 18 -11 29 -13 20 -5 20 -5
1 -13 -13 -6 -21 -4 -24 3 -2 7 -10 12 -18 12 -8 0 -14 5 -14 10 0 12 13 13
26 1z m238 -6 c-4 -8 1 -17 10 -21 9 -3 16 -14 16 -23 0 -13 2 -13 9 -2 5 7
13 11 17 8 5 -3 16 2 24 11 13 14 13 15 -1 10 -9 -3 -22 -2 -29 2 -18 11 32
35 54 27 22 -9 21 -56 -1 -64 -10 -3 -26 -13 -35 -21 -10 -8 -18 -10 -18 -5 0
12 -32 24 -67 27 -13 1 -23 -2 -23 -6 0 -12 -38 -10 -45 2 -18 28 24 68 72 69
16 1 21 -3 17 -14z m466 -4 c0 -6 -4 -12 -8 -15 -5 -3 -9 1 -9 9 0 8 4 15 9
15 4 0 8 -4 8 -9z m-930 -11 c0 -5 -4 -10 -10 -10 -5 0 -10 5 -10 10 0 6 5 10
10 10 6 0 10 -4 10 -10z m-195 -21 c-6 -19 -4 -21 19 -15 16 4 26 2 26 -4 0
-7 8 -7 23 1 19 11 20 10 9 -3 -8 -11 -26 -15 -58 -13 -40 3 -78 15 -45 15 7
0 11 6 8 14 -6 15 1 26 15 26 5 0 6 -10 3 -21z m295 11 c0 -13 -34 -22 -38
-11 -2 6 -13 11 -24 11 -11 0 -18 -5 -15 -12 2 -7 9 -12 15 -11 20 4 20 -23 0
-48 -16 -20 -17 -20 -9 -3 8 16 7 26 -4 40 -25 33 -18 43 30 42 25 0 45 -4 45
-8z m35 -9 c-3 -6 -11 -11 -17 -11 -6 0 -6 6 2 15 14 17 26 13 15 -4z m682 -3
c-3 -8 -6 -5 -6 6 -1 11 2 17 5 13 3 -3 4 -12 1 -19z m276 14 c-6 -4 -9 -19
-9 -34 2 -30 -4 -34 -22 -16 -9 9 -7 15 6 25 9 8 12 12 5 9 -15 -8 -48 5 -35
13 14 8 68 11 55 3z m-1108 -32 c-3 -4 0 -10 7 -12 8 -3 6 -7 -4 -11 -10 -3
-19 0 -22 9 -3 8 -1 14 5 14 6 0 7 5 3 12 -4 7 -3 8 5 4 6 -4 9 -11 6 -16z
m255 10 c0 -5 -4 -10 -10 -10 -5 0 -10 5 -10 10 0 6 5 10 10 10 6 0 10 -4 10
-10z m-302 -16 c6 3 13 -3 17 -14 3 -11 11 -20 17 -20 6 0 9 -3 6 -6 -3 -3
-15 1 -27 8 -17 11 -25 11 -42 0 -12 -7 -23 -11 -26 -8 -3 3 2 8 11 12 9 3 13
10 10 15 -3 5 -2 14 2 20 5 8 9 8 14 -1 4 -7 12 -10 18 -6z m232 0 c0 -2 -7
-4 -15 -4 -8 0 -15 4 -15 10 0 5 7 7 15 4 8 -4 15 -8 15 -10z m135 7 c17 -7
17 -8 -7 -13 -15 -3 -25 -2 -23 3 3 4 -1 10 -7 12 -9 4 -8 5 2 6 8 0 24 -4 35
-8z m705 5 c0 -3 -4 -8 -10 -11 -5 -3 -10 -1 -10 4 0 6 5 11 10 11 6 0 10 -2
10 -4z m-915 -15 c3 -5 1 -12 -5 -16 -5 -3 -10 1 -10 9 0 18 6 21 15 7z m219
-26 c-4 -8 -11 -12 -16 -9 -6 4 -5 10 3 15 19 12 19 11 13 -6z m-587 -10 c0
-8 -4 -12 -9 -9 -4 3 -8 9 -8 15 0 5 4 9 8 9 5 0 9 -7 9 -15z m1410 0 c0 -8
-6 -16 -14 -19 -16 -7 -17 6 -1 22 15 15 15 15 15 -3z m-928 -12 l22 -18 -45
-38 c-25 -20 -47 -33 -50 -28 -3 5 1 14 9 21 7 6 11 18 8 27 -4 9 1 20 13 26
17 10 17 11 -1 18 -19 7 -19 8 1 8 12 1 31 -7 43 -16z m388 4 c8 -9 -24 -125
-39 -141 -10 -11 -18 -16 -18 -12 0 5 -7 3 -15 -4 -10 -9 -15 -9 -15 -1 0 6
-4 11 -9 11 -5 0 -7 -9 -4 -20 7 -28 -5 -70 -20 -70 -21 0 -67 24 -67 35 0 6
9 20 18 33 16 21 20 22 31 8 8 -9 18 -16 24 -16 5 0 2 9 -9 21 -15 16 -16 24
-6 39 7 11 12 25 12 31 0 6 11 24 25 41 14 16 25 37 25 45 0 12 7 14 32 9 17
-3 33 -8 35 -9z m-752 -7 c-3 -5 -11 -10 -16 -10 -6 0 -7 5 -4 10 3 6 11 10
16 10 6 0 7 -4 4 -10z m-155 -10 c0 -5 -5 -10 -11 -10 -5 0 -7 5 -4 10 3 6 8
10 11 10 2 0 4 -4 4 -10z m196 -5 c-36 -19 -45 -19 -20 0 10 8 26 14 34 15 8
0 2 -7 -14 -15z m109 5 c-3 -5 -1 -10 5 -10 6 0 9 -4 6 -9 -9 -14 18 -31 34
-21 7 4 23 4 36 0 12 -5 24 -7 27 -4 2 3 7 -2 10 -10 4 -11 0 -13 -20 -10 -15
3 -31 8 -36 11 -6 4 -7 -4 -4 -18 5 -21 3 -24 -18 -24 -31 2 -46 15 -17 15 12
0 22 5 22 11 0 6 -9 8 -21 4 -16 -5 -19 -4 -14 5 4 7 2 16 -6 20 -18 12 -46
-27 -30 -43 6 -6 11 -19 11 -28 0 -17 35 -49 53 -49 5 0 6 9 2 19 -7 24 29 39
50 21 26 -22 -2 -45 -65 -55 -3 0 -12 -4 -20 -10 -13 -7 -13 -6 -2 7 10 13 8
18 -12 31 -13 9 -27 25 -31 36 -5 18 -9 17 -58 -12 -29 -18 -73 -48 -98 -67
-26 -19 -55 -40 -65 -46 -16 -9 -17 -14 -6 -26 10 -13 10 -17 -2 -21 -11 -4
-13 -1 -9 10 9 23 -17 12 -39 -18 -47 -63 -30 -157 41 -229 37 -36 58 -49 91
-55 89 -15 146 -52 191 -124 34 -53 36 -61 9 -54 -16 4 -20 0 -20 -18 0 -29
-7 -22 -14 13 -8 47 -39 88 -81 108 -50 24 -80 25 -152 4 -40 -12 -58 -13 -66
-5 -8 8 -4 11 13 12 14 0 50 9 80 19 l55 18 -40 7 c-94 18 -191 70 -175 94 5
9 9 10 14 2 4 -6 21 -18 37 -26 l30 -16 -26 49 c-31 59 -38 114 -21 164 15 43
54 95 79 103 9 4 15 11 12 16 -3 5 0 6 8 3 8 -3 21 3 28 14 8 11 18 21 24 23
5 2 9 11 7 19 -2 12 -1 13 7 1 7 -11 16 -4 40 29 17 24 31 48 31 53 0 6 3 8 6
5 3 -4 -2 -20 -11 -38 l-16 -31 30 15 c35 19 71 62 71 87 0 12 5 16 15 13 11
-5 13 -2 9 10 -3 9 -1 16 6 16 6 0 8 -4 5 -10z m88 -7 c-4 -11 -8 -13 -11 -5
-3 10 -7 10 -18 1 -9 -7 -14 -8 -14 -1 0 11 16 20 37 21 8 1 10 -6 6 -16z
m-339 -18 c11 -8 15 -15 9 -15 -7 0 -14 4 -18 10 -7 11 -55 -8 -55 -22 0 -5
-5 -6 -11 -2 -8 4 -4 13 12 25 29 22 38 23 63 4z m159 -5 c-3 -11 -7 -20 -9
-20 -2 0 -4 9 -4 20 0 11 4 20 9 20 5 0 7 -9 4 -20z m227 4 c0 -8 -4 -12 -10
-9 -5 3 -10 10 -10 16 0 5 5 9 10 9 6 0 10 -7 10 -16z m-340 -4 c0 -5 -4 -10
-10 -10 -5 0 -10 5 -10 10 0 6 5 10 10 10 6 0 10 -4 10 -10z m597 -17 c2 -6
-12 -18 -32 -27 -48 -23 -65 -53 -75 -133 -7 -55 -6 -71 6 -84 9 -10 11 -20 6
-23 -5 -3 -12 -20 -16 -37 -6 -30 -7 -31 -24 -16 -10 10 -28 17 -40 17 -20 0
-62 -35 -62 -52 0 -5 -20 -17 -44 -28 -44 -18 -61 -39 -77 -89 -5 -20 -7 -12
-8 32 -1 44 2 57 14 57 25 0 75 53 77 83 1 15 7 27 12 27 5 0 7 2 4 5 -2 3
-19 0 -36 -6 -33 -11 -40 -26 -22 -47 7 -9 7 -9 -2 -2 -7 6 -21 10 -32 10 -19
1 -19 1 -3 11 20 12 22 25 5 27 -7 1 -27 4 -45 6 -26 5 -39 0 -65 -24 l-32
-30 29 0 c22 0 26 -3 16 -9 -8 -5 -22 -8 -32 -6 -11 2 -20 -4 -24 -16 -4 -10
-11 -19 -16 -19 -13 0 -11 9 7 28 11 10 13 17 5 20 -16 5 -14 23 3 20 8 -2 15
1 15 6 -1 5 11 16 25 26 15 9 24 19 20 22 -3 3 8 5 25 4 21 -1 31 2 31 12 0
11 3 10 16 -2 21 -21 22 -20 16 9 -4 23 -2 24 19 17 13 -5 25 -14 27 -20 2 -7
-3 -10 -12 -6 -11 4 -16 1 -16 -10 0 -12 7 -16 28 -13 16 3 26 10 24 18 -3 11
-1 12 9 2 19 -19 38 -16 36 7 -1 15 -6 18 -24 14 -18 -5 -23 -2 -23 14 0 11
-3 27 -6 36 -3 9 -1 16 5 16 6 0 11 -9 11 -19 0 -11 5 -23 10 -26 7 -4 8 3 4
22 -4 15 -7 30 -6 33 0 24 6 24 35 -3 30 -29 86 -67 97 -67 3 0 4 19 2 43 -3
34 -12 49 -43 78 -21 20 -39 42 -39 47 0 6 17 23 38 37 33 23 44 25 107 22 38
-3 71 -9 72 -14z m-742 -3 c-3 -5 -11 -10 -16 -10 -6 0 -7 5 -4 10 3 6 11 10
16 10 6 0 7 -4 4 -10z m90 -10 c3 -5 -1 -10 -9 -10 -8 0 -18 -5 -22 -11 -10
-17 17 -38 53 -41 44 -3 30 -18 -17 -18 -32 0 -39 4 -42 22 -2 14 -11 24 -23
26 -42 7 -51 12 -35 22 9 5 17 5 20 0 7 -11 50 -1 50 11 0 12 17 11 25 -1z
m31 -19 c0 -11 -5 -17 -13 -14 -10 4 -11 9 -2 19 15 18 15 18 15 -5z m39 -19
c-22 -5 -29 3 -21 25 7 17 8 17 22 -2 13 -18 13 -20 -1 -23z m-175 -12 c0 -5
-7 -10 -16 -10 -8 0 -12 5 -9 10 3 6 10 10 16 10 5 0 9 -4 9 -10z m48 -25 c-3
-3 -9 2 -12 12 -6 14 -5 15 5 6 7 -7 10 -15 7 -18z m-48 -9 c0 -8 -7 -16 -15
-20 -12 -4 -13 -2 -2 14 14 24 17 25 17 6z m331 -19 c-6 -6 -19 -12 -28 -13
-17 -3 -17 -2 -1 10 10 7 15 16 11 20 -4 4 1 4 10 0 13 -5 15 -10 8 -17z
m-208 -7 c3 -13 0 -20 -10 -20 -8 0 -11 5 -8 10 3 6 0 10 -7 10 -9 0 -9 3 2
10 8 5 16 10 16 10 1 0 4 -9 7 -20z m-173 0 c0 -5 -7 -10 -16 -10 -8 0 -12 5
-9 10 3 6 10 10 16 10 5 0 9 -4 9 -10z m108 -2 c15 -15 16 -42 2 -33 -6 4 -8
10 -5 15 3 5 1 11 -5 15 -5 3 -10 1 -10 -4 0 -6 -4 -11 -10 -11 -5 0 -7 7 -4
15 7 18 16 19 32 3z m192 -20 c-13 -5 -25 -6 -29 -3 -9 10 21 24 37 17 12 -4
10 -7 -8 -14z m-370 -142 c7 -7 10 2 10 22 0 34 31 105 51 118 6 3 3 -5 -6
-20 -10 -15 -16 -28 -14 -31 9 -8 69 37 69 52 0 8 4 12 10 8 17 -11 -2 -36
-44 -57 -22 -11 -44 -26 -48 -32 -16 -24 -8 -121 12 -154 22 -35 25 -52 11
-52 -5 0 -23 27 -39 60 -33 65 -50 170 -36 217 7 22 10 13 12 -47 2 -41 7 -79
12 -84z m464 128 c3 -9 2 -12 -5 -9 -5 4 -16 1 -24 -5 -8 -6 -19 -9 -24 -6 -5
4 -12 2 -16 -3 -3 -6 -13 -7 -21 -4 -13 5 -15 1 -9 -18 4 -13 4 -21 0 -17 -5
4 -14 3 -21 -3 -7 -6 -33 -17 -56 -24 l-43 -13 46 -7 c29 -4 55 -3 68 4 11 7
21 8 21 2 0 -15 -50 -22 -107 -15 -52 6 -54 5 -88 -31 -19 -20 -35 -31 -35
-25 0 24 67 78 111 89 63 16 91 30 84 40 -3 5 1 16 9 24 8 8 12 17 9 21 -4 3
-1 6 5 6 7 0 12 -8 13 -17 0 -15 2 -15 7 -3 4 8 13 16 20 18 8 1 11 -2 7 -8
-10 -16 11 -12 25 5 15 19 16 19 24 -1z m64 -6 c-2 -8 7 -12 24 -10 22 3 27 0
22 -12 -7 -18 -22 -20 -44 -6 -9 5 -19 5 -27 -2 -9 -7 -13 -7 -13 1 0 6 5 11
11 11 5 0 8 4 5 9 -5 8 2 14 22 20 1 1 1 -5 0 -11z m-368 -8 c0 -5 -2 -10 -4
-10 -3 0 -8 5 -11 10 -3 6 -1 10 4 10 6 0 11 -4 11 -10z m154 -5 c-4 -8 -11
-12 -16 -9 -6 4 -5 10 3 15 19 12 19 11 13 -6z m1026 -14 c0 -5 -6 -14 -14
-20 -10 -9 -16 -8 -25 3 -10 11 -8 15 6 19 29 8 33 7 33 -2z m-1080 -11 c0 -5
-2 -10 -4 -10 -3 0 -8 5 -11 10 -3 6 -1 10 4 10 6 0 11 -4 11 -10z m220 -11
c0 -5 -3 -9 -7 -10 -5 0 -20 -3 -35 -5 -17 -3 -28 0 -28 7 0 6 7 9 15 5 9 -3
15 0 15 8 0 9 7 12 20 9 11 -3 20 -9 20 -14z m804 3 c3 -5 -1 -9 -9 -9 -8 0
-12 4 -9 9 3 4 7 8 9 8 2 0 6 -4 9 -8z m-1154 -6 c0 -2 -7 -6 -15 -10 -8 -3
-15 -1 -15 4 0 6 7 10 15 10 8 0 15 -2 15 -4z m-10 -40 c0 -2 -7 -7 -16 -10
-8 -3 -12 -2 -9 4 6 10 25 14 25 6z m1697 -2 c-3 -3 -12 -4 -19 -1 -8 3 -5 6
6 6 11 1 17 -2 13 -5z m-183 -14 c15 5 35 10 44 10 14 -1 14 -2 -3 -12 -11 -6
-26 -18 -32 -26 -8 -10 -13 -11 -13 -4 0 15 -27 16 -36 1 -3 -6 -1 -15 6 -19
9 -6 5 -17 -17 -41 -17 -19 -43 -49 -59 -67 l-30 -34 -24 20 c-27 22 -30 14
40 100 19 23 38 42 43 42 4 0 5 -4 2 -10 -3 -6 1 -7 9 -4 9 3 13 10 10 16 -3
5 -3 16 0 25 5 12 9 13 20 4 10 -8 21 -8 40 -1z m-809 -20 c16 -17 16 -20 3
-15 -9 4 -19 13 -22 21 -7 19 -2 18 19 -6z m-357 -8 c2 -6 -6 -10 -16 -9 -12
1 -18 6 -15 14 6 16 25 13 31 -5z m127 8 c-3 -5 -14 -10 -23 -10 -15 0 -15 2
-2 10 20 13 33 13 25 0z m125 -39 c0 -5 -15 -18 -33 -28 -28 -17 -35 -30 -49
-87 -9 -37 -15 -73 -12 -80 3 -7 -2 -18 -10 -25 -12 -10 -13 -7 -5 26 5 21 9
57 9 80 0 23 6 48 13 55 7 7 20 25 30 41 16 25 57 38 57 18z m-230 -13 c0 -4
-9 -8 -20 -8 -20 0 -28 -15 -11 -22 4 -1 5 -12 0 -23 -7 -19 -8 -19 -8 2 -1
16 -6 21 -16 17 -20 -8 -19 2 3 25 17 18 52 24 52 9z m-80 -8 c0 -5 -5 -10
-11 -10 -5 0 -7 5 -4 10 3 6 8 10 11 10 2 0 4 -4 4 -10z m-310 -44 c0 -2 -7
-6 -15 -10 -8 -3 -15 -1 -15 4 0 6 7 10 15 10 8 0 15 -2 15 -4z m727 -53 c-3
-10 -5 -2 -5 17 0 19 2 27 5 18 2 -10 2 -26 0 -35z m-907 7 c10 0 22 -5 26
-12 4 -7 3 -8 -5 -4 -7 4 -28 0 -47 -9 -31 -14 -36 -15 -50 -1 -14 14 -12 15
14 10 18 -4 32 -1 37 6 5 9 1 10 -16 5 -19 -5 -21 -4 -9 4 8 6 11 11 7 11 -5
0 -5 5 -1 11 5 8 10 6 16 -5 5 -9 18 -16 28 -16z m105 -16 c0 -12 7 -19 19
-19 11 0 21 -6 24 -13 3 -9 -3 -13 -19 -10 -16 2 -24 -2 -25 -12 -1 -22 16
-51 26 -45 5 3 11 1 14 -4 4 -5 -2 -8 -11 -6 -10 2 -23 4 -29 4 -16 1 -26 43
-14 55 15 15 12 21 -14 22 -18 1 -23 -2 -19 -14 5 -12 2 -14 -12 -8 -11 4 -22
2 -27 -6 -5 -9 -7 -4 -6 12 2 16 -2 24 -9 23 -7 -2 -13 2 -13 7 0 14 11 12 31
-6 16 -14 19 -13 40 15 25 34 44 36 44 5z m55 13 c0 -7 -9 -13 -19 -13 -15 0
-17 3 -9 13 6 7 14 13 19 13 5 0 9 -6 9 -13z m1340 -2 c0 -8 -4 -15 -10 -15
-5 0 -10 7 -10 15 0 8 5 15 10 15 6 0 10 -7 10 -15z m44 -11 c20 -8 20 -20 0
-28 -8 -3 -12 -2 -9 4 3 6 -1 10 -10 10 -11 0 -15 -5 -11 -15 4 -10 -1 -15
-15 -15 -20 0 -19 8 4 38 11 14 18 15 41 6z m-1644 -54 c0 -13 -28 -25 -38
-16 -3 4 0 11 8 16 20 13 30 12 30 0z m54 -2 c-5 -8 -2 -9 11 -4 11 4 25 0 37
-11 22 -20 27 -20 38 -3 5 8 11 6 20 -5 11 -13 10 -15 -4 -9 -9 3 -16 1 -16
-5 0 -11 -31 -3 -41 11 -3 4 -24 9 -47 10 -45 1 -56 14 -19 21 12 2 23 5 25 6
2 0 0 -4 -4 -11z m633 -50 c-2 -13 -4 -3 -4 22 0 25 2 35 4 23 2 -13 2 -33 0
-45z m-444 39 c-4 -7 1 -8 13 -3 15 6 17 5 6 -5 -10 -11 -15 -10 -28 2 -13 14
-13 16 0 16 8 0 12 -5 9 -10z m2077 3 c0 -5 -2 -10 -4 -10 -3 0 -8 5 -11 10
-3 6 -1 10 4 10 6 0 11 -4 11 -10z m50 6 c0 -2 -7 -7 -16 -10 -8 -3 -12 -2 -9
4 6 10 25 14 25 6z m-385 -26 c3 -6 -1 -7 -9 -4 -18 7 -21 14 -7 14 6 0 13 -4
16 -10z m324 -80 c0 -11 -2 -11 -6 -2 -3 9 -9 10 -17 3 -7 -6 -17 -6 -26 0
-12 7 -13 11 -2 18 8 4 13 11 13 15 -1 3 2 18 5 32 7 26 7 25 20 -12 8 -22 13
-46 13 -54z m11 76 c0 -3 -4 -8 -10 -11 -5 -3 -10 -1 -10 4 0 6 5 11 10 11 6
0 10 -2 10 -4z m51 -80 c-8 -20 -8 -20 -22 4 -14 27 -13 47 4 69 9 11 13 7 18
-19 4 -18 4 -42 0 -54z m-2371 58 c0 -2 -7 -4 -15 -4 -8 0 -15 4 -15 10 0 5 7
7 15 4 8 -4 15 -8 15 -10z m82 -5 c-26 -10 -30 -31 -5 -27 10 2 19 -4 21 -14
2 -12 -3 -18 -13 -18 -15 0 -15 3 -5 15 11 13 10 14 -4 9 -24 -9 -33 24 -10
41 10 7 23 11 28 7 5 -3 0 -9 -12 -13z m1873 11 c-3 -5 -11 -10 -16 -10 -6 0
-7 5 -4 10 3 6 11 10 16 10 6 0 7 -4 4 -10z m92 4 c-3 -3 -12 -4 -19 -1 -8 3
-5 6 6 6 11 1 17 -2 13 -5z m66 -1 c-7 -2 -21 -2 -30 0 -10 3 -4 5 12 5 17 0
24 -2 18 -5z m-2077 -28 c-3 -21 -13 -28 -27 -19 -9 5 -7 11 6 21 23 16 24 16
21 -2z m134 5 c12 -8 10 -10 -10 -10 -14 0 -20 -3 -14 -8 14 -9 4 -36 -16 -40
-12 -3 -13 -1 -2 9 16 17 15 29 -3 29 -8 0 -15 4 -15 10 0 5 7 7 15 4 8 -4 15
-1 15 5 0 13 10 14 30 1z m85 -20 c13 -5 14 -9 5 -9 -8 0 -24 4 -35 9 -13 5
-14 9 -5 9 8 0 24 -4 35 -9z m-65 -10 c-11 -7 -11 -10 -2 -10 7 0 10 -5 6 -11
-4 -8 -9 -7 -15 2 -9 15 -3 29 14 29 7 0 6 -4 -3 -10z m2039 -12 c-7 -12 -5
-27 5 -46 13 -26 13 -29 -5 -40 -16 -10 -19 -9 -19 7 0 11 -4 22 -10 26 -10 6
-2 36 14 48 7 5 6 10 -4 17 -12 7 -10 9 7 7 17 -1 20 -5 12 -19z m-2154 -26
c-6 -7 -34 11 -29 19 3 5 11 3 19 -4 7 -6 12 -13 10 -15z m2246 -5 c-10 -9
-11 -8 -5 6 3 10 9 15 12 12 3 -3 0 -11 -7 -18z m-2281 -23 c0 -2 -7 -4 -15
-4 -8 0 -15 4 -15 10 0 5 7 7 15 4 8 -4 15 -8 15 -10z m105 -3 c3 -5 1 -12 -4
-15 -5 -3 -11 1 -15 9 -6 16 9 21 19 6z m90 -54 c2 -26 -1 -35 -8 -31 -8 4 -7
2 1 -7 6 -7 12 -17 12 -21 0 -13 -30 -9 -32 5 -4 35 -2 43 10 56 12 13 12 16
-2 26 -9 7 -16 18 -16 26 0 30 31 -19 35 -54z m2045 -27 c-4 -30 -8 -49 -9
-41 0 7 -7 11 -16 8 -14 -6 -28 7 -31 31 -3 15 8 16 22 2 7 -7 14 2 23 26 17
47 19 41 11 -26z m-2075 40 c-3 -5 -10 -10 -16 -10 -5 0 -9 5 -9 10 0 6 7 10
16 10 8 0 12 -4 9 -10z m2123 -56 c-2 -1 -9 1 -16 5 -9 5 -11 17 -6 37 l8 29
8 -34 c5 -18 8 -35 6 -37z m-273 25 c4 -10 12 -19 19 -19 23 0 41 -29 28 -42
-9 -9 -12 -9 -12 0 0 7 -5 12 -11 12 -7 0 -18 8 -25 18 -12 16 -13 16 -8 -3 2
-11 0 -26 -5 -34 -8 -12 -12 -12 -25 -2 -11 10 -13 19 -5 38 5 15 8 32 5 39
-2 7 -2 14 1 17 9 10 32 -4 38 -24z m-355 1 c8 -5 11 -10 5 -10 -5 0 -17 5
-25 10 -8 5 -10 10 -5 10 6 0 17 -5 25 -10z m85 -20 c14 -7 8 -8 -20 -3 -22 3
-42 7 -44 9 -9 8 45 2 64 -6z m397 -57 c7 -10 20 -19 28 -21 23 -5 31 -17 24
-35 -7 -19 -24 -23 -24 -6 0 6 -7 9 -15 5 -10 -3 -15 1 -15 12 -1 16 -1 16
-11 0 -5 -10 -19 -18 -29 -18 -24 0 -25 6 -5 27 9 9 13 23 10 34 -8 25 19 26
37 2z m-1707 -44 c11 -16 1 -19 -13 -3 -7 8 -8 14 -3 14 5 0 13 -5 16 -11z m5
-80 c0 -6 -4 -7 -10 -4 -5 3 -10 1 -10 -6 0 -7 -2 -10 -5 -7 -9 8 6 38 16 32
5 -3 9 -10 9 -15z m380 -13 c0 -3 -14 -15 -31 -27 -30 -21 -31 -21 -20 -1 10
19 25 29 44 31 4 1 7 -1 7 -3z m-340 -35 c0 -4 -6 -8 -12 -8 -7 0 -22 -4 -33
-8 l-20 -8 20 20 c18 19 45 21 45 4z m-267 -76 c20 -8 39 -20 43 -27 6 -10 4
-11 -7 0 -7 6 -20 12 -28 12 -9 0 -25 7 -35 15 -25 19 -18 19 27 0z m522 -5
c-27 -12 -43 -12 -25 0 8 5 22 9 30 9 10 0 8 -3 -5 -9z m-633 -45 c3 -13 1
-22 -3 -19 -9 5 -13 44 -5 44 2 0 6 -11 8 -25z m2050 -20 c9 -20 9 -20 -6 -1
-9 11 -16 27 -15 35 0 14 1 14 6 1 3 -8 10 -24 15 -35z m-1501 21 c-12 -15
-60 -30 -68 -22 -6 6 48 35 66 36 10 0 11 -3 2 -14z m-138 -46 c-29 -10 -80
-40 -113 -65 -33 -25 -60 -43 -60 -40 0 47 123 123 200 123 17 0 7 -6 -27 -18z
m1697 0 c0 -5 -2 -10 -4 -10 -3 0 -8 5 -11 10 -3 6 -1 10 4 10 6 0 11 -4 11
-10z m-1499 -63 c16 -20 18 -20 42 -4 36 23 46 21 19 -3 -22 -21 -21 -29 5
-80 19 -37 5 -39 -25 -2 -33 39 -52 40 -100 5 -46 -33 -62 -52 -62 -72 0 -11
3 -12 8 -5 12 19 48 26 59 12 6 -7 20 -46 32 -87 19 -68 28 -85 55 -94 5 -1 9
-15 9 -29 0 -15 8 -35 19 -45 20 -18 20 -18 -4 -24 -29 -7 -64 10 -102 50 -16
17 -33 28 -37 25 -5 -2 -27 5 -50 17 -31 16 -54 20 -86 16 -27 -3 -46 0 -51 7
-4 6 -19 19 -34 29 -23 14 -28 25 -28 56 0 31 7 45 44 82 24 24 67 57 96 73
53 29 60 28 73 -9 2 -5 16 -2 30 8 26 17 26 18 11 42 -10 15 -12 25 -5 25 18
0 12 20 -6 20 -11 1 -5 8 17 20 31 17 36 17 45 3 6 -8 17 -25 26 -36z m1519
33 c0 -5 -2 -10 -4 -10 -3 0 -8 5 -11 10 -3 6 -1 10 4 10 6 0 11 -4 11 -10z
m7 -56 c1 -20 0 -22 -4 -6 -2 12 -9 22 -14 22 -5 0 -9 5 -9 11 0 25 25 0 27
-27z m-668 12 c32 -17 59 -46 42 -46 -6 0 -11 -8 -11 -19 0 -15 -8 -11 -42 20
-24 22 -47 39 -53 40 -8 0 18 15 33 18 2 1 15 -5 31 -13z m-999 -6 c0 -5 -5
-10 -10 -10 -6 0 -30 -9 -52 -20 -49 -23 -58 -25 -58 -7 0 6 21 19 48 28 57
20 72 22 72 9z m957 -30 c31 -18 66 -62 69 -84 3 -25 17 -56 25 -56 5 0 8 -26
7 -57 -3 -49 -6 -58 -23 -61 -37 -5 -57 21 -66 83 -10 75 -25 109 -55 125 -26
14 -31 39 -12 58 16 16 17 15 55 -8z m-1092 -12 c-1 -13 -6 -23 -11 -23 -5 0
-15 -4 -21 -8 -7 -5 -13 -6 -13 -3 0 5 41 56 45 56 1 0 1 -10 0 -22z m393
-290 c-2 -7 8 -13 22 -13 45 -3 131 -17 127 -22 -9 -8 -148 -12 -143 -4 3 5
-1 14 -9 21 -8 7 -12 16 -9 21 8 13 14 11 12 -3z m189 -24 c-3 -3 -12 -4 -19
-1 -8 3 -5 6 6 6 11 1 17 -2 13 -5z m221 -36 c5 -18 8 -34 7 -36 -1 -1 -14 2
-29 7 -17 7 -26 7 -26 1 0 -6 -13 -10 -30 -10 -20 0 -30 5 -30 15 0 25 38 55
70 55 25 0 31 -5 38 -32z m-998 1 c0 -5 -4 -9 -10 -9 -5 0 -10 7 -10 16 0 8 5
12 10 9 6 -3 10 -10 10 -16z"/>
<path d="M1787 1983 c-13 -12 -7 -24 11 -21 9 2 22 -2 27 -9 11 -14 95 -35 95
-24 0 13 -47 34 -59 27 -7 -4 -9 -1 -5 7 3 8 1 18 -5 22 -6 3 -11 1 -11 -6 0
-10 -3 -10 -12 -1 -13 13 -31 16 -41 5z"/>
<path d="M1720 2160 c0 -5 5 -10 11 -10 5 0 7 5 4 10 -3 6 -8 10 -11 10 -2 0
-4 -4 -4 -10z"/>
<path d="M1096 2051 c-4 -7 -5 -15 -2 -18 9 -9 19 4 14 18 -4 11 -6 11 -12 0z"/>
<path d="M2477 2093 c-13 -13 -7 -21 13 -16 11 3 20 9 20 14 0 10 -24 12 -33
2z"/>
<path d="M1008 1431 c-40 -35 -31 -52 10 -22 17 12 40 21 51 21 25 0 28 15 5
24 -25 10 -32 7 -66 -23z"/>
<path d="M350 1239 c0 -5 5 -7 10 -4 6 3 10 8 10 11 0 2 -4 4 -10 4 -5 0 -10
-5 -10 -11z"/>
<path d="M779 263 c-13 -16 -12 -17 4 -4 16 13 21 21 13 21 -2 0 -10 -8 -17
-17z"/>
<path d="M782 231 c-10 -6 -10 -10 2 -20 12 -10 15 -9 13 8 -1 12 -1 21 -2 21
0 0 -6 -4 -13 -9z"/>
<path d="M1498 2593 c7 -3 16 -2 19 1 4 3 -2 6 -13 5 -11 0 -14 -3 -6 -6z"/>
<path d="M1675 1440 c-18 -20 -59 -130 -51 -138 6 -5 36 65 36 82 0 6 9 26 20
44 22 37 21 41 -5 12z"/>
<path d="M1533 1376 c12 -18 24 -29 25 -24 5 11 -26 58 -38 58 -5 0 1 -15 13
-34z"/>
<path d="M1479 1332 c6 -11 11 -49 12 -84 l1 -63 14 53 c12 44 12 58 2 79 -7
15 -19 29 -26 31 -11 3 -12 0 -3 -16z"/>
<path d="M1606 1151 c-22 -23 -38 -43 -35 -45 8 -8 82 61 78 73 -3 7 -21 -6
-43 -28z"/>
<path d="M1370 1156 c0 -17 46 -63 72 -72 29 -9 35 4 7 15 -14 5 -31 20 -38
34 -16 29 -41 43 -41 23z"/>
<path d="M2568 973 c6 -2 18 -2 25 0 6 3 1 5 -13 5 -14 0 -19 -2 -12 -5z"/>
<path d="M2527 963 c-4 -3 -7 -11 -7 -17 0 -6 5 -5 12 2 6 6 9 14 7 17 -3 3
-9 2 -12 -2z"/>
<path d="M1480 819 c0 -5 5 -7 10 -4 6 3 10 8 10 11 0 2 -4 4 -10 4 -5 0 -10
-5 -10 -11z"/>
<path d="M2045 810 c10 -11 20 -20 23 -20 3 0 -3 9 -13 20 -10 11 -20 20 -23
20 -3 0 3 -9 13 -20z"/>
<path d="M1670 781 c0 -12 63 -19 235 -27 125 -6 147 -5 143 7 -3 9 -27 16
-69 20 -98 10 -309 10 -309 0z"/>
<path d="M1557 756 c10 -13 19 -23 21 -21 5 5 -22 45 -31 45 -4 0 0 -11 10
-24z"/>
<path d="M1631 766 c-10 -12 -8 -13 8 -9 12 3 21 9 21 14 0 14 -16 11 -29 -5z"/>
<path d="M2120 750 c0 -5 5 -10 11 -10 5 0 7 5 4 10 -3 6 -8 10 -11 10 -2 0
-4 -4 -4 -10z"/>
<path d="M1453 740 c-13 -6 -23 -18 -23 -30 0 -30 24 -24 37 10 6 17 11 30 10
29 -1 0 -12 -4 -24 -9z"/>
<path d="M1960 720 c0 -5 5 -10 10 -10 6 0 10 5 10 10 0 6 -4 10 -10 10 -5 0
-10 -4 -10 -10z"/>
<path d="M2110 722 c0 -6 5 -14 11 -17 6 -4 8 -13 5 -21 -3 -8 0 -11 10 -7 13
5 12 8 -3 27 -10 11 -19 23 -20 25 -2 2 -3 -1 -3 -7z"/>
<path d="M1284 684 c5 -14 4 -15 -8 -5 -11 9 -23 8 -55 -5 -23 -9 -40 -18 -37
-21 7 -7 166 20 166 28 0 9 -26 19 -52 19 -15 0 -18 -5 -14 -16z"/>
<path d="M1150 650 c0 -5 5 -10 11 -10 5 0 7 5 4 10 -3 6 -8 10 -11 10 -2 0
-4 -4 -4 -10z"/>
<path d="M2526 602 c-3 -6 -1 -14 5 -17 15 -10 25 3 12 16 -7 7 -13 7 -17 1z"/>
<path d="M2268 585 c7 -14 7 -27 1 -38 -6 -9 -7 -22 -4 -27 3 -6 1 -10 -5 -10
-6 0 -8 -4 -5 -10 11 -17 22 -11 22 13 0 12 3 30 8 40 5 13 2 24 -10 35 -16
16 -17 16 -7 -3z"/>
<path d="M2170 442 c0 -4 9 -15 20 -25 14 -11 20 -13 20 -4 0 7 -9 18 -20 25
-11 7 -20 9 -20 4z"/>
<path d="M1875 430 c-3 -5 -1 -10 4 -10 6 0 11 5 11 10 0 6 -2 10 -4 10 -3 0
-8 -4 -11 -10z"/>
<path d="M2367 421 c-3 -14 0 -17 14 -14 15 4 17 8 8 19 -15 18 -16 18 -22 -5z"/>
<path d="M2242 410 c0 -14 2 -19 5 -12 2 6 2 18 0 25 -3 6 -5 1 -5 -13z"/>
<path d="M2385 390 c-3 -5 -2 -10 4 -10 5 0 13 5 16 10 3 6 2 10 -4 10 -5 0
-13 -4 -16 -10z"/>
<path d="M2590 360 c0 -22 -4 -40 -9 -40 -10 0 -2 -48 10 -56 5 -3 9 27 9 65
0 39 -2 71 -5 71 -3 0 -5 -18 -5 -40z"/>
<path d="M2437 333 c-4 -3 -7 -11 -7 -17 0 -6 5 -5 12 2 6 6 9 14 7 17 -3 3
-9 2 -12 -2z"/>
<path d="M2455 260 c3 -5 8 -10 11 -10 2 0 4 5 4 10 0 6 -5 10 -11 10 -5 0 -7
-4 -4 -10z"/>
<path d="M2461 174 c0 -11 3 -14 6 -6 3 7 2 16 -1 19 -3 4 -6 -2 -5 -13z"/>
<path d="M2560 152 c-19 -18 -46 -36 -60 -39 -14 -3 -41 -17 -60 -30 -35 -23
-66 -31 -55 -13 3 5 -3 20 -14 32 -25 26 -26 37 -5 52 13 10 13 12 -6 13 -11
1 -19 -1 -16 -5 2 -4 -2 -13 -10 -20 -11 -10 -14 -10 -14 2 0 9 -7 12 -21 9
-14 -4 -18 -10 -13 -22 4 -9 9 -32 10 -51 l4 -35 -14 29 c-13 29 -13 29 -25 7
-7 -12 -9 -32 -5 -44 6 -19 5 -20 -10 -8 -14 12 -16 11 -16 -8 0 -21 3 -22
145 -20 112 0 145 4 145 14 0 7 16 20 36 30 42 20 46 28 42 91 l-3 49 -35 -33z
m-225 -64 c-3 -13 -9 -33 -12 -45 -6 -25 -39 -37 -47 -17 -3 8 0 11 9 8 15 -6
35 25 35 55 0 12 5 21 11 21 7 0 9 -8 4 -22z m25 -38 c0 -5 -4 -10 -10 -10 -5
0 -10 5 -10 10 0 6 5 10 10 10 6 0 10 -4 10 -10z"/>
<path d="M2180 161 c0 -6 4 -13 10 -16 6 -3 7 1 4 9 -7 18 -14 21 -14 7z"/>
<path d="M530 14 l-35 -12 37 -1 c20 -1 39 3 43 8 10 17 -9 19 -45 5z"/>
</g>
</svg>
