<svg xmlns="http://www.w3.org/2000/svg" viewBox="0 0 130.66 12.43"><defs><style>.cls-1{fill:#63bcba;}</style></defs><title>logo_air_libre</title><g id="Calque_2" data-name="Calque 2"><g id="Calque_1-2" data-name="Calque 1"><path class="cls-1" d="M8.19,9.33h-5L2,12.43H0L4.64,0H6.71l4.68,12.41h-2ZM3.83,7.62H7.54L5.69,2.42Z"/><path class="cls-1" d="M17.8,0h1.91V12.43H17.8Z"/><path class="cls-1" d="M36.3,12.43H34l-3.1-4.56H29.55v4.56H27.62V0h4.84a3.63,3.63,0,0,1,3.79,3.46,3.85,3.85,0,0,1,0,.48A3.54,3.54,0,0,1,33,7.79h0ZM29.55,1.78V6.12h2.77a1.94,1.94,0,0,0,1.93-1.95,1.48,1.48,0,0,0,0-.21,1.94,1.94,0,0,0-1.68-2.17h-3Z"/><path class="cls-1" d="M43.5,0H51V1.78H45.41V5.46h4.83V7.2H45.38v3.48h5.74v1.75H43.47Z"/><path class="cls-1" d="M67.64,0h1.91V10.68h5v1.75H67.64Z"/><path class="cls-1" d="M81.3,0h1.94V12.43H81.33Z"/><path class="cls-1" d="M97.72,5.82a3.08,3.08,0,0,1,2.27,3,3.54,3.54,0,0,1-3.46,3.61H91.11V0h4.75a3.13,3.13,0,0,1,3.43,2.8,3.85,3.85,0,0,1,0,.48A2.56,2.56,0,0,1,97.72,5.82Zm-1.91-.7a1.57,1.57,0,0,0,1.54-1.6.76.76,0,0,0,0-.15A1.5,1.5,0,0,0,96,1.76a1.22,1.22,0,0,0-.27,0H93.05V5.12ZM93.06,6.76v3.93h3.12A1.83,1.83,0,0,0,98,8.85V8.78a2,2,0,0,0-1.87-2Z"/><path class="cls-1" d="M115.81,12.43h-2.32l-3.1-4.56h-1.33v4.56h-1.93V0H112a3.63,3.63,0,0,1,3.79,3.46,3.85,3.85,0,0,1,0,.48,3.54,3.54,0,0,1-3.2,3.83h0ZM109.06,1.78V6.12h2.77a1.94,1.94,0,0,0,2-1.93,1.69,1.69,0,0,0,0-.23,1.94,1.94,0,0,0-1.68-2.17h-3Z"/><path class="cls-1" d="M123,0h7.47V1.78h-5.56V5.46h4.86V7.2h-4.86v3.48h5.74v1.75H123Z"/></g></g></svg>