<?xml version="1.0" encoding="utf-8"?>
<!-- Generator: Adobe Illustrator 22.0.1, SVG Export Plug-In . SVG Version: 6.00 Build 0)  -->
<svg version="1.1" id="Calque_1" xmlns="http://www.w3.org/2000/svg" xmlns:xlink="http://www.w3.org/1999/xlink" x="0px" y="0px"
	 viewBox="0 0 191.1 58" style="enable-background:new 0 0 191.1 58;" xml:space="preserve">
<style type="text/css">
	.st0{fill:#FFFFFF;}
	.st1{fill:#F73A08;}
	.st2{fill:#FEFDFD;}
</style>
<title>home_logo_france_inter</title>
<g id="Calque_2_1_">
	<g id="Calque_1-2">
		<rect x="136.5" y="21" class="st0" width="53.3" height="26.5"/>
		<path class="st0" d="M34.4,36c0.5-0.8,1.4-1.2,2.3-1.2c2,0,3.6,1.6,3.6,3.6c0,2-1.6,3.6-3.6,3.6c-0.9,0.1-1.8-0.3-2.3-1.1v4.4
			h-1.5V35h1.5V36z M36.5,40.6c1.1,0,2.1-0.8,2.1-1.9c0-0.1,0-0.1,0-0.2c0-1.2-1-2.1-2.1-2.1c-1.2,0-2.1,1-2.1,2.1
			C34.4,39.6,35.3,40.6,36.5,40.6C36.5,40.6,36.5,40.6,36.5,40.6z"/>
		<path class="st0" d="M47.7,41c-0.6,0.7-1.4,1.1-2.3,1.1c-2,0-3.6-1.6-3.6-3.6c0-2,1.6-3.6,3.6-3.6c0.9,0,1.8,0.4,2.3,1.2V35h1.5v7
			h-1.5V41z M45.6,40.6c1.2,0.1,2.2-0.8,2.3-2s-0.8-2.2-2-2.3c-0.1,0-0.2,0-0.3,0c-1.1,0-2.1,0.9-2.1,2v0.1
			C43.5,39.6,44.4,40.6,45.6,40.6L45.6,40.6z"/>
		<path class="st0" d="M53.4,41.9h-1.5V35h1.5v1.6c0.4-1.3,1.1-1.7,1.9-1.7c0.4,0,0.9,0.1,1.3,0.3l-0.3,1.4
			c-0.3-0.2-0.7-0.3-1.1-0.3c-1.3,0-1.9,1.3-1.9,3.2L53.4,41.9z"/>
		<path class="st0" d="M60.3,35h1.5v1.3h-1.5V42h-1.5v-5.7h-1.3V35h1.3v-2.7h1.5L60.3,35z"/>
		<path class="st0" d="M70.2,39h-5.5c0.1,1,1.1,1.8,2.1,1.7c0.8,0,1.5-0.4,1.9-1l1.3,0.6c-1,1.7-3.2,2.3-5,1.3c-1.7-1-2.3-3.2-1.3-5
			c0.6-1.1,1.8-1.8,3.1-1.8c1.9-0.1,3.4,1.4,3.5,3.3c0,0.1,0,0.2,0,0.3C70.2,38.6,70.2,38.8,70.2,39z M68.7,37.8c-0.1-1-1-1.8-2-1.7
			c-1-0.1-1.9,0.7-2.1,1.7H68.7z"/>
		<path class="st0" d="M73.8,41.9h-1.5V35h1.5v1.1c0.4-0.7,1.3-1.2,2.1-1.2c1.7,0,2.7,1.1,2.7,3.1V42h-1.5V38c0-1.1-0.6-1.7-1.5-1.7
			c-0.9-0.1-1.7,0.6-1.8,1.5c0,0,0,0,0,0c0,0.1,0,0.2,0,0.3L73.8,41.9z"/>
		<path class="st0" d="M86.5,41c-0.6,0.7-1.4,1.1-2.3,1.1c-2,0-3.6-1.6-3.6-3.6c0-2,1.6-3.6,3.6-3.6c0.9,0,1.8,0.4,2.3,1.1v-1h1.5v7
			h-1.5V41z M84.4,40.6c1.2,0.1,2.2-0.8,2.3-2c0.1-1.2-0.8-2.2-2-2.3c-0.1,0-0.2,0-0.3,0c-1.2-0.1-2.2,0.8-2.3,1.9
			c-0.1,1.2,0.8,2.2,1.9,2.3C84.2,40.6,84.3,40.6,84.4,40.6L84.4,40.6z"/>
		<path class="st0" d="M92.2,41.9h-1.5V35h1.5v1.6c0.4-1.3,1.1-1.7,1.9-1.7c0.4,0,0.9,0.1,1.3,0.3l-0.3,1.4
			c-0.3-0.2-0.7-0.2-1.1-0.2c-1.3,0-1.9,1.3-1.9,3.2L92.2,41.9z"/>
		<path class="st0" d="M97.7,31.2c0.5,0,1,0.4,1,1c0,0.5-0.4,1-1,1l0,0l0,0c-0.5,0-1-0.4-1-1C96.8,31.6,97.2,31.2,97.7,31.2z
			 M98.5,35H97v7h1.5L98.5,35z"/>
		<path class="st0" d="M106.6,41c-0.6,0.7-1.4,1.1-2.3,1.1c-2,0-3.6-1.6-3.6-3.6c0-2,1.6-3.6,3.6-3.6l0,0c0.9,0,1.8,0.4,2.3,1.1v-1
			h1.5v7h-1.5V41z M104.5,40.6c1.2,0,2.1-1,2.1-2.1c0-1.2-1-2.1-2.1-2.1c-1.2,0-2.1,1-2.1,2.1v0C102.3,39.7,103.3,40.6,104.5,40.6
			C104.4,40.6,104.4,40.6,104.5,40.6z"/>
		<path class="st0" d="M112.8,35h1.5v1.3h-1.5V42h-1.5v-5.7H110V35h1.3v-2.7h1.5V35z"/>
		<g id="WAeXrA">
			<path class="st1" d="M191.1,0v48.6H145c-0.3,0-0.5,0-0.8,0h-1.6c-0.1,0-0.1,0-0.1-0.1V9.6c0-0.1,0-0.1,0-0.2c0,0,0-0.1,0-0.2v-9
				c0-0.2,0-0.2,0.2-0.2L191.1,0z M153.1,36.1v-1.9c0-0.1,0-0.2-0.2-0.2h-3c-0.1,0-0.2,0-0.2,0.2v11.9c0,0.1,0,0.1,0.1,0.1h3.2
				c0.2,0,0.2,0,0.2-0.2v-6.7c0-0.5,0-1,0.2-1.5c0.2-0.9,1-1.5,1.9-1.4c0.5,0,0.9,0.3,1.1,0.7c0.1,0.2,0.2,0.4,0.2,0.6
				c0.1,0.5,0.1,1.1,0.1,1.6v6.5c0,0.1,0,0.2,0.2,0.2h3.2c0.2,0,0.2,0,0.2-0.2v-7.9c0-0.6-0.1-1.1-0.1-1.7c-0.1-1.2-1-2.2-2.1-2.5
				c-0.6-0.2-1.3-0.3-2-0.2c-1,0.1-1.9,0.6-2.4,1.4C153.5,35.5,153.3,35.8,153.1,36.1L153.1,36.1z M177.4,40.8h3.8
				c0.1,0,0.2,0,0.2-0.1c0-1-0.1-1.9-0.4-2.9c-0.4-1.5-1.4-2.7-2.8-3.4c-1.1-0.5-2.3-0.7-3.5-0.5c-1.8,0.2-3.3,1.2-4.2,2.8
				c-1,1.8-1.2,3.8-0.6,5.8c0.4,1.5,1.4,2.7,2.7,3.4c1.2,0.7,2.6,0.9,4,0.7c2-0.3,3.7-1.6,4.4-3.5c0.1-0.2,0.1-0.3,0.2-0.5
				c0-0.2,0-0.2-0.1-0.2h-0.6l-2.5-0.2c-0.1,0-0.1,0-0.1,0.1c0,0.3-0.1,0.5-0.2,0.8c-0.7,1.1-2.1,1.4-3.2,0.7
				c-0.3-0.2-0.5-0.4-0.7-0.7c-0.3-0.6-0.5-1.3-0.4-2c0-0.1,0-0.2,0.2-0.2L177.4,40.8z M163.2,40.2L163.2,40.2v2.5
				c0,0.4,0,0.8,0.1,1.2c0.1,0.5,0.2,0.9,0.5,1.4c0.4,0.5,0.9,0.9,1.5,1c1.4,0.3,2.8,0.3,4.2,0c0.1,0,0.1-0.1,0.1-0.1v-2.5
				c0-0.1,0-0.1-0.1-0.1h-0.5c-0.4,0.1-0.9,0.1-1.3,0c-0.5,0-0.8-0.4-0.8-0.8c0,0,0,0,0,0c-0.1-0.3-0.1-0.7-0.1-1V37
				c0-0.1,0-0.2,0.2-0.2h2.3c0.1,0,0.2,0,0.2-0.2v-2.5c0-0.1,0-0.2-0.2-0.2h-2.3c-0.2,0-0.2,0-0.2-0.2v-3.5c0-0.1,0-0.2-0.2-0.2
				l-2.6,0.2c-0.3,0-0.3,0-0.3,0.3l-0.3,3.2c0,0.1,0,0.1-0.1,0.1h-1.8c-0.1,0-0.1,0-0.1,0.2v2.5c0,0.1,0,0.2,0.1,0.2h1.7
				c0.2,0,0.2,0,0.2,0.2C163.2,38.1,163.2,39.2,163.2,40.2L163.2,40.2z M185.6,36.3L185.6,36.3v-2.1c0-0.1,0-0.2-0.2-0.2h-3
				c-0.1,0-0.2,0-0.2,0.2v11.9c0,0.1,0,0.2,0.2,0.2h3.2c0.1,0,0.2,0,0.2-0.2v-4.7c0-0.7,0.1-1.5,0.3-2.2c0.2-0.7,0.6-1.3,1.3-1.6
				c0.4-0.2,0.8-0.2,1.3-0.2c0.1,0,0.2,0,0.2-0.2v-3.2c0-0.3,0-0.2-0.2-0.2h-0.1c-0.9-0.2-1.7,0.2-2.2,1c-0.2,0.4-0.4,0.8-0.6,1.2
				L185.6,36.3z M148.4,40.2v-6c0-0.1,0-0.2-0.2-0.2H145c-0.1,0-0.2,0-0.2,0.2v11.9c0,0.1,0,0.2,0.2,0.2h3.2c0.2,0,0.2,0,0.2-0.2
				C148.4,44.1,148.4,42.1,148.4,40.2L148.4,40.2z M146.6,33h1.7c0.1,0,0.1,0,0.1-0.1v-3.2c0-0.1,0-0.1-0.1-0.1H145
				c-0.1,0-0.1,0-0.1,0.1v3.2c0,0.1,0,0.1,0.1,0.1L146.6,33z M177.5,32c-0.1-0.2-0.1-0.5-0.1-0.7v-1.8c0.1-0.5-0.3-1-0.8-1.1
				c-0.5-0.1-1.1-0.1-1.6,0.1c-0.4,0.1-0.7,0.4-0.8,0.8c0,0.2,0,0.2,0.1,0.2c0.2,0,0.5,0,0.7,0.1c0.2,0.1,0.1,0,0.2-0.1
				c0-0.2,0.2-0.3,0.4-0.4c0.2-0.1,0.5,0,0.6,0.1c0.1,0.1,0.1,0.2,0.1,0.2v0.2c0,0.1,0,0.1-0.1,0.1l-0.6,0.1c-0.4,0-0.7,0.1-1,0.3
				c-0.5,0.3-0.7,1-0.3,1.5c0,0,0,0,0,0c0.1,0.1,0.2,0.3,0.3,0.3c0.6,0.3,1.2,0.2,1.7-0.3l0.1-0.2c0,0.1,0,0.3,0,0.4
				c0,0.1,0,0.1,0.1,0.1L177.5,32z M187.7,30.3h1c0.1,0,0.1,0,0.1-0.1c0-0.2,0-0.4-0.1-0.6c-0.1-0.7-0.6-1.2-1.3-1.3
				c-0.7-0.2-1.4,0.1-1.8,0.6c-0.2,0.3-0.4,0.7-0.4,1.1c-0.1,0.5,0.1,1.1,0.4,1.5c0.4,0.5,1,0.7,1.7,0.6c0.6-0.1,1.2-0.5,1.4-1.1
				c0.1-0.1,0-0.2-0.1-0.2c-0.2,0-0.5,0-0.7,0c-0.1,0-0.1,0-0.1,0.1c0,0.3-0.3,0.5-0.5,0.5c-0.4,0.1-0.7-0.2-0.8-0.5
				c0-0.1,0-0.1,0-0.2c0-0.1,0-0.2,0.2-0.2S187.3,30.4,187.7,30.3L187.7,30.3z M179,28.9v-0.5c0-0.2,0-0.1-0.1-0.1H178
				c-0.1,0-0.1,0-0.1,0.1v3.5c0,0.1,0,0.1,0.1,0.1h0.8c0.1,0,0.2,0,0.2-0.2v-2c0-0.2,0-0.4,0.1-0.5c0.1-0.2,0.3-0.3,0.5-0.2
				c0.2,0,0.3,0.1,0.4,0.4c0,0.1,0,0.3,0,0.4v2c0,0.1,0,0.1,0.1,0.1h0.9c0.1,0,0.1,0,0.1-0.1v-2.6c0-0.5-0.2-0.9-0.7-1
				C179.9,28,179.2,28.3,179,28.9L179,28.9z M182.8,30.1c0-0.2,0-0.3,0-0.5c0-0.2,0.1-0.4,0.3-0.5c0.3-0.2,0.6-0.1,0.8,0.2
				c0,0,0,0,0,0c0,0.1,0.1,0.2,0.1,0.2c0,0.1,0,0.1,0.1,0.1l0.8,0c0.1,0,0.1,0,0.1-0.1c0-0.3-0.2-0.5-0.3-0.8
				c-0.5-0.6-1.3-0.8-2-0.5c-0.7,0.2-1.1,0.8-1.2,1.5c-0.1,0.6,0,1.2,0.4,1.7c0.4,0.5,1,0.7,1.6,0.6c0.7,0,1.4-0.6,1.5-1.3
				c0-0.1,0-0.1-0.1-0.1h-0.7c-0.2,0-0.2,0-0.3,0.2c-0.1,0.3-0.3,0.5-0.6,0.4c-0.3,0-0.5-0.2-0.5-0.5
				C182.8,30.5,182.8,30.3,182.8,30.1L182.8,30.1z M171,30.6v-1.2c0-0.1,0-0.2,0.2-0.1h0.4c0.1,0,0.1,0,0.1-0.1v-0.6
				c0-0.1,0-0.1-0.1-0.1H171c0,0-0.1,0-0.1,0c-0.1-0.2,0-0.4,0.2-0.5c0,0,0,0,0,0c0.1,0,0.1,0,0.2,0c0.1,0,0.3,0,0.3,0
				c0.1,0,0-0.2,0-0.4s0.1-0.3,0-0.4s-0.3-0.1-0.4-0.1c-0.7,0-1.4,0.2-1.4,1.1v0.3c0,0.1-0.2,0-0.3,0s-0.1,0-0.1,0.1V29
				c0,0.1,0,0.3,0.3,0.3s0.2,0,0.2,0.2v2.4c0,0.1,0,0.2,0.2,0.2h0.8c0.1,0,0.1,0,0.1-0.1c-0.1-0.4-0.1-0.8-0.1-1.2L171,30.6z
				 M173,28.9v-0.5c0-0.1,0-0.1-0.1-0.1H172c-0.1,0-0.1,0-0.1,0.1v3.5c0,0.1,0,0.1,0.1,0.1h0.8c0.1,0,0.2,0,0.2-0.2v-1.7
				c0-0.4,0.3-0.8,0.7-0.8c0,0,0,0,0,0h0.1c0.1,0,0.1,0,0.1-0.1v-0.9c0-0.1,0-0.1-0.1-0.1c-0.3-0.1-0.6,0.1-0.7,0.3
				C173,28.7,172.9,28.8,173,28.9L173,28.9z"/>
			<path d="M145,48.7c0.1,0,0.1,0,0.2,0h36.6V58h-48.5c-0.1,0-0.1,0-0.1-0.1V9.4h9.3c0,0.1,0,0.1,0,0.2v35.9c-0.1,0-0.1,0-0.2,0
				c-0.6,0-1.2,0.1-1.9,0.1c-0.1,0-0.1,0-0.1,0.1v4c0,0.1,0,0.2,0.2,0.2l2.4,0.1c0.4,0,0.9,0,1.3,0.1c0.5,0.1,0.9,0.6,0.8,1.1
				c0,0.2-0.1,0.4-0.3,0.5c-0.2,0.2-0.4,0.4-0.7,0.5h1.2c0.2,0,0.5-0.1,0.7-0.2c0.8-0.7,0.9-2,0.2-2.8
				C145.8,48.9,145.4,48.7,145,48.7z M138.8,49.5l-1.3-0.1c0,0-0.1,0-0.1,0c-0.3,0.4-0.5,0.9-0.6,1.4c0,0.6,0.2,1.1,0.6,1.5
				c0.5,0.6,1.2,1.2,2,1.5c1,0.5,2,0.7,3.1,0.8c0.2,0,0.2,0,0.2-0.2c-0.1-0.8-0.1-1.6-0.1-2.3c0-0.1,0-0.1-0.1-0.1
				c-0.6,0.1-1.2,0-1.8-0.1c-0.7-0.1-1.3-0.4-1.8-0.9c-0.2-0.2-0.3-0.5-0.4-0.8C138.5,50,138.6,49.8,138.8,49.5L138.8,49.5z"/>
			<path class="st2" d="M153.1,36.1c0.2-0.3,0.3-0.6,0.6-0.9c0.6-0.8,1.4-1.3,2.4-1.4c0.7-0.1,1.4,0,2,0.2c1.1,0.3,2,1.3,2.1,2.5
				c0.1,0.6,0.1,1.1,0.1,1.7v7.9c0,0.2,0,0.2-0.2,0.2H157c-0.1,0-0.1,0-0.1-0.2v-6.5c0-0.5,0-1.1-0.1-1.6c0-0.2-0.1-0.4-0.2-0.6
				c-0.2-0.4-0.6-0.7-1-0.7c-0.9-0.1-1.8,0.5-2,1.4c-0.1,0.5-0.2,1-0.2,1.4v6.7c0,0.1,0,0.2-0.2,0.2H150c-0.1,0-0.1,0-0.1-0.2V34.2
				c0-0.1,0-0.2,0.2-0.2h3c0.1,0,0.2,0,0.2,0.2v1.7C153.2,36,153.1,36,153.1,36.1z"/>
			<path class="st2" d="M177.4,40.8h-3.8c-0.1,0-0.2,0-0.2,0.2c-0.1,0.7,0,1.4,0.4,2c0.7,1.1,2.1,1.4,3.2,0.7c0,0,0,0,0,0
				c0.3-0.2,0.5-0.4,0.7-0.7c0.1-0.2,0.2-0.5,0.2-0.8c0-0.1,0-0.1,0.1-0.1l2.5,0.2h0.6c0.2,0,0.1,0.1,0.1,0.2c0,0.2-0.1,0.3-0.2,0.5
				c-0.7,1.9-2.5,3.3-4.5,3.5c-1.4,0.2-2.8,0-4-0.7c-1.3-0.7-2.3-1.9-2.7-3.4c-0.6-1.9-0.4-4,0.5-5.7c0.8-1.6,2.4-2.6,4.2-2.8
				c1.2-0.2,2.4,0,3.5,0.5c1.4,0.7,2.4,1.9,2.8,3.4c0.3,0.9,0.4,1.9,0.4,2.9c0,0.1-0.1,0.1-0.2,0.1L177.4,40.8z M175.6,38.7h2
				c0.1,0,0.2,0,0.1-0.2c0-0.2,0-0.3-0.1-0.5c-0.1-0.5-0.2-0.9-0.5-1.3c-0.3-0.4-0.8-0.6-1.4-0.6c-0.8-0.1-1.6,0.3-2,1
				c-0.2,0.4-0.3,0.9-0.4,1.4c0,0.1,0,0.2,0.1,0.2L175.6,38.7z"/>
			<path class="st2" d="M163.2,40.2v-3.1c0-0.2,0-0.2-0.2-0.2h-1.7c-0.1,0-0.1,0-0.1-0.2v-2.5c0-0.1,0-0.2,0.1-0.2h1.9
				c0.1,0,0.1,0,0.1-0.1c0.1-1,0.2-2.1,0.3-3.2c0-0.4,0-0.3,0.3-0.3l2.6-0.2c0.1,0,0.2,0,0.2,0.2v3.5c0,0.2,0,0.2,0.2,0.2h2.3
				c0.1,0,0.2,0,0.2,0.2v2.5c0,0.1,0,0.2-0.2,0.2h-2.3c-0.2,0-0.2,0-0.2,0.2v4.8c0,0.3,0,0.7,0.1,1c0,0.5,0.4,0.8,0.8,0.8
				c0.4,0,0.9,0,1.3,0l0.5,0c0.1,0,0.1,0,0.1,0.1v2.5c0,0.1,0,0.1-0.1,0.1c-1.4,0.3-2.8,0.3-4.2,0c-0.6-0.1-1.2-0.5-1.5-1
				c-0.3-0.4-0.4-0.9-0.5-1.4c-0.1-0.4-0.1-0.8-0.1-1.2v-2.5L163.2,40.2z"/>
			<path class="st2" d="M185.6,36.3l0.1-0.3c0.1-0.4,0.3-0.8,0.6-1.2c0.5-0.8,1.3-1.2,2.2-1h0.2c0.3,0,0.2,0,0.2,0.2v3.2
				c0,0.1,0,0.2-0.2,0.2c-0.4,0-0.9,0-1.3,0.2c-0.7,0.3-1.2,0.9-1.3,1.6c-0.2,0.7-0.3,1.5-0.3,2.2v4.7c0,0.2,0,0.2-0.2,0.2h-3.2
				c-0.1,0-0.2,0-0.2-0.2V34.2c0-0.1,0-0.2,0.2-0.2h3c0.1,0,0.2,0,0.2,0.2L185.6,36.3L185.6,36.3z"/>
			<path class="st2" d="M148.4,40.2v5.9c0,0.1,0,0.2-0.2,0.2H145c-0.1,0-0.2,0-0.2-0.2V34.2c0-0.1,0-0.2,0.2-0.2h3.2
				c0.1,0,0.2,0,0.2,0.2L148.4,40.2z"/>
			<path class="st2" d="M145,48.7c1,0.1,1.8,0.9,1.8,1.9c0,0.6-0.3,1.1-0.8,1.4c-0.2,0.1-0.4,0.2-0.7,0.2h-1.2
				c0.3-0.1,0.5-0.3,0.7-0.5c0.3-0.4,0.3-1,0-1.3c-0.1-0.1-0.3-0.2-0.5-0.3c-0.4-0.1-0.8-0.1-1.3-0.1l-2.4-0.1c-0.1,0-0.2,0-0.2-0.2
				v-4c0-0.1,0-0.1,0.1-0.1c0.6,0,1.2-0.1,1.9-0.1h0.2v3c0,0.1,0,0.1,0.2,0.1h1.5C144.5,48.6,144.8,48.6,145,48.7z"/>
			<path class="st2" d="M146.6,33h-1.7c-0.1,0-0.1,0-0.1-0.1v-3.2c0-0.1,0-0.1,0.1-0.1h3.3c0.1,0,0.1,0,0.1,0.1v3.2
				c0,0.1,0,0.1-0.1,0.1L146.6,33z"/>
			<path class="st2" d="M177.4,32h-1c-0.1,0-0.1,0-0.1-0.1c0-0.1,0-0.3,0-0.4l-0.1,0.2c-0.4,0.4-1.1,0.6-1.7,0.3
				c-0.5-0.3-0.7-1-0.4-1.5c0,0,0,0,0,0c0.1-0.1,0.2-0.3,0.3-0.3c0.3-0.2,0.6-0.3,1-0.3l0.6-0.1c0.1,0,0.1,0,0.1-0.1v-0.2
				c0-0.1,0-0.2-0.1-0.2c-0.2-0.2-0.4-0.2-0.6-0.1c-0.2,0-0.4,0.2-0.4,0.4c0,0.1,0,0.1-0.2,0.1l-0.7-0.1c-0.2,0-0.2,0-0.1-0.2
				c0.1-0.4,0.4-0.7,0.8-0.8c0.5-0.2,1.1-0.2,1.6-0.1c0.5,0.1,0.9,0.6,0.8,1.1v1.8C177.4,31.5,177.4,31.8,177.4,32z M176.2,30.5
				v-0.2c0-0.1,0-0.1-0.1-0.1c-0.2,0-0.5,0.1-0.7,0.2c-0.2,0.1-0.3,0.2-0.3,0.4c-0.1,0.2,0,0.4,0.1,0.5c0.1,0.1,0.3,0.1,0.5,0.1
				C176.1,31.2,176.3,30.9,176.2,30.5L176.2,30.5z"/>
			<path class="st2" d="M187.6,30.3h-1c-0.2,0-0.2,0-0.2,0.2c0,0.4,0.3,0.7,0.6,0.8h0.2c0.3,0,0.5-0.2,0.5-0.5
				c0-0.1,0.1-0.1,0.1-0.1c0.2,0,0.5,0,0.7,0s0.1,0,0.1,0.2c-0.2,0.6-0.7,1-1.4,1.1c-0.6,0.1-1.3-0.1-1.7-0.6
				c-0.6-0.8-0.6-1.8-0.1-2.6c0.4-0.6,1.1-0.8,1.8-0.6c0.7,0.1,1.2,0.7,1.3,1.3c0,0.2,0.1,0.4,0.1,0.6c0,0.1,0,0.2-0.1,0.1
				L187.6,30.3L187.6,30.3z M187.8,29.7v-0.2c0-0.3-0.2-0.5-0.5-0.5c-0.5-0.1-0.8,0.2-0.8,0.7c0,0,0,0,0.1,0H187.8z"/>
			<path class="st2" d="M178.9,28.9L178.9,28.9c0.3-0.6,0.9-0.9,1.4-0.6c0.4,0.1,0.7,0.5,0.7,1v2.6c0,0.1,0,0.1-0.1,0.1h-0.8
				c-0.1,0-0.1,0-0.1-0.1v-2c0-0.1,0-0.3,0-0.4c0-0.2-0.2-0.4-0.4-0.4c-0.2,0-0.4,0.1-0.5,0.2c-0.1,0.2-0.1,0.4-0.1,0.5v2
				c0,0.1,0,0.2-0.2,0.2H178c-0.1,0-0.1,0-0.1-0.1v-3.5c0-0.1,0-0.1,0.1-0.1h0.8c0.1,0,0.1,0,0.1,0.1S178.9,28.7,178.9,28.9z"/>
			<path class="st2" d="M182.8,30.1c0,0.2,0,0.4,0.1,0.6c0,0.3,0.3,0.5,0.5,0.5c0.3,0,0.5-0.2,0.6-0.4c0-0.2,0.1-0.2,0.2-0.2h0.7
				c0.1,0,0.1,0,0.1,0.1c-0.1,0.7-0.7,1.3-1.4,1.3c-0.6,0.1-1.2-0.1-1.6-0.6c-0.4-0.5-0.5-1.1-0.4-1.7c0-0.7,0.5-1.3,1.2-1.5
				c0.7-0.3,1.5-0.1,2,0.5c0.2,0.2,0.3,0.5,0.3,0.8c0,0.1,0,0.1-0.1,0.1l-0.8,0c-0.1,0-0.1,0-0.1-0.1c0-0.3-0.2-0.5-0.5-0.5
				c-0.1,0-0.2,0-0.3,0.1c-0.2,0.1-0.3,0.3-0.3,0.5C182.8,29.8,182.8,29.9,182.8,30.1z"/>
			<path class="st2" d="M170.9,30.6v1.2c0,0.1,0,0.1-0.1,0.1H170c-0.2,0-0.2,0-0.2-0.2v-2.4c0-0.1,0-0.2-0.2-0.2
				c-0.2,0-0.3,0-0.3-0.3v-0.5c0-0.1,0-0.1,0.1-0.1c0.1,0,0.2,0,0.3,0s0-0.2,0-0.3c0-0.9,0.7-1.2,1.4-1.1c0.2,0,0.3,0,0.4,0.1
				c0.1,0.1,0,0.3,0,0.4s0,0.3,0,0.4c-0.1,0.1-0.2,0-0.3,0c-0.2,0-0.4,0.1-0.4,0.4c0,0,0,0,0,0c0,0.1,0,0.1,0,0.2c0,0.1,0.1,0,0.1,0
				h0.5c0.1,0,0.1,0,0.1,0.1v0.6c0,0.2,0,0.1-0.1,0.1H171c-0.1,0-0.2,0-0.2,0.2C170.9,29.8,170.9,30.2,170.9,30.6z"/>
			<path class="st2" d="M172.8,28.9c0.1-0.1,0.1-0.2,0.2-0.4c0.1-0.3,0.4-0.4,0.7-0.3c0.1,0,0.1,0,0.1,0.1v0.9c0,0.1,0,0.1-0.1,0.1
				c-0.4,0-0.8,0.3-0.8,0.8v0.1c0,0.6,0,1.1,0,1.7c0,0.1,0,0.2-0.2,0.2h-0.8c-0.1,0-0.1,0-0.1-0.1v-3.5c0-0.1,0-0.1,0.1-0.1h0.8
				c0.1,0,0.1,0,0.1,0.1C172.8,28.6,172.8,28.7,172.8,28.9z"/>
			<path class="st2" d="M138.8,49.5c-0.2,0.2-0.3,0.5-0.3,0.8c0,0.3,0.1,0.6,0.3,0.8c0.5,0.5,1.1,0.8,1.8,0.9
				c0.6,0.1,1.2,0.1,1.8,0.1c0.1,0,0.1,0,0.1,0.1c0,0.8,0.1,1.6,0.2,2.3c0,0.1,0,0.2-0.2,0.2c-1.1-0.1-2.1-0.4-3.1-0.8
				c-0.8-0.3-1.5-0.8-2-1.5c-0.4-0.4-0.5-1-0.5-1.5c0-0.5,0.2-1,0.6-1.4c0,0,0.1,0,0.1,0L138.8,49.5z"/>
			<path class="st1" d="M175.6,38.7h-2c-0.1,0-0.2,0-0.1-0.2c0-0.5,0.2-0.9,0.4-1.4c0.4-0.7,1.1-1.1,1.9-1c0.5,0,1,0.2,1.4,0.6
				c0.3,0.4,0.5,0.8,0.5,1.3c0,0.2,0,0.3,0.1,0.5c0.1,0.2,0,0.2-0.2,0.2L175.6,38.7z"/>
			<path class="st1" d="M176.2,30.5c0.1,0.4-0.1,0.7-0.5,0.8c-0.2,0.1-0.4,0.1-0.5-0.1c-0.1-0.1-0.2-0.3-0.1-0.5
				c0-0.2,0.2-0.3,0.3-0.4c0.2-0.1,0.5-0.2,0.7-0.2c0.1,0,0.1,0,0.1,0.1V30.5z"/>
			<path class="st1" d="M187.8,29.7h-1.2c0,0-0.1,0-0.1-0.1c0-0.4,0.3-0.7,0.7-0.7c0.1,0,0.1,0,0.2,0c0.3,0.1,0.4,0.3,0.5,0.5
				C187.7,29.5,187.7,29.6,187.8,29.7z"/>
		</g>
	</g>
</g>
</svg>
