<?xml version="1.0" encoding="utf-8"?>
<!-- Generator: Adobe Illustrator 22.0.1, SVG Export Plug-In . SVG Version: 6.00 Build 0)  -->
<svg version="1.1" id="Calque_1" xmlns="http://www.w3.org/2000/svg" xmlns:xlink="http://www.w3.org/1999/xlink" x="0px" y="0px"
	 viewBox="0 0 40.4 40.4" style="enable-background:new 0 0 40.4 40.4;" xml:space="preserve">
<style type="text/css">
	.st0{fill:#FFFFFF;}
</style>
<title>icon_tt</title>
<path class="st0" d="M20.2,0.5C9.3,0.5,0.5,9.3,0.5,20.2c0,10.9,8.8,19.7,19.7,19.7c10.9,0,19.7-8.8,19.7-19.7
	C39.9,9.3,31.1,0.5,20.2,0.5z M28.8,15.8c0,0.2,0,0.4,0,0.6c0,2.4-0.7,4.8-2,6.8c-3.8,5.9-11.6,7.6-17.4,3.8
	c2.4,0.3,4.7-0.4,6.6-1.8c-1.9,0-3.6-1.3-4.2-3.1c0.3,0.1,0.6,0.1,0.8,0.1c0.4,0,0.8-0.1,1.2-0.2c-2.1-0.4-3.5-2.3-3.5-4.4v0
	c0.6,0.3,1.3,0.5,2,0.6c-1.2-0.8-2-2.2-2-3.7c0-0.8,0.2-1.6,0.6-2.2c2.3,2.8,5.6,4.5,9.1,4.6c-0.1-0.3-0.1-0.7-0.1-1
	c0-1.2,0.5-2.4,1.4-3.2c1.8-1.7,4.6-1.6,6.3,0.2c1-0.2,1.9-0.6,2.8-1.1c-0.3,1-1,1.9-2,2.5c0.9-0.1,1.7-0.3,2.5-0.7
	C30.4,14.4,29.7,15.2,28.8,15.8z"/>
</svg>
