<svg xmlns="http://www.w3.org/2000/svg" viewBox="0 0 28.02 28.35"><defs><style>.cls-1{fill:#dec180;}</style></defs><title>icone_zoom_plus</title><g id="Calque_2" data-name="Calque 2"><g id="Calque_2-2" data-name="Calque 2"><path class="cls-1" d="M17.78,11.44H13.24V6.89a.9.9,0,0,0-1.8,0v4.55H6.89a.9.9,0,1,0,0,1.8h4.55v4.54a.9.9,0,0,0,1.8,0V13.24h4.54a.9.9,0,1,0,0-1.8Z"/><path class="cls-1" d="M27.75,26.81l-6.24-6.24a12.14,12.14,0,1,0-1.29,1.26l6.26,6.26a.92.92,0,0,0,.64.26.89.89,0,0,0,.63-.26A.91.91,0,0,0,27.75,26.81Zm-22.87-7a10.54,10.54,0,1,1,14.91,0A10.56,10.56,0,0,1,4.88,19.79Z"/></g></g></svg>