<?xml version="1.0" encoding="utf-8"?>
<!-- Generator: Adobe Illustrator 22.0.1, SVG Export Plug-In . SVG Version: 6.00 Build 0)  -->
<svg version="1.1" id="Calque_1" xmlns="http://www.w3.org/2000/svg" xmlns:xlink="http://www.w3.org/1999/xlink" x="0px" y="0px"
	 viewBox="0 0 40.4 40.4" style="enable-background:new 0 0 40.4 40.4;" xml:space="preserve">
<style type="text/css">
	.st0{fill:#FFFFFF;}
</style>
<title>icon_insta</title>
<g>
	<path class="st0" d="M24.1,12.5l-3.9,0h-3.8c-0.3,0-0.6,0-0.9,0.1c-1.8,0.4-3,2-3,3.8c0,2.6,0,5.1,0,7.7c0,0.3,0,0.6,0.1,0.9
		c0.4,1.8,2,3,3.8,3h7.7c0.3,0,0.6,0,0.8-0.1c1.8-0.4,3.1-2,3-3.8c0-2.6,0-5.1,0-7.7c0-0.3,0-0.6-0.1-0.9
		C27.5,13.7,26,12.4,24.1,12.5z M25.4,20.2c0,2.8-2.4,5.1-5.2,5.1c-2.8,0-5.1-2.4-5.1-5.2c0-2.8,2.3-5.1,5.2-5.1
		C23.1,15,25.4,17.3,25.4,20.2L25.4,20.2z M25.3,15.9c-0.4,0-0.8-0.3-0.8-0.8c0-0.4,0.3-0.8,0.8-0.8c0,0,0,0,0,0
		c0.4,0,0.8,0.4,0.8,0.8C26.1,15.6,25.8,15.9,25.3,15.9z"/>
	<path class="st0" d="M20.3,16.8c-1.9,0-3.4,1.5-3.4,3.4c0,1.9,1.5,3.4,3.4,3.5c1.9,0,3.4-1.5,3.5-3.4c0,0,0,0,0,0
		C23.7,18.3,22.2,16.8,20.3,16.8z"/>
	<path class="st0" d="M20.2,0.5C9.3,0.5,0.5,9.3,0.5,20.2c0,10.9,8.8,19.7,19.7,19.7c10.9,0,19.7-8.8,19.7-19.7
		C39.9,9.3,31.1,0.5,20.2,0.5z M29.7,20.2V24c0,2.4-1.5,4.6-3.8,5.4c-0.6,0.2-1.2,0.3-1.8,0.3c-2.5,0-5,0-7.6,0
		c-2.7,0-5-1.8-5.5-4.4c-0.1-0.4-0.1-0.9-0.1-1.3c0-2.5,0-5,0-7.5c0-3.1,2.4-5.6,5.5-5.7c0,0,0.1,0,0.1,0c2.5,0,5.1,0,7.7,0
		c2.6,0,4.9,1.8,5.5,4.4c0.1,0.4,0.1,0.9,0.1,1.3C29.7,17.7,29.7,19,29.7,20.2z"/>
</g>
</svg>
