<?xml version="1.0" encoding="utf-8"?>
<!-- Generator: Adobe Illustrator 22.1.0, SVG Export Plug-In . SVG Version: 6.00 Build 0)  -->
<svg version="1.1" id="Calque_1" xmlns="http://www.w3.org/2000/svg" xmlns:xlink="http://www.w3.org/1999/xlink" x="0px" y="0px"
	 viewBox="0 0 28 28.4" style="enable-background:new 0 0 28 28.4;" xml:space="preserve">
<style type="text/css">
	.st0{fill:#63BCBA;}
</style>
<title>icone_zoom_moins</title>
<g id="Calque_2_1_">
	<g id="Calque_2-2">
		<path class="st0" d="M17.8,13.2H6.9c-0.5,0-0.9-0.4-0.9-0.9c0-0.5,0.4-0.9,0.9-0.9h10.9c0.5,0,0.9,0.4,0.9,0.9
			C18.7,12.8,18.3,13.2,17.8,13.2z"/>
		<path class="st0" d="M27.8,26.8l-6.2-6.2c4.4-5,4-12.7-1.1-17.1S7.7-0.5,3.3,4.5s-4,12.7,1.1,17.1c4.5,4,11.2,4.1,15.8,0.2
			l6.3,6.3c0.2,0.2,0.4,0.3,0.6,0.3c0.2,0,0.5-0.1,0.6-0.3C28.1,27.7,28.1,27.2,27.8,26.8z M4.9,19.8C0.8,15.7,0.8,9,4.9,4.9
			s10.8-4.1,14.9,0c4.1,4.1,4.1,10.8,0,14.9C15.7,23.9,9,23.9,4.9,19.8L4.9,19.8z"/>
	</g>
</g>
</svg>
