<?xml version="1.0" encoding="utf-8"?>
<!-- Generator: Adobe Illustrator 22.0.1, SVG Export Plug-In . SVG Version: 6.00 Build 0)  -->
<svg version="1.1" id="Calque_1" xmlns="http://www.w3.org/2000/svg" xmlns:xlink="http://www.w3.org/1999/xlink" x="0px" y="0px"
	 viewBox="0 0 40.4 40.4" style="enable-background:new 0 0 40.4 40.4;" xml:space="preserve">
<style type="text/css">
	.st0{fill:#FFFFFF;}
</style>
<title>icon_fb</title>
<path class="st0" d="M20.2,0.5C9.3,0.5,0.5,9.3,0.5,20.2c0,10.9,8.8,19.7,19.7,19.7c10.9,0,19.7-8.8,19.7-19.7
	C39.9,9.3,31.1,0.5,20.2,0.5z M24.1,20.2h-2.5v9.1h-3.8v-9.1H16V17h1.8v-2.1c0-0.2,0-0.4,0-0.6c0.2-1.9,1.9-3.4,3.8-3.2h2.8v3.1h-2
	c0,0-0.1,0-0.1,0c-0.4,0.1-0.7,0.4-0.7,0.9V17h2.9L24.1,20.2z"/>
</svg>
